<?xml version="1.0" encoding="UTF-8"?>
<svg id="Capa_1" data-name="Capa 1" xmlns="http://www.w3.org/2000/svg" viewBox="0 0 609.76 610.02">
  <defs>
    <style>
      .cls-1 {
        fill: #eaeaea;
      }

      .cls-1, .cls-2 {
        stroke-width: 0px;
      }

      .cls-2 {
        fill: #000;
      }
    </style>
  </defs>
  <path class="cls-1" d="M609.77.38v527.43c0,45.41-36.81,82.22-82.22,82.22H.12V82.6C.12,37.2,36.93.38,82.34.38h527.43Z"/>
  <path class="cls-2" d="M328.6,266.29c5.21-5.85,9.5-11.8,14.85-16.84,16.45-15.5,35.91-23.33,58.62-23.14,12.49.1,24.83,1.01,36.87,4.49,27.53,7.96,43.53,26.91,51.16,53.81,5.72,20.17,6.78,40.88,6.81,61.65.08,43.82-.13,87.64-.03,131.46,0,4.1-1.14,5.18-5.18,5.14-22.57-.18-45.15-.19-67.72,0-3.97.03-4.83-1.2-4.82-4.95.13-41.7.15-83.39.02-125.09-.04-10.45-.7-20.89-3.63-31.05-5.4-18.71-18.79-28.25-38.4-27.21-26.77,1.41-40.69,14.67-44.1,41.89-.82,6.5-1.2,13.01-1.2,19.56.04,40.55-.04,81.1.11,121.65.01,4.05-1,5.24-5.13,5.2-22.74-.2-45.48-.18-68.22-.02-3.64.03-4.7-.95-4.69-4.64.1-80.28.1-160.56,0-240.85,0-3.97,1.3-4.89,5.05-4.86,21.59.16,43.19.18,64.78-.01,3.98-.03,5,1.25,4.91,5.01-.22,9.59-.07,19.19-.07,28.79h0Z"/>
  <path class="cls-2" d="M204.91,358.04c0,39.71-.07,79.43.09,119.15.02,4.41-1.08,5.75-5.65,5.7-22.56-.25-45.13-.19-67.7-.03-3.61.03-4.7-.88-4.7-4.61.11-80.42.1-160.83.02-241.25,0-3.33.8-4.51,4.34-4.49,22.89.15,45.79.19,68.68-.02,4.4-.05,5,1.66,4.99,5.43-.11,40.04-.07,80.09-.07,120.13h0Z"/>
  <path class="cls-2" d="M211.13,152.81c.02,24.94-20.22,45.25-45.1,45.26-24.56,0-44.97-20.32-45.05-44.87-.08-24.82,20.32-45.26,45.14-45.23,24.66.02,44.98,20.27,45.01,44.85h0Z"/>
</svg>