<?xml version="1.0" encoding="UTF-8" standalone="no"?>
<svg
   id="Capa_1"
   data-name="Capa 1"
   viewBox="0 0 50 49.863348"
   version="1.1"
   width="50"
   height="49.86335"
   xmlns="http://www.w3.org/2000/svg"
   xmlns:svg="http://www.w3.org/2000/svg">
  <defs
     id="defs1">
    <style
       id="style1">
      .cls-1 {
        fill: #eaeaea;
      }

      .cls-1, .cls-2 {
        stroke-width: 0px;
      }

      .cls-2 {
        fill: #000;
      }
    </style>
  </defs>
  <path
     class="cls-2"
     d="m 27.61283,21.05606 c 0.692914,-0.778031 1.26347,-1.569362 1.975003,-2.239666 2.187798,-2.061451 4.775916,-3.102816 7.796273,-3.077546 1.661131,0.0133 3.302311,0.134326 4.903593,0.597155 3.661403,1.058655 5.789352,3.578945 6.804117,7.156559 0.760742,2.682546 0.901719,5.43691 0.905709,8.199254 0.01064,5.827921 -0.01729,11.655841 -0.004,17.483762 0,0.545287 -0.151616,0.688923 -0.688924,0.683603 -3.001738,-0.02394 -6.004806,-0.02527 -9.006544,0 -0.527998,0.004 -0.642375,-0.159596 -0.641045,-0.658334 0.01729,-5.545967 0.01995,-11.090605 0.0027,-16.636572 -0.0053,-1.389817 -0.0931,-2.778303 -0.482778,-4.129551 -0.718183,-2.488371 -2.499011,-3.75716 -5.107078,-3.618844 -3.560325,0.187526 -5.411641,1.951064 -5.86516,5.571237 -0.109057,0.86448 -0.159596,1.730289 -0.159596,2.601418 0.0053,5.393021 -0.0053,10.786042 0.01463,16.179063 0.0013,0.538637 -0.132996,0.696903 -0.682273,0.691583 -3.024348,-0.0266 -6.048696,-0.02394 -9.073043,-0.0027 -0.484109,0.004 -0.625085,-0.126347 -0.623755,-0.617106 0.0133,-10.676984 0.0133,-21.353969 0,-32.032284 0,-0.527997 0.172896,-0.650354 0.671634,-0.646364 2.871401,0.02128 5.744132,0.02394 8.615534,-0.0013 0.529327,-0.004 0.664984,0.166246 0.653014,0.666314 -0.02926,1.275439 -0.0093,2.552209 -0.0093,3.828978 v 0 z"
     id="path2"
     style="fill:#b6b6b6;fill-opacity:1" />
  <path
     class="cls-2"
     d="m 11.162454,33.258519 c 0,5.281303 -0.0093,10.563937 0.01197,15.846571 0.0027,0.586515 -0.143637,0.764731 -0.751432,0.758081 -3.0004084,-0.03325 -6.0021466,-0.02527 -9.0038848,-0.004 -0.48011847,0.004 -0.625085,-0.117037 -0.625085,-0.613115 0.0146296,-10.695604 0.0132997,-21.389878 0.00266,-32.085482 0,-0.44288 0.10639746,-0.599816 0.5772062,-0.597156 3.0442972,0.01995 6.0899243,0.02527 9.1342216,-0.0027 0.585186,-0.0067 0.664984,0.220775 0.663654,0.722173 -0.01463,5.325192 -0.0093,10.651715 -0.0093,15.976908 v 0 z"
     id="path3"
     style="fill:#b6b6b6;fill-opacity:1" />
  <path
     class="cls-2"
     d="M 11.989694,5.9635818 C 11.992354,9.2805224 9.3004987,11.981688 5.9915378,11.983018 2.7251359,11.983018 0.01067093,9.2805224 3.1187071e-5,6.0154505 -0.01060856,2.7144695 2.7025265,-0.00398552 6.0035075,4.3864279e-6 9.2832091,0.00266432 11.985704,2.6958499 11.989694,5.9649117 v 0 z"
     id="path4"
     style="fill:#b6b6b6;fill-opacity:1" />
</svg>
