<?xml version="1.0" encoding="UTF-8"?>
<svg id="Capa_1" data-name="Capa 1" xmlns="http://www.w3.org/2000/svg" viewBox="0 0 609.76 609.49">
  <defs>
    <style>
      .cls-1 {
        fill: #eaeaea;
      }

      .cls-1, .cls-2 {
        stroke-width: 0px;
      }

      .cls-2 {
        fill: #000;
      }
    </style>
  </defs>
  <path class="cls-1" d="M609.31-.41v527.75c0,45.44-36.83,82.27-82.27,82.27H-.71V81.86C-.71,36.43,36.12-.41,81.56-.41h527.75Z"/>
  <g>
    <path class="cls-2" d="M310.67,101.83c-53.27,0-59.94.23-80.86,1.18-20.87.95-35.13,4.26-47.6,9.11-12.9,5.01-23.83,11.72-34.74,22.62-10.9,10.9-17.61,21.84-22.62,34.74-4.84,12.47-8.16,26.73-9.11,47.6-.96,20.92-1.18,27.59-1.18,80.86s.23,59.94,1.18,80.86c.95,20.87,4.27,35.13,9.11,47.6,5.01,12.9,11.72,23.83,22.62,34.73,10.9,10.9,21.84,17.61,34.74,22.62,12.47,4.85,26.73,8.16,47.6,9.11,20.92.96,27.6,1.18,80.86,1.18s59.94-.23,80.86-1.18c20.88-.95,35.14-4.27,47.61-9.11,12.9-5.02,23.83-11.72,34.74-22.62,10.9-10.9,17.61-21.84,22.62-34.73,4.85-12.47,8.16-26.73,9.11-47.6.96-20.92,1.18-27.6,1.18-80.86s-.23-59.94-1.18-80.86c-.95-20.88-4.27-35.13-9.11-47.6-5.01-12.9-11.72-23.83-22.62-34.74-10.9-10.9-21.84-17.61-34.74-22.62-12.47-4.85-26.73-8.16-47.61-9.11-20.92-.96-27.59-1.18-80.86-1.18h0ZM310.67,137.17c52.37,0,58.57.2,79.25,1.14,19.12.88,29.5,4.07,36.41,6.76,9.16,3.56,15.69,7.81,22.55,14.67,6.86,6.86,11.11,13.4,14.67,22.55,2.69,6.91,5.88,17.3,6.76,36.42.94,20.68,1.14,26.88,1.14,79.25s-.2,58.57-1.14,79.25c-.88,19.12-4.07,29.51-6.76,36.41-3.56,9.16-7.81,15.69-14.67,22.55-6.86,6.86-13.4,11.11-22.55,14.67-6.91,2.69-17.3,5.88-36.41,6.75-20.68.95-26.88,1.14-79.25,1.14s-58.57-.2-79.25-1.14c-19.12-.87-29.51-4.07-36.41-6.75-9.16-3.56-15.69-7.81-22.55-14.67-6.86-6.86-11.11-13.4-14.67-22.55-2.69-6.91-5.88-17.3-6.76-36.41-.94-20.68-1.14-26.88-1.14-79.25s.2-58.57,1.14-79.25c.88-19.12,4.07-29.51,6.76-36.42,3.56-9.15,7.8-15.69,14.67-22.55,6.86-6.86,13.4-11.11,22.55-14.67,6.91-2.69,17.29-5.88,36.41-6.76,20.68-.94,26.88-1.14,79.25-1.14"/>
    <path class="cls-2" d="M310.67,363.32c-36.1,0-65.37-29.27-65.37-65.37s29.27-65.37,65.37-65.37,65.37,29.27,65.37,65.37-29.27,65.37-65.37,65.37h0ZM310.67,197.24c-55.62,0-100.71,45.09-100.71,100.71s45.09,100.71,100.71,100.71,100.71-45.09,100.71-100.71-45.09-100.71-100.71-100.71h0Z"/>
    <path class="cls-2" d="M438.89,193.26c0,13-10.53,23.53-23.53,23.53s-23.53-10.54-23.53-23.53,10.53-23.53,23.53-23.53,23.53,10.54,23.53,23.53h0Z"/>
  </g>
</svg>