<svg
   class="logo-instagram"
   viewBox="0 0 49.999999 49.997453"
   width="50"
   height="49.997452">
  <g
     id="g4"
     transform="translate(-114.56,-101.83)">
    <path
       class="cls-2"
       d="m 139.55936,101.83 c -6.79066,0 -7.64092,0.0293 -10.30772,0.15042 -2.66043,0.1211 -4.47824,0.54305 -6.06787,1.16131 -1.64445,0.63866 -3.03776,1.49402 -4.42853,2.88351 -1.38949,1.38949 -2.24485,2.78408 -2.88351,4.42853 -0.61698,1.58963 -1.04021,3.40744 -1.16131,6.06787 -0.12238,2.6668 -0.15042,3.51706 -0.15042,10.30772 0,6.79066 0.0293,7.64093 0.15042,10.30773 0.1211,2.66043 0.54433,4.47824 1.16131,6.06787 0.63866,1.64444 1.49402,3.03776 2.88351,4.42725 1.38949,1.38949 2.78408,2.24485 4.42853,2.88351 1.58963,0.61826 3.40744,1.04021 6.06787,1.16131 2.6668,0.12238 3.51834,0.15042 10.30772,0.15042 6.78939,0 7.64093,-0.0293 10.30773,-0.15042 2.6617,-0.1211 4.47951,-0.54432 6.06914,-1.16131 1.64445,-0.63993 3.03776,-1.49402 4.42853,-2.88351 1.38949,-1.38949 2.24485,-2.78408 2.88351,-4.42725 0.61826,-1.58963 1.04021,-3.40744 1.16131,-6.06787 0.12238,-2.6668 0.15042,-3.51834 0.15042,-10.30773 0,-6.78938 -0.0293,-7.64092 -0.15042,-10.30772 -0.1211,-2.66171 -0.54433,-4.47824 -1.16131,-6.06787 -0.63866,-1.64445 -1.49402,-3.03776 -2.88351,-4.42853 -1.38949,-1.38949 -2.78408,-2.24485 -4.42853,-2.88351 -1.58963,-0.61826 -3.40744,-1.04021 -6.06914,-1.16131 -2.6668,-0.12238 -3.51707,-0.15042 -10.30773,-0.15042 z m 0,4.50501 c 6.67593,0 7.46629,0.0255 10.10249,0.14532 2.43735,0.11218 3.76055,0.51883 4.64141,0.86174 1.16769,0.45382 2.0001,0.99559 2.87459,1.87008 0.87449,0.87449 1.41626,1.70818 1.87008,2.87459 0.34291,0.88086 0.74956,2.20534 0.86174,4.64268 0.11982,2.63621 0.14532,3.42656 0.14532,10.10249 0,6.67593 -0.0255,7.46628 -0.14532,10.10249 -0.11218,2.43735 -0.51883,3.76183 -0.86174,4.64141 -0.45382,1.16768 -0.99559,2.0001 -1.87008,2.87459 -0.87449,0.87449 -1.70818,1.41626 -2.87459,1.87008 -0.88086,0.34291 -2.20534,0.74956 -4.64141,0.86046 -2.6362,0.1211 -3.42656,0.14532 -10.10249,0.14532 -6.67593,0 -7.46628,-0.0255 -10.10249,-0.14532 -2.43734,-0.1109 -3.76182,-0.51883 -4.64141,-0.86046 -1.16768,-0.45382 -2.0001,-0.99559 -2.87459,-1.87008 -0.87448,-0.87449 -1.41626,-1.70818 -1.87007,-2.87459 -0.34291,-0.88086 -0.74956,-2.20534 -0.86174,-4.64141 -0.11983,-2.63621 -0.14532,-3.42656 -0.14532,-10.10249 0,-6.67593 0.0255,-7.46628 0.14532,-10.10249 0.11218,-2.43734 0.51883,-3.76182 0.86174,-4.64268 0.45381,-1.16641 0.99431,-2.0001 1.87007,-2.87459 0.87449,-0.87449 1.70818,-1.41626 2.87459,-1.87008 0.88086,-0.34291 2.20407,-0.74956 4.64141,-0.86174 2.63621,-0.11982 3.42656,-0.14532 10.10249,-0.14532"
       id="path2"
       style="fill:#b6b6b6;fill-opacity:1" />
    <path
       class="cls-2"
       d="m 139.55936,135.16376 c -4.60189,0 -8.33312,-3.73123 -8.33312,-8.33312 0,-4.60189 3.73123,-8.33312 8.33312,-8.33312 4.60189,0 8.33312,3.73123 8.33312,8.33312 0,4.60189 -3.73123,8.33312 -8.33312,8.33312 z m 0,-21.17125 c -7.09023,0 -12.83813,5.7479 -12.83813,12.83813 0,7.09023 5.7479,12.83813 12.83813,12.83813 7.09023,0 12.83813,-5.7479 12.83813,-12.83813 0,-7.09023 -5.7479,-12.83813 -12.83813,-12.83813 z"
       id="path3"
       style="fill:#b6b6b6;fill-opacity:1" />
    <path
       class="cls-2"
       d="m 155.90436,113.48515 c 0,1.65719 -1.34232,2.99952 -2.99951,2.99952 -1.65719,0 -2.99952,-1.3436 -2.99952,-2.99952 0,-1.65591 1.34233,-2.99951 2.99952,-2.99951 1.65719,0 2.99951,1.3436 2.99951,2.99951 z"
       id="path4"
       style="fill:#b6b6b6;fill-opacity:1" />
  </g>
</svg>
