<?xml version="1.0" encoding="UTF-8" standalone="no"?>
<svg
   version="1.1"
   viewBox="0 0 64.999999 59.901646"
   id="svg8"
   width="65"
   height="59.901646"
   xmlns="http://www.w3.org/2000/svg"
   xmlns:svg="http://www.w3.org/2000/svg">
  <defs
     id="defs1">
    <style
       id="style1">
      .cls-1 {
        fill: #fff;
      }

      .cls-2 {
        fill: #cf6;
      }
    </style>
  </defs>
  <!-- Generator: Adobe Illustrator 28.6.0, SVG Export Plug-In . SVG Version: 1.2.0 Build 709)  -->
  <g
     id="g8"
     transform="matrix(0.23811192,0,0,0.23811192,-23.601445,-96.371206)">
    <g
       id="_x31_">
      <g
         id="g7">
        <path
           class="cls-1"
           d="m 372,536.6 c 0,-25.9 -8.1,-49.8 -22,-69 -0.5,-0.5 -0.5,-1 -1,-1.4 -31.1,-42.6 -85.2,-59.4 -134.1,-43.6 -3.4,1 -4.8,4.3 -3.8,7.7 l 35,102 c -5.7,1.4 -94.3,20.6 -106.3,23 -3.4,0.5 -5.3,3.8 -4.8,7.2 5.7,26.3 20.6,49.8 41.7,67 21.1,17.2 47.9,26.8 75.7,26.8 66.1,0 119.7,-53.6 119.7,-119.7 z M 224.5,432.7 c 40.2,-10.5 84.3,2.9 111.6,36.9 l -79,57.5 -32.6,-94.3 z m 29.7,118.3 22.5,46.9 c -13.9,5.3 -29.7,6.2 -44.5,1 z m -33,43.1 C 206.8,586 195.8,573 190.6,557.2 l 53.2,-11.5 -22.5,48.4 z m -72.8,-28.2 30.2,-6.7 c 5.7,18.7 18.7,35.4 37.4,45.5 l -12.9,27.8 c -25.9,-13.4 -46.4,-37.4 -54.6,-66.6 z m 65.6,71.8 12.9,-27.8 c 17.7,6.2 37.4,5.7 55.1,-1.4 l 12.9,27.3 c -25.4,11 -54.6,12 -80.9,1.9 z m 92,-7.2 -12.9,-27.3 c 22.5,-13.4 37.3,-38.3 37.3,-66.1 0,-27.8 -2.9,-6.2 -6.2,-6.2 -3.3,0 -6.2,2.9 -6.2,6.2 0,23.5 -12.5,44.1 -30.6,55.5 L 261.5,539 342.9,479.6 c 10.5,16.8 16.8,36.4 16.8,57.9 0.5,39.3 -21.5,74.2 -53.6,92.9 z"
           id="path6" />
        <path
           class="cls-2"
           d="m 222.2,524.7 c 3.4,-1 5.7,-4.3 4.3,-7.7 L 189.2,408.8 c -1,-2.9 -4.3,-4.8 -7.7,-3.8 -58.4,19.2 -92.9,79.5 -79.5,139.8 0.5,2.9 2.9,4.8 5.7,4.8 2.8,0 -5.7,1.4 114.4,-24.9 z M 180,418.4 l 33,96.2 -14.4,2.9 -16.3,-43.1 c -1,-2.9 -4.8,-4.8 -7.7,-3.4 -2.9,1 -4.8,4.8 -3.4,7.7 l 15.3,41.7 -74.2,16.3 c -8.1,-50.3 19.6,-99.6 67.5,-118.3 z"
           id="path7" />
      </g>
    </g>
  </g>
</svg>
