<?xml version="1.0" encoding="UTF-8" standalone="no"?>
<svg
   id="Capa_1"
   data-name="Capa 1"
   viewBox="0 0 49.999999 43.306388"
   version="1.1"
   sodipodi:docname="logo.svg"
   inkscape:version="1.3.2 (091e20e, 2023-11-25, custom)"
   width="50"
   height="43.306389"
   inkscape:export-filename="logo.svg"
   inkscape:export-xdpi="96"
   inkscape:export-ydpi="96"
   xmlns:inkscape="http://www.inkscape.org/namespaces/inkscape"
   xmlns:sodipodi="http://sodipodi.sourceforge.net/DTD/sodipodi-0.dtd"
   xmlns="http://www.w3.org/2000/svg"
   xmlns:svg="http://www.w3.org/2000/svg">
  <sodipodi:namedview
     id="namedview1"
     pagecolor="#505050"
     bordercolor="#eeeeee"
     borderopacity="1"
     inkscape:showpageshadow="0"
     inkscape:pageopacity="0"
     inkscape:pagecheckerboard="0"
     inkscape:deskcolor="#505050"
     inkscape:zoom="0.77727075"
     inkscape:cx="177.54431"
     inkscape:cy="322.28152"
     inkscape:window-width="1920"
     inkscape:window-height="1017"
     inkscape:window-x="-8"
     inkscape:window-y="-8"
     inkscape:window-maximized="1"
     inkscape:current-layer="Capa_1"
     showgrid="false" />
  <defs
     id="defs1">
    <style
       id="style1">
      .cls-1 {
        fill: #649760;
        stroke-width: 0px;
      }
    </style>
  </defs>
  <path
     class="cls-1"
     d="m 5.0311461,0.05553491 c 0.2653149,-0.0295707 1.1023303,-0.11417579 2.46094,0.0106783 0.4525961,0.0410704 1.3881805,0.14456796 2.8658939,0.50188066 2.054343,0.49695223 3.578056,1.10233033 4.657387,1.53603403 1.350396,0.5429511 2.367299,1.0349748 3.04414,1.365181 0.330206,0.1609961 1.305218,0.6398773 2.623579,1.3684667 0.514202,0.2842074 2.349229,1.3085038 4.696814,2.8585018 1.093295,0.7220181 2.837967,1.8802043 4.919416,3.5402716 0.710518,0.566772 1.412823,1.1549 2.447798,2.020665 1.111365,0.929834 1.681423,1.407894 2.383727,2.032986 1.193507,1.063724 2.051879,1.913882 2.629329,2.488046 0.860836,0.855087 2.36155,2.354157 4.153042,4.471749 0.639877,0.756517 1.600104,1.895811 2.755004,3.495093 1.604211,2.22191 2.53651,3.879513 2.982535,4.7116 0.288314,0.537201 0.510916,0.986511 0.712161,1.421036 0.312956,0.676841 0.777052,1.690459 1.16065,3.051533 0.225887,0.801695 0.317885,1.347932 0.35567,1.592711 0.0345,0.226709 0.119104,0.815659 0.120747,1.448965 8.21e-4,0.342527 -0.023,0.610307 -0.02875,0.677662 -0.023,0.255458 -0.05503,0.444382 -0.06407,0.499417 -0.046,0.266957 -0.09857,0.46656 -0.113355,0.521594 -0.11089,0.411526 -0.247244,0.71134 -0.2801,0.781981 -0.197138,0.426311 -0.414811,0.724482 -0.506809,0.844408 -0.101855,0.133068 -0.523237,0.666984 -1.280576,1.12533 -0.287493,0.174138 -0.666162,0.363062 -1.246898,0.538022 -1.401323,0.423026 -2.635079,0.362241 -3.536164,0.310493 -1.149151,-0.06653 -2.037915,-0.25628 -2.713934,-0.400848 -0.405776,-0.08707 -0.893692,-0.203709 -1.561498,-0.395097 -0.745838,-0.213566 -2.658078,-0.791838 -5.226622,-1.940167 -0.883836,-0.395098 -2.014094,-0.93312 -3.302063,-1.634603 -1.394751,-0.756518 -3.119709,-1.748779 -5.045091,-2.995677 -1.080974,-0.69984 -3.704553,-2.437941 -6.92776,-5.064805 C 16.067591,29.110399 14.391096,27.580115 13.143377,26.386608 11.645949,24.954072 10.610974,23.858313 10.208484,23.427894 9.3024702,22.457811 8.5451319,21.581368 8.3956355,21.408051 8.2748885,21.26759 8.1073211,21.073738 7.8855408,20.809244 7.6999025,20.587464 6.6419283,19.282245 6.6419283,19.282245 v 0 C 6.3872916,18.959432 6.1630471,18.667832 5.9716589,18.414017 c 0,0 -0.3063854,-0.405776 -0.5832001,-0.78691 C 5.3408171,17.561395 5.2866041,17.486646 5.2866041,17.486646 5.1502503,17.297722 5.0377173,17.140833 4.9925399,17.077585 4.8101872,16.821305 4.6302987,16.556812 4.5128373,16.384316 4.2705217,16.027825 4.0750265,15.740332 3.8244969,15.347698 3.8088901,15.323056 3.6700721,15.104562 3.509076,14.842532 3.1509419,14.260975 2.6810962,13.492958 2.1447164,12.447305 1.900758,11.971709 1.58698,11.355653 1.2354171,10.505495 0.98570894,9.9009377 0.65221704,9.0737795 0.36636684,7.9500926 0.16676464,7.164826 0.09940914,6.6563741 0.06737414,6.3664169 0.03205364,6.0403177 -0.03119486,5.4562962 0.01808964,4.8238116 0.06244574,4.2586826 0.17169304,2.8672165 1.2025608,1.7246371 1.8884369,0.96483417 2.6802748,0.64941327 3.1246568,0.47281047 3.8417465,0.18696027 4.4290536,0.1212476 5.0327889,0.05307069 Z M 19.897819,19.105643 c 0,0 4.487355,0.01232 6.765121,0.01807 0.165925,0.0066 0.318707,0.03532 0.455882,0.07721 0,0 0.347456,0.107605 0.651377,0.362241 0.369634,0.309671 8.170551,7.699063 18.809435,17.817173 0.03943,-0.111711 0.08378,-0.250529 0.126497,-0.412347 0.01971,-0.07228 0.06818,-0.260386 0.111711,-0.511737 0,0 0.07886,-0.453418 0.09528,-0.938049 0.01396,-0.42549 -0.01068,-1.304397 -0.249709,-2.460119 -0.222597,-1.078506 -0.524054,-1.877737 -0.74337,-2.451901 -0.09775,-0.255458 -0.260387,-0.666162 -0.510916,-1.209935 -0.882193,-1.916346 -2.006702,-3.653625 -2.19234,-3.937833 -0.609485,-0.936405 -2.101163,-3.144352 -4.461891,-5.777787 -1.447322,-1.614068 -2.646579,-2.745969 -3.372704,-3.430203 -0.411525,-0.387704 -2.112663,-1.976309 -4.544032,-3.891833 -0.506809,-0.399205 -0.937227,-0.726947 -1.250184,-0.962691 0.496131,0.720375 0.82223,1.370931 1.035796,1.862133 0.217674,0.501881 0.360599,0.967619 0.432061,1.198435 0.02054,0.06489 0.04025,0.142104 0.0805,0.29735 0.105962,0.405776 0.121569,0.531451 0.09364,0.669448 -0.02464,0.117461 -0.07228,0.197959 -0.08707,0.220959 -0.02054,0.03286 -0.05832,0.092 -0.127319,0.147853 -0.08543,0.06818 -0.16921,0.092 -0.218494,0.105141 -0.11664,0.03121 -0.219316,0.02464 -0.287493,0.01396 -1.013619,-0.01314 -2.028058,-0.02629 -3.041676,-0.03861 -0.03368,-0.641521 -0.156889,-1.607497 -0.5947,-2.690114 -0.23903,-0.591414 -0.761446,-1.840776 -2.028879,-2.942285 C 24.470601,9.9157157 23.147312,8.7961355 21.165253,8.5710695 21.044506,8.5571055 20.682265,8.5201425 20.202562,8.5365705 18.436534,8.5981765 17.174029,9.3234797 16.590007,9.6676497 15.48357,10.32067 14.805086,11.057474 14.41656,11.48707 c -0.194674,0.215209 -0.877264,0.987333 -1.512213,2.171804 -0.5832,1.089188 -0.841944,1.996023 -0.896157,2.190697 -0.09036,0.326099 -0.479702,1.794778 -0.300635,3.771908 0.09364,1.032511 0.271064,2.766504 1.423501,4.550604 0.795123,1.231291 1.707708,1.948381 2.282694,2.392763 0,0 1.52782,1.177078 2.970213,1.554926 0.661234,0.173317 1.174615,0.208638 1.586962,0.234102 0.858372,0.05421 2.691756,0.147032 4.470927,-0.82223 0.886299,-0.482989 1.297825,-0.978298 1.444036,-1.166401 0.423847,-0.547058 0.58895,-1.061259 0.633306,-1.209113 0.06325,-0.209459 0.195495,-0.722018 0.135532,-1.371752 -0.02464,-0.264494 -0.07393,-0.477239 -0.109247,-0.609485 -0.124854,-0.459989 -0.318707,-0.811552 -0.467382,-1.036618 -0.130604,-0.198781 -0.522415,-0.751589 -1.246898,-1.164757 -0.394276,-0.225066 -0.721196,-0.313778 -1.039082,-0.400848 -0.709697,-0.193031 -1.447321,-0.191388 -2.305693,-0.193852 -0.83373,-0.0025 -1.458822,-0.586486 -1.588605,-1.272362 z m -4.527604,8.609183 c 0.281744,0.262851 0.610307,0.564307 0.979119,0.894514 0.165925,0.148675 0.491203,0.43781 0.911764,0.800873 0.599628,0.516666 1.068652,0.902728 1.255934,1.056331 0.11664,0.09528 0.436989,0.357313 0.859193,0.691626 0.06818,0.05339 0.241494,0.191389 0.445203,0.349099 1.116295,0.868229 2.071593,1.546712 2.341836,1.738101 0,0 0.197138,0.138818 0.390991,0.273529 2.310622,1.606675 4.503783,2.837145 4.503783,2.837145 1.143401,0.64152 2.830574,1.58039 5.174874,2.520903 0.756517,0.303099 1.635424,0.65302 2.852752,1.012796 2.866716,0.846873 4.772383,0.910121 5.360512,0.919157 0,0 1.694566,0.01232 3.00882,-0.432061 0.240672,-0.08132 0.464917,-0.179889 0.464917,-0.179889 0.208638,-0.092 0.380312,-0.182352 0.50763,-0.254636 -5.124768,-4.962951 -10.249536,-9.925901 -15.375125,-14.888852 -0.540487,0.704769 -1.090009,1.223899 -1.530284,1.587783 -0.234102,0.193031 -0.961048,0.775409 -2.042022,1.299468 -0.178246,0.08625 -0.722018,0.343349 -1.470321,0.580736 -0.486274,0.154425 -1.172972,0.335956 -2.01163,0.443561 -1.056331,0.135532 -1.874454,0.09118 -2.144698,0.0731 -0.61852,-0.04107 -1.439929,-0.151139 -2.374692,-0.433704 -0.768838,-0.313778 -1.090009,-0.444382 -1.223899,-0.498595 -0.0099,-0.0041 -0.255458,-0.103497 -0.255458,-0.103497 -0.139639,-0.05832 -0.262029,-0.113355 -0.363884,-0.160996 -0.08871,-0.04271 -0.176602,-0.08543 -0.265315,-0.127319 z M 22.613396,7.8030605 C 23.26313,7.9279146 24.113288,8.1480521 25.066944,8.5562922 24.559313,8.1751586 23.802796,7.6379574 22.840105,7.0637928 21.20468,6.0879594 19.877284,5.5400799 18.367535,4.9273091 16.619578,4.2176121 15.409643,3.8701563 15.104079,3.7814442 13.883466,3.4282385 12.983202,3.2475286 12.215185,3.13171 10.086916,2.8097179 8.8695883,2.9657855 8.5566316,3.0101415 7.9282541,3.0988537 7.308912,3.1908514 6.558966,3.535843 6.0554425,3.7674802 5.1124655,4.2143265 4.4200181,5.2345159 3.8663887,6.050996 3.7390704,6.8420125 3.6446084,7.4276768 3.5074332,8.2794775 3.5723245,8.9579609 3.6314659,9.5329467 c 0.039428,0.382777 0.1215684,0.9799413 0.3794907,1.9130613 0.2414941,0.875621 0.6489128,2.089663 1.3602526,3.500843 0.8641218,1.715101 1.6444599,2.956249 2.1767327,3.756301 0.7589815,1.141758 1.4604643,2.056807 1.9894513,2.713934 -0.009,-0.07968 -0.02382,-0.200423 -0.04682,-0.346634 -0.06161,-0.397562 -0.138818,-0.680948 -0.156889,-0.787731 -0.105962,-0.63577 -0.145389,-1.122865 -0.153603,-1.239505 -0.03121,-0.404955 -0.07886,-1.062903 -0.0041,-1.867062 0.04025,-0.439454 0.15114,-1.29454 0.515024,-2.304873 0.131425,-0.365526 0.6423408,-1.715922 1.8563828,-3.120531 0.54213,-0.626734 1.031689,-1.039081 1.338075,-1.295361 1.255112,-1.0481173 2.410834,-1.6050326 2.909429,-1.8284557 1.326574,-0.5938784 2.427262,-0.8033376 2.794432,-0.866586 0.952834,-0.1651032 1.715101,-0.1700316 2.081449,-0.1642818 0.234101,0.00411 0.980762,0.023821 1.942631,0.2086378 z"
     id="path1"
     style="fill:#ffffff" />
</svg>
