<?xml version="1.0" encoding="UTF-8" standalone="no"?>
<svg
   id="Capa_1"
   data-name="Capa 1"
   viewBox="0 0 89.897886 43.306388"
   version="1.1"
   width="89.897888"
   height="43.306389"
   xmlns="http://www.w3.org/2000/svg"
   xmlns:svg="http://www.w3.org/2000/svg">
  <defs
     id="defs1">
    <style
       id="style1">
      .cls-1 {
        fill: #649760;
        stroke-width: 0px;
      }
    </style>
  </defs>
  <path
     class="cls-1"
     d="m 24.98009,0.05553444 c 0.265315,-0.02957 1.102331,-0.114176 2.46094,0.01068 0.452596,0.04107 1.388181,0.144568 2.865894,0.501881 2.054343,0.49695206 3.578056,1.10233006 4.657387,1.53603406 1.350396,0.542951 2.367299,1.034974 3.04414,1.365181 0.330206,0.160996 1.305218,0.639877 2.623579,1.368466 0.514202,0.284208 2.349229,1.308504 4.696814,2.858502 1.093295,0.722018 2.837967,1.880204 4.919416,3.5402725 0.710518,0.566772 1.412823,1.1549 2.447798,2.020665 1.111365,0.929834 1.681423,1.407894 2.383727,2.032986 1.193507,1.063724 2.051879,1.913882 2.629329,2.488046 0.860836,0.855087 2.36155,2.354157 4.153042,4.471749 0.639877,0.756517 1.600104,1.895811 2.755004,3.495093 1.604211,2.22191 2.53651,3.879513 2.982535,4.7116 0.288314,0.537201 0.510916,0.986511 0.712161,1.421036 0.312956,0.676841 0.777052,1.690459 1.16065,3.051533 0.225887,0.801695 0.317885,1.347932 0.35567,1.592711 0.0345,0.226709 0.119104,0.815659 0.120747,1.448965 8.21e-4,0.342527 -0.023,0.610307 -0.02875,0.677662 -0.023,0.255458 -0.05503,0.444382 -0.06407,0.499417 -0.046,0.266957 -0.09857,0.46656 -0.113355,0.521594 -0.11089,0.411526 -0.247244,0.71134 -0.2801,0.781981 -0.197138,0.426311 -0.414811,0.724482 -0.506809,0.844408 -0.101855,0.133068 -0.523237,0.666984 -1.280576,1.12533 -0.287493,0.174138 -0.666162,0.363062 -1.246898,0.538022 -1.401323,0.423026 -2.635079,0.362241 -3.536164,0.310493 -1.149151,-0.06653 -2.037915,-0.25628 -2.713934,-0.400848 -0.405776,-0.08707 -0.893692,-0.203709 -1.561498,-0.395097 C 57.870931,42.260331 55.958691,41.682059 53.390147,40.53373 52.506311,40.138632 51.376053,39.60061 50.088084,38.899127 48.693333,38.142609 46.968375,37.150348 45.042993,35.90345 43.962019,35.20361 41.33844,33.465509 38.115233,30.838645 36.016535,29.110399 34.34004,27.580115 33.092321,26.386608 31.594893,24.954072 30.559918,23.858313 30.157428,23.427894 29.251414,22.457811 28.494076,21.581368 28.34458,21.408051 28.223833,21.26759 28.056265,21.073738 27.834485,20.809244 27.648847,20.587464 26.590873,19.282245 26.590873,19.282245 v 0 c -0.254637,-0.322813 -0.478882,-0.614413 -0.67027,-0.868228 0,0 -0.306385,-0.405776 -0.5832,-0.78691 -0.04764,-0.06571 -0.101855,-0.140461 -0.101855,-0.140461 -0.136353,-0.188924 -0.248886,-0.345813 -0.294064,-0.409061 -0.182353,-0.25628 -0.362241,-0.520773 -0.479702,-0.693269 -0.242316,-0.356491 -0.437811,-0.643984 -0.688341,-1.036618 -0.01561,-0.02464 -0.154425,-0.243136 -0.315421,-0.505166 -0.358134,-0.581557 -0.82798,-1.349574 -1.364359,-2.395227 -0.243959,-0.475596 -0.557737,-1.091652 -0.9093,-1.94181 -0.249708,-0.6045582 -0.5832,-1.4317165 -0.86905,-2.5554035 -0.199602,-0.785266 -0.266958,-1.293718 -0.298993,-1.583675 -0.03532,-0.3261 -0.09857,-0.910121 -0.04928,-1.542606 0.04436,-0.565129 0.153603,-1.956595 1.184471,-3.099174 0.685876,-0.75980303 1.477714,-1.07522406 1.922096,-1.25182706 0.71709,-0.28585 1.304397,-0.351563 1.908132,-0.41974 z M 39.846763,19.105643 c 0,0 4.487355,0.01232 6.765121,0.01807 0.165925,0.0066 0.318707,0.03532 0.455882,0.07721 0,0 0.347456,0.107605 0.651377,0.362241 0.369634,0.309671 8.170551,7.699063 18.809435,17.817173 0.03943,-0.111711 0.08378,-0.250529 0.126497,-0.412347 0.01971,-0.07228 0.06818,-0.260386 0.111711,-0.511737 0,0 0.07886,-0.453418 0.09528,-0.938049 0.01396,-0.42549 -0.01068,-1.304397 -0.249709,-2.460119 -0.222597,-1.078506 -0.524054,-1.877737 -0.74337,-2.451901 -0.09775,-0.255458 -0.260387,-0.666162 -0.510916,-1.209935 -0.882193,-1.916346 -2.006702,-3.653625 -2.19234,-3.937833 -0.609485,-0.936405 -2.101163,-3.144352 -4.461891,-5.777787 -1.447322,-1.614068 -2.646579,-2.745969 -3.372704,-3.430203 -0.411525,-0.387704 -2.112663,-1.976309 -4.544032,-3.891833 -0.506809,-0.399205 -0.937227,-0.726947 -1.250184,-0.962691 0.496131,0.720375 0.82223,1.370931 1.035796,1.862133 0.217674,0.501881 0.360599,0.967619 0.432061,1.198435 0.02054,0.06489 0.04025,0.142104 0.0805,0.29735 0.105962,0.405776 0.121569,0.531451 0.09364,0.669448 -0.02464,0.117461 -0.07228,0.197959 -0.08707,0.220959 -0.02054,0.03286 -0.05832,0.092 -0.127319,0.147853 -0.08543,0.06818 -0.16921,0.092 -0.218494,0.105141 -0.11664,0.03121 -0.219316,0.02464 -0.287493,0.01396 -1.013619,-0.01314 -2.028058,-0.02629 -3.041676,-0.03861 -0.03368,-0.641521 -0.156889,-1.607497 -0.5947,-2.690114 -0.23903,-0.591414 -0.761446,-1.840776 -2.028879,-2.942285 -0.373741,-0.3244572 -1.69703,-1.4440375 -3.679089,-1.6691035 -0.120747,-0.01396 -0.482988,-0.05093 -0.962691,-0.0345 -1.766028,0.06161 -3.028533,0.786909 -3.612555,1.131079 -1.106437,0.6530215 -1.784921,1.3898255 -2.173447,1.8194215 -0.194674,0.215209 -0.877264,0.987333 -1.512213,2.171804 -0.5832,1.089188 -0.841944,1.996023 -0.896157,2.190697 -0.09036,0.326099 -0.479702,1.794778 -0.300635,3.771908 0.09364,1.032511 0.271064,2.766504 1.423501,4.550604 0.795123,1.231291 1.707708,1.948381 2.282694,2.392763 0,0 1.52782,1.177078 2.970213,1.554926 0.661234,0.173317 1.174615,0.208638 1.586962,0.234102 0.858372,0.05421 2.691756,0.147032 4.470927,-0.82223 0.886299,-0.482989 1.297825,-0.978298 1.444036,-1.166401 0.423847,-0.547058 0.58895,-1.061259 0.633306,-1.209113 0.06325,-0.209459 0.195495,-0.722018 0.135532,-1.371752 -0.02464,-0.264494 -0.07393,-0.477239 -0.109247,-0.609485 -0.124854,-0.459989 -0.318707,-0.811552 -0.467382,-1.036618 -0.130604,-0.198781 -0.522415,-0.751589 -1.246898,-1.164757 -0.394276,-0.225066 -0.721196,-0.313778 -1.039082,-0.400848 -0.709697,-0.193031 -1.447321,-0.191388 -2.305693,-0.193852 -0.83373,-0.0025 -1.458822,-0.586486 -1.588605,-1.272362 z m -4.527604,8.609183 c 0.281744,0.262851 0.610307,0.564307 0.979119,0.894514 0.165925,0.148675 0.491203,0.43781 0.911764,0.800873 0.599628,0.516666 1.068652,0.902728 1.255934,1.056331 0.11664,0.09528 0.436989,0.357313 0.859193,0.691626 0.06818,0.05339 0.241494,0.191389 0.445203,0.349099 1.116295,0.868229 2.071593,1.546712 2.341836,1.738101 0,0 0.197138,0.138818 0.390991,0.273529 2.310622,1.606675 4.503783,2.837145 4.503783,2.837145 1.143401,0.64152 2.830574,1.58039 5.174874,2.520903 0.756517,0.303099 1.635424,0.65302 2.852752,1.012796 2.866716,0.846873 4.772383,0.910121 5.360512,0.919157 0,0 1.694566,0.01232 3.00882,-0.432061 0.240672,-0.08132 0.464917,-0.179889 0.464917,-0.179889 0.208638,-0.092 0.380312,-0.182352 0.50763,-0.254636 -5.124768,-4.962951 -10.249536,-9.925901 -15.375125,-14.888852 -0.540487,0.704769 -1.090009,1.223899 -1.530284,1.587783 -0.234102,0.193031 -0.961048,0.775409 -2.042022,1.299468 -0.178246,0.08625 -0.722018,0.343349 -1.470321,0.580736 -0.486274,0.154425 -1.172972,0.335956 -2.01163,0.443561 -1.056331,0.135532 -1.874454,0.09118 -2.144698,0.0731 -0.61852,-0.04107 -1.439929,-0.151139 -2.374692,-0.433704 -0.768838,-0.313778 -1.090009,-0.444382 -1.223899,-0.498595 -0.0099,-0.0041 -0.255458,-0.103497 -0.255458,-0.103497 -0.139639,-0.05832 -0.262029,-0.113355 -0.363884,-0.160996 -0.08871,-0.04271 -0.176602,-0.08543 -0.265315,-0.127319 z M 42.56234,7.8030595 c 0.649734,0.124854 1.499892,0.344992 2.453548,0.753232 -0.507631,-0.381134 -1.264148,-0.918335 -2.226839,-1.492499 -1.635425,-0.975834 -2.962821,-1.523713 -4.47257,-2.136484 -1.747957,-0.709697 -2.957892,-1.057153 -3.263456,-1.145865 -1.220613,-0.353206 -2.120877,-0.533916 -2.888894,-0.649734 -2.128269,-0.321992 -3.345596,-0.165925 -3.658553,-0.121569 -0.628378,0.08871 -1.24772,0.18071 -1.997666,0.525702 -0.503523,0.231637 -1.4465,0.678483 -2.138948,1.698673 -0.553629,0.81648 -0.680947,1.607496 -0.775409,2.193161 -0.137176,0.8518 -0.07228,1.530284 -0.01314,2.105269 0.03943,0.3827773 0.121568,0.9799425 0.37949,1.9130625 0.241494,0.875621 0.648913,2.089663 1.360253,3.500843 0.864122,1.715101 1.64446,2.956249 2.176733,3.756301 0.758981,1.141758 1.460464,2.056807 1.989451,2.713934 -0.009,-0.07968 -0.02382,-0.200423 -0.04682,-0.346634 -0.06161,-0.397562 -0.138818,-0.680948 -0.156889,-0.787731 -0.105962,-0.63577 -0.145389,-1.122865 -0.153603,-1.239505 -0.03121,-0.404955 -0.07886,-1.062903 -0.0041,-1.867062 0.04025,-0.439454 0.15114,-1.29454 0.515024,-2.304873 0.131425,-0.365526 0.642341,-1.715922 1.856383,-3.120531 0.54213,-0.626734 1.031689,-1.039081 1.338075,-1.295361 1.255112,-1.0481185 2.410834,-1.6050335 2.909429,-1.8284565 1.326574,-0.593878 2.427262,-0.803338 2.794432,-0.866586 0.952834,-0.165103 1.715101,-0.170032 2.081449,-0.164282 0.234101,0.0041 0.980762,0.02382 1.942631,0.208638 z"
     id="path1"
     style="fill:#ffffff" />
  <path
     style="font-variation-settings:'wght' 700;fill:none;stroke:none;stroke-opacity:0.811765"
     d="M 0,43.009907 H 89.89789"
     id="path2" />
</svg>
