<?xml version="1.0" encoding="UTF-8" standalone="no"?>
<svg
   version="1.1"
   viewBox="0 0 60.000002 62.198291"
   id="svg8"
   width="60.000004"
   height="62.198292"
   xmlns="http://www.w3.org/2000/svg"
   xmlns:svg="http://www.w3.org/2000/svg">
  <g
     id="g8"
     transform="matrix(0.25094103,0,0,0.25094103,-131.81932,-49.445372)">
    <g
       id="_x31_">
      <g
         id="g2">
        <path
           class="marca-logo-1"
           d="m 601.8,236.2 -73.9,74.3 c -1.7,1.7 -2.1,4.2 -0.8,5.8 0.8,2.1 3.3,3.3 5.4,2.9 l 34,-4.6 c 1.2,0 2.1,-0.8 2.9,-1.7 l 54.8,-54.8 7.5,7.5 c 0.8,0.8 2.5,1.7 3.7,1.7 2.9,0 5,-2.5 5,-5.4 v -36.5 c 0,-2.9 -2.5,-5.4 -5.4,-5.4 h -36.5 c -2.1,0 -4.2,1.2 -5,3.3 -0.8,2.1 -0.4,4.1 1.2,5.8 z m -38.6,68.1 -17,2.5 63.1,-63.1 7.5,7.5 -53.5,53.1 z m 66.4,-73.9 v 19.1 c -1.2,-1.2 -18.3,-18.3 -19.1,-19.1 z"
           id="path1" />
        <path
           class="marca-logo-2"
           d="m 759.5,434.6 h -5.4 V 283.9 c 0,-2.9 -2.5,-5.4 -5.4,-5.4 h -20.8 v -10.4 h 5.4 c 14.1,0 26.2,-11.6 26.2,-26.2 0,-14.6 -2.5,-5.4 -5.4,-5.4 h -10.4 c -5.8,0 -11.2,2.1 -15.8,5.4 v -10.4 h 5.4 c 14.1,0 26.2,-11.6 26.2,-26.2 0,-14.6 -2.5,-5.4 -5.4,-5.4 h -10.4 c -8.3,0 -16.2,4.1 -20.8,10.4 -4.6,-6.2 -12.5,-10.4 -20.8,-10.4 h -10.4 c -2.9,0 -5.4,2.5 -5.4,5.4 0,14.1 11.6,26.2 26.2,26.2 h 5.4 v 10.4 c -4.1,-3.3 -9.5,-5.4 -15.8,-5.4 h -10.4 c -2.9,0 -5.4,2.5 -5.4,5.4 0,14.1 11.6,25.7 26.2,25.7 h 5.4 V 278 h -20.8 c -2.9,0 -5.4,2.5 -5.4,5.4 V 434.1 H 676.3 V 330.3 c 0,-2.9 -2.5,-5.4 -5.4,-5.4 h -20.8 v -10.4 h 5.4 c 14.1,0 26.2,-11.6 26.2,-26.2 0,-14.6 -2.5,-5.4 -5.4,-5.4 h -10.4 c -8.3,0 -16.2,4.2 -20.8,10.4 -4.6,-6.2 -12.5,-10.4 -20.8,-10.4 h -10.4 c -2.9,0 -5.4,2.5 -5.4,5.4 0,14.1 11.6,26.2 26.2,26.2 h 5.4 v 10.4 h -20.8 c -2.9,0 -5.4,2.5 -5.4,5.4 v 103.8 h -15.8 v -62.3 c 0,-2.9 -2.5,-5.4 -5.4,-5.4 H 571.9 V 356 h 5.4 c 14.1,0 26.2,-11.6 26.2,-26.2 0,-14.6 -2.5,-5.4 -5.4,-5.4 h -10.4 c -14.1,0 -26.2,11.6 -26.2,26.2 v 15.8 h -20.8 c -2.9,0 -5.4,2.5 -5.4,5.4 v 62.3 h -4.6 c -2.9,0 -5.4,2.5 -5.4,5.4 0,2.9 2.5,5.4 5.4,5.4 H 759 c 2.9,0 5.4,-2.5 5.4,-5.4 0,-2.9 -2.5,-5 -5.4,-5 z M 744.2,247.8 h 4.2 c -2.1,6.2 -7.9,10.4 -14.5,10.4 h -4.1 c 1.7,-6.2 7.5,-10.4 14.5,-10.4 z m 0,-36.5 h 4.2 c -2.1,6.2 -7.9,10.4 -14.5,10.4 h -4.1 c 1.7,-5.8 7.5,-10.4 14.5,-10.4 z M 713,221.7 c -6.6,0 -12.5,-4.2 -14.5,-10.4 h 4.1 c 6.6,0 12.5,4.2 14.5,10.4 h -4.2 z m 0,36.5 c -6.6,0 -12.5,-4.2 -14.5,-10.4 h 4.1 c 6.6,0 12.5,4.1 14.5,10.4 h -4.2 z m -46.9,36.1 h 4.1 c -2.1,6.2 -7.9,10.4 -14.5,10.4 h -4.1 c 2.1,-5.8 7.9,-10.4 14.5,-10.4 z M 635,304.7 c -6.6,0 -12.5,-4.1 -14.5,-10.4 h 4.2 c 6.6,0 12.5,4.1 14.5,10.4 h -4.1 z m -46.9,31.1 h 4.1 c -2.1,6.2 -7.9,10.4 -14.5,10.4 h -4.2 c 2.1,-5.8 7.9,-10.4 14.5,-10.4 z m -20.8,98.8 v -36.5 c 0,-2.9 -2.5,-5.4 -5.4,-5.4 -2.9,0 -5.4,2.5 -5.4,5.4 v 36.5 h -10.4 v -57.3 h 41.5 v 57.3 z m 78.1,0 v -78 c 0,-2.9 -2.5,-5.4 -5.4,-5.4 -2.9,0 -5,2.5 -5,5.4 v 78 h -10.4 v -98.8 h 41.5 v 98.8 h -20.8 z m 78,0 V 310.1 c 0,-2.9 -2.5,-5.4 -5.4,-5.4 -2.9,0 -5.4,2.5 -5.4,5.4 V 434.6 H 702.2 V 289.3 h 41.5 v 145.3 z"
           id="path2" />
      </g>
    </g>
  </g>
</svg>
