<?xml version="1.0" encoding="UTF-8"?>
<svg id="Capa_1" xmlns="http://www.w3.org/2000/svg" viewBox="0 0 1735.06 768.72">
  <defs>
    <style>
      .cls-1 {
        fill: none;
        stroke: #000;
        stroke-miterlimit: 10;
      }
    </style>
  </defs>
  <g>
    <path class="cls-1" d="M1412.99,412.33l-39.96-39.88-23.58-23.53-.11-.1c-4.99-5.18-12.01-8.4-19.78-8.4-.53,0-1.04.02-1.56.05h-119.24c1.84,12.98,12.6,23.07,25.9,23.87h22.57c4.18-.43,8.45-.43,12.68,0,12.09,1.19,23.97,5.78,34.17,13.91h.02c.44.34.88.71,1.34,1.07,4.73,3.95,8.73,8.44,12.01,13.26.7,1.02,1.37,2.06,2.01,3.12.31.52.63,1.08.93,1.6.28.55.58,1.08.87,1.62t0,.02c1.05,1.97,1.98,4.02,2.82,6.08,1.24,3.11,2.26,6.27,3,9.5.5,2.15.87,4.32,1.14,6.52.15,1.09.26,2.18.34,3.28.02.02.02.05,0,.06.18,2.43.23,4.86.12,7.29v.13c-.01.08-.01.17-.01.27-.06,1.55-.19,3.11-.38,4.65,0,.09-.03.2-.03.27-.11.87-.22,1.74-.38,2.59-.06.28-.11.53-.15.78-.16.99-.38,1.99-.59,2.95s-.44,1.91-.71,2.86c-.84,2.93-1.82,5.83-3.1,8.66-.41.93-.84,1.86-1.31,2.76v.02c-.92,1.84-1.95,3.62-3.06,5.39t-.02.03c-1.5,2.38-3.18,4.7-5.06,6.92-1.27,1.52-2.59,2.95-3.96,4.3-2.3,2.24-4.71,4.3-7.27,6.17-1.98,1.45-4.07,2.8-6.19,3.98-.09.06-.19.12-.3.16-20.8,12.62-44.47,19.72-69.55,19.72-83.52,0-151.25-78.91-151.25-176.26s68.5-176.33,152.02-176.33c70.18,0,128.45,55.8,145.5,131.35h39.16c8.65,0,14.72-8.62,11.76-16.78-7-19.3-17.1-37.4-29.84-53.57-14.48-11.3-29.1-22.09-43.66-32.2-17.43-12.05-34.99-23.35-52.53-33.81-21.89-7.02-45.47-10.75-69.91-10.75-114.15,0-206.67,85.63-206.67,191.25,0,24.4,4.93,47.74,13.94,69.19,9.3,11.76,19.14,23.55,29.51,35.32,15.71,16.47,39.27,40.56,60.88,61.7,30.17,15.96,65.1,25.06,102.34,25.06,61.48,0,116.66-24.84,154.51-64.26l242.45,239.79c.39-.24.76-.49,1.14-.74l.41-.24c6.91-3.75,13-8.68,18.11-14.65,5.07-5.93,8.97-12.66,11.6-20l.17-.44c.3-.65.6-1.31.88-1.97l-244.17-243.64Z"/>
    <path class="cls-1" d="M1735.05,679.82c.6-42.79-18.84-98.91-57.63-164.45-57.19-96.64-152.2-205.08-260.7-297.52,0,0,0-.01-.01-.01h-.01s-.07-.07-.07-.07c-109.63-89.98-225.24-158.72-325.52-193.55-76.03-26.41-137.37-31.16-178.28-14.52-.05.02-.11.05-.16.07-14.33,5.41-26.26,13.5-35.39,24.37-13.75,16.38-20.16,37.92-19.92,63.39-.39,40.45,16.01,91.43,48.74,149.72,52.52,93.52,141.35,196.06,250.13,288.73l.07.06.02.02c109.34,89.66,231.82,163.4,336.04,202.29,54.24,20.24,101.1,30.36,138.83,30.36.64,0,1.29,0,1.92-.02,37.33.39,66.43-9.07,83.91-29.91,12.67-15.09,18.41-35.13,18.03-58.97ZM1657.16,655.97c-.28.66-.58,1.32-.88,1.97l-.17.44c-2.63,7.34-6.54,14.07-11.6,20-5.11,5.97-11.2,10.9-18.11,14.65l-.41.24c-.38.25-.75.5-1.14.74-17.08,11.03-40.09,16.53-67.95,16.53-35.19-.01-78.13-8.77-126.64-26.19-87.14-31.29-182.15-86.74-267.48-156.11-9.72-8.35-23.05-20.95-37.23-34.82-21.61-21.13-45.17-45.22-60.88-61.7-10.36-11.77-20.21-23.56-29.51-35.32-43.75-55.31-75.45-110.11-92.55-160.28-20.8-61.02-17.97-109.75,8.18-140.91,28.35-33.81,84.25-43.77,157.39-28.06,57.78,12.4,123.6,40.15,189.63,79.56,17.54,10.47,35.1,21.76,52.53,33.81,14.56,10.11,29.18,20.9,43.66,32.2,5.41,4.22,10.81,8.52,16.17,12.87,175.04,149.97,285.1,342.15,247.01,430.38Z"/>
  </g>
  <g>
    <path class="cls-1" d="M819.8,515.45c-57.17-96.6-152.15-205.01-260.62-297.42,0,0,0-.01,0-.01-.01-.01,0-.01-.01-.01l-.07-.06C449.5,128.01,333.93,59.29,233.68,24.46,131.64-10.98,56.08-7.4,20.88,34.55-14.55,76.75-4.65,152.36,48.74,247.43c52.5,93.49,141.3,196,250.04,288.63l.07.06.02.02c109.31,89.63,231.75,163.34,335.93,202.23,54.22,20.23,101.07,30.35,138.79,30.35s67.26-10.47,84.81-31.4c35.06-41.78,21.35-120.57-38.6-221.87ZM806.4,628.63c-.15,1.55-.35,3.07-.58,4.59-1.26,8.66-3.51,16.66-6.8,23.94-.11.27-.24.55-.37.82l-.17.44c-2.63,7.34-6.53,14.06-11.6,19.99-5.1,5.97-11.19,10.9-18.1,14.64l-.41.24c-14.9,9.99-34.45,15.63-57.93,16.96-2.77.15-5.6.25-8.47.28-.88.01-1.77.02-2.66.02-7,0-14.32-.35-21.93-1.05-1.53-.14-3.08-.29-4.66-.47-6.44-.69-13.09-1.63-19.93-2.81-12.57-2.17-25.77-5.15-39.57-8.96-13-3.57-26.53-7.87-40.51-12.9-13.75-4.94-27.69-10.48-41.77-16.58-.36-.15-.72-.31-1.09-.48-23.8-10.35-47.95-22.3-72.12-35.68-5.58-3.08-11.17-6.24-16.75-9.48-46.19-26.76-92.18-58.49-135.67-93.84-24.55-21.08-72.07-69.21-98.08-96.48-59.1-67.1-101.29-134.72-122.02-195.54-7.66-22.49-12.12-43.31-13.37-62.19-.28-4.24-.41-8.37-.37-12.4.01-1.15.03-2.29.06-3.42.45-13.48,2.73-25.79,6.83-36.84,3.61-9.67,8.62-18.37,15.03-26.01,3.27-3.9,6.9-7.47,10.88-10.72.69-.58,1.39-1.14,2.11-1.67,22.41-17.21,55.18-24.86,95.75-22.5.59.02,1.17.06,1.76.11,8.2.52,16.7,1.45,25.51,2.8.43.06.85.12,1.28.2,3.52.54,7.09,1.16,10.72,1.85.72.13,1.44.26,2.17.42,2.36.46,4.76.94,7.16,1.46,11.92,2.56,24.2,5.77,36.74,9.61,25.41,7.77,51.95,18.09,79.04,30.71,3.33,1.54,6.68,3.14,10.03,4.76,20.95,10.13,42.18,21.59,63.45,34.28,5.65,3.37,11.3,6.82,16.95,10.36,11.98,7.51,23.96,15.38,35.87,23.62,19.99,13.89,40.11,29.05,59.81,45.05,147.62,126.49,249.02,283,254.23,381.81.4,7.36.25,14.39-.45,21.06Z"/>
    <g>
      <g>
        <g>
          <path class="cls-1" d="M808.93,629.42c-.15,1.55-.35,3.08-.58,4.59-1.26,8.66-3.51,16.67-6.8,23.95-.11.27-.24.55-.37.82l-.17.44c-2.63,7.34-6.54,14.07-11.6,20-5.11,5.97-11.2,10.9-18.11,14.65l-.41.24c-14.9,9.99-34.46,15.63-57.95,16.96-2.77.15-5.6.25-8.48.28-.88.01-1.77.02-2.66.02-7,0-14.32-.35-21.94-1.05-1.53-.14-3.09-.29-4.66-.47-6.45-.69-13.09-1.63-19.94-2.81-12.58-2.17-25.78-5.16-39.59-8.96-13-3.57-26.53-7.88-40.52-12.9-13.75-4.94-27.7-10.49-41.78-16.59-.36-.15-.72-.31-1.09-.48-23.8-10.35-47.96-22.31-72.14-35.69-5.58-3.09-11.18-6.24-16.76-9.48l-28.72-33.62-15.13-34.26,51.38,1.68,41.82,22.6,26.04.66,31.09,28.25-53.95-131.16-6.14-31.64,5.27-58.51,64.72,49.39,1.24.94,46.97,128.21,5.76-74.69,75.48-92.21.93,1.44h0s62.4,96.94,62.4,96.94l-31.37,99.35,61.64-29.47-10.06,58.55,23.27-15.51,13.35-1.53c.4,7.36.25,14.39-.45,21.06Z"/>
          <polyline class="cls-1" points="808.36 634.01 767.34 644.18 783.09 632.87 808.93 629.42"/>
          <polyline class="cls-1" points="772.77 625.4 767.34 644.18 765.48 646.17 704.47 711.35"/>
          <line class="cls-1" x1="801.55" y1="657.96" x2="712.95" y2="711.07"/>
          <path class="cls-1" d="M765.48,646.17l-85.6,64.15c-1.53-.14-3.09-.29-4.66-.47l73.5-93.97,16.76,30.28Z"/>
          <path class="cls-1" d="M655.28,707.05c-.48-3.2.24-6.08,1.16-8.26l.02-.04h0c.27-.66.57-1.25.85-1.77l.04-.08c.77-1.4,1.45-2.21,1.45-2.21l47.12-80.8,42.8,2.01,34.11-49.04"/>
          <polyline class="cls-1" points="782.83 566.85 705.92 613.88 656.44 698.78 698.42 612.27 721.19 596.32"/>
          <polyline class="cls-1" points="698.42 612.27 752.56 496.98 703.56 463.6 646.12 517.41 613.75 490.8"/>
          <line class="cls-1" x1="690.16" y1="400.04" x2="703.56" y2="463.6"/>
          <polyline class="cls-1" points="615.69 698.08 635.77 657.7 666.91 568.71 646.13 517.41 694.25 459.46 689.23 398.59"/>
          <line class="cls-1" x1="573.56" y1="615.9" x2="533.39" y2="668.59"/>
          <polyline class="cls-1" points="532.31 668.12 536.11 632.46 556.43 597.53 559.16 585.88 571.15 612.99 635.77 657.7 602.12 612.28 606.74 575.42 607.99 565.49"/>
          <polyline class="cls-1" points="553.06 603.3 495.94 477.09 515.97 426.66 495.06 386.94 523.59 431.47 547.99 436.69 550.71 437.27 559.78 436.34"/>
          <line class="cls-1" x1="606.75" y1="575.42" x2="550.71" y2="437.27"/>
        </g>
        <polyline class="cls-1" points="460.16 632.43 449.9 603.31 434.52 584.1 399.55 555.07 434.69 578.68 484.45 591.96 450.94 556.74 488.62 588.88 507.01 591.89 511.65 591.69 540.66 624.21"/>
        <line class="cls-1" x1="534.74" y1="644.6" x2="449.9" y2="603.3"/>
        <line class="cls-1" x1="783.09" y1="632.88" x2="796.04" y2="609.89"/>
      </g>
      <polyline class="cls-1" points="602.13 612.27 559.17 585.88 515.97 426.66"/>
    </g>
    <g>
      <g>
        <g>
          <path class="cls-1" d="M384.16,200.89l-31.1-28.25,53.95,131.16,6.15,31.64-5.28,58.51-65.96-50.35-46.96-128.21-5.77,74.7-75.48,92.21-.93-1.45-62.4-96.94,31.37-99.34-61.64,29.47,10.07-58.56-23.28,15.51-32.78,3.76c-.28-4.24-.41-8.37-.37-12.4.01-1.15.03-2.29.06-3.42.45-13.48,2.73-25.8,6.83-36.86l25.91-36.74c.69-.58,1.39-1.14,2.11-1.67,22.41-17.22,55.2-24.87,95.78-22.5.59.02,1.17.06,1.76.11,8.2.52,16.71,1.45,25.52,2.8.43.06.85.12,1.28.2,3.52.54,7.1,1.16,10.72,1.85.44.43.85.87,1.27,1.34,0,0,.29-.36.9-.92,2.37.46,4.76.94,7.17,1.46,11.93,2.56,24.21,5.78,36.76,9.61,25.42,7.78,51.97,18.1,79.06,30.72l1.98,2.23,8.05,2.53c20.96,10.13,42.2,21.6,63.47,34.29,5.65,3.37,11.31,6.82,16.95,10.36l28.91,33.83,15.13,34.25-51.38-1.68-41.82-22.59-26.04-.66Z"/>
          <polyline class="cls-1" points="108.68 83.65 95.9 126.21 82.55 149.85"/>
          <polyline class="cls-1" points="73.83 158.91 82.55 149.85 135.6 136.69 119.85 148 85.25 152.64 73.77 162.34"/>
          <polyline class="cls-1" points="130.18 155.47 135.6 136.69 137.47 134.71 206.22 61.25"/>
          <line class="cls-1" x1="204.47" y1="61.14" x2="95.9" y2="126.21"/>
          <path class="cls-1" d="M233.02,64.26l-78.79,100.73-16.76-30.28,94.27-70.65c.43.06.85.12,1.28.2Z"/>
          <path class="cls-1" d="M120.12,214.03l34.11-49.04,42.79,2.02,47.12-80.81s7.65-9.22.86-18.75"/>
          <polyline class="cls-1" points="120.12 214.03 197.02 167 246.5 82.1 204.52 168.61 181.75 184.56"/>
          <polyline class="cls-1" points="204.52 168.61 150.39 283.9 199.38 317.29 256.82 263.47 289.2 290.08"/>
          <line class="cls-1" x1="212.78" y1="380.84" x2="199.38" y2="317.29"/>
          <polyline class="cls-1" points="289.83 77.6 267.18 123.18 236.03 212.18 256.82 263.47 208.7 321.42 213.71 382.29"/>
          <polyline class="cls-1" points="294.96 215.39 300.82 168.61 267.17 123.18 331.8 167.89 343.78 195.01 346.51 183.36 366.83 148.42 370.88 110.55 329.39 164.98"/>
          <polyline class="cls-1" points="349.89 177.58 407.01 303.8 386.98 354.22 407.88 393.94 379.36 349.41 354.95 344.19 352.23 343.61 343.16 344.55"/>
          <line class="cls-1" x1="296.2" y1="205.46" x2="352.23" y2="343.61"/>
        </g>
        <polyline class="cls-1" points="442.4 147.36 453.05 177.58 468.43 196.78 503.4 225.81 468.25 202.2 418.49 188.93 452.01 224.13 414.33 192 395.93 188.99 391.3 189.19 362.29 156.68"/>
        <line class="cls-1" x1="368.21" y1="136.28" x2="453.05" y2="177.58"/>
        <line class="cls-1" x1="119.85" y1="148.01" x2="106.91" y2="170.99"/>
      </g>
      <polyline class="cls-1" points="300.82 168.61 343.78 195.01 386.98 354.22"/>
    </g>
  </g>
</svg>