<?xml version="1.0" encoding="UTF-8" standalone="no"?>
<svg version="1.1" viewBox="0 0 59.999999 58.845235" width="60" height="58.845234"
xmlns="http://www.w3.org/2000/svg" xmlns:svg="http://www.w3.org/2000/svg">
<g id="g8" transform="matrix(0.24057741,0,0,0.24057741,-16.984772,-20.400964)">
   <g id="_x31_">
      <g id="g5">
         <path id="oferta-logo" class="oferta-logo-1"
            d="m 299.1,121.6 c -11.2,0 -19.9,9.1 -19.9,19.9 l 0.4,55.6 c -5.4,-2.4 -11.4,-2.3 -16.5,0.5 -1.2,0.6 -2.3,1.4 -3.4,2.3 l -6,4.8 -2.3,1.9 v 0 l -16,12.1 -40.8,32.7 -58.1,-46.5 -9.19297,-6.65352 c 0,0 0.14183,0 0.14183,0.1 -5.4,-3.3 -12.04883,-3.84648 -17.44883,-0.94648 l 0.4,-55.6 c 0,-11.2 -9.1,-19.9 -19.9,-19.9 -10.8,0 -19.9,9.1 -19.9,19.9 v 97.5 c 0,1.2 0.4,2.9 1.7,3.7 l 66.4,62.3 v 13.3 h -21.2 c -2.9,0 -5.4,2.5 -5.4,5.4 0,2.9 2.5,5.4 5.4,5.4 h 155.6 c 2.9,0 5.4,-2.5 5.4,-5.4 0,-2.9 -2.5,-5.4 -5.4,-5.4 H 251.9 V 305.3 L 318.3,243 c 1.3,-0.8 1.7,-2.5 1.7,-3.7 v -98 c -0.9,-11.2 -10,-19.9 -20.8,-19.9 z M 183.3,260.2 c -1.3,0.8 -2.1,2.5 -2.1,4.2 v 54 H 148 l 0.4,-10 h 20.3 c 2.9,0 5.4,-2.5 5.4,-5.4 0,-2.9 -2.5,-5.4 -5.4,-5.4 H 145.4 L 80.2,237 v -95.5 c 0,-5.4 4.2,-9.6 9.6,-9.6 5.4,0 9.6,4.2 9.6,9.6 L 99,209.6 c -1.6,6.7 0.4,14.1 5.4,18.7 l 39.4,36.1 c 2.1,2.1 5.4,1.6 7.5,-0.4 2.1,-2.1 1.7,-5.4 -0.4,-7.5 l -39.4,-36.1 c -3.7,-3.7 -3.7,-9.5 0.4,-12.8 3.3,-2.5 7.9,-2.5 10.8,0 0,0 2.3,1.8 63.1,50.6 l -2.5,2.1 z m 13.6,58.6 h -5 v -51.5 l 2.5,-1.7 2.5,1.7 z M 308.6,237 243.9,298 h -23.3 c -2.9,0 -5.4,2.5 -5.4,5.4 0,2.9 2.5,5.4 5.4,5.4 h 20.3 v 10.4 h -33.2 v -54 c 0,-1.6 -0.8,-2.9 -2.1,-4.2 l -2.5,-2.1 c 60.4,-48.6 63.1,-50.6 63.1,-50.6 2.9,-2.5 7.5,-2.5 10.8,0 4.2,3.3 4.2,9.6 0.4,12.9 L 238,256.5 c -2.1,2.1 -2.1,5.4 -0.4,7.5 2.1,2.1 5.4,2.1 7.5,0.4 l 39.4,-36.1 c 5.4,-5 7.5,-12 5.4,-18.7 l -0.4,-68.1 c 0,-5.4 4.1,-9.6 9.6,-9.6 5.5,0 9.5,4.2 9.5,9.6 z" />
         <path class="oferta-logo-2"
            d="m 251.2,206.7 c -6.2,-5.4 -10.5,-7.9 -19.2,-7 -5.4,-14.1 -18.2,-23.6 -33.2,-25.7 v -10.8 h 10 c 14.1,0 26.1,-11.6 26.1,-26.1 0,-14.5 -2.5,-5.4 -5.4,-5.4 h -15.8 c -5.8,0 -11.2,2.1 -15.8,5.4 v -10.4 h 10.8 c 14.1,0 26.1,-11.6 26.1,-26.1 0,-14.5 -2.5,-5.4 -5.4,-5.4 h -15.8 c -5.8,0 -11.2,2.1 -15.8,5.4 V 90.2 c 0,-2.9 -2.5,-5.4 -5.4,-5.4 -2.9,0 -4.6,2.9 -4.6,5.8 V 101 c -4.2,-3.3 -9.6,-5.4 -15.8,-5.4 h -15.8 c -2.9,0 -5.4,2.5 -5.4,5.4 0,14.1 11.7,26.1 26.2,26.1 h 10.8 v 10.4 c -4.2,-3.3 -9.6,-5.4 -15.8,-5.4 h -15.8 c -2.9,0 -5.4,2.5 -5.4,5 0,14.1 11.7,26.1 26.2,26.1 h 10.8 V 174 c -13.3,1.7 -29.02379,12.48592 -35.32379,24.48592 -8.2,-2.9 -14.74379,-2.83006 -22.64379,1.56994 l 8.9,6.8 c 5.4,-1.2 9.57243,-0.34615 14.57243,2.55385 2.9,1.6 6.12534,-5.83038 7.84324,-8.99227 C 171.74176,185.28306 177.37601,183.5 193.2,183.5 c 13.3,0 24.05312,4.13124 29.80625,19.38437 0.8,2.9 3.79375,8.11563 6.29375,7.21563 5.8,-1.6 8,-0.4 13,2.9 l -7.4,5.9 16,-12.1 z m -37.4,-64.3 h 9.6 c -2.1,6.2 -7.9,10.4 -14.5,10.4 h -9.6 c 2.1,-6.2 7.9,-10.4 14.5,-10.4 z m 0,-36.6 h 9.6 c -2.1,6.2 -7.9,10.4 -14.5,10.4 h -9.6 c 2.1,-5.8 7.9,-10.4 14.5,-10.4 z m -36.1,10.4 c -6.7,0 -12.5,-4.2 -14.5,-10.4 h 9.6 c 6.6,0 12.4,4.2 14.5,10.4 z m 0,36.5 c -6.7,0 -12.5,-4.2 -14.5,-10.4 h 9.6 c 6.6,0 12.4,4.2 14.5,10.4 z"
            id="path4" />
         <path class="oferta-logo-3"
            d="m 189.5,198.8 c 0,2.9 -2.5,5.4 -5.4,5.4 -5.8,0 -10.4,4.6 -10.4,10.4 0,5.8 -2.5,5.4 -5.4,5.4 -2.9,0 -5,-2.1 -5,-5.8 0,-11.6 9.1,-20.8 20.8,-20.8 11.7,0 5.4,2.5 5.4,5.4 z"/>
      </g>
   </g>
</g>
</svg>