<?xml version="1.0" encoding="UTF-8" standalone="no"?>
<svg
   version="1.1"
   viewBox="0 0 57.452425 59.159416"
   width="57.452427"
   height="59.159416"
   id="svg1"
   sodipodi:docname="00-marca.svg"
   xmlns:inkscape="http://www.inkscape.org/namespaces/inkscape"
   xmlns:sodipodi="http://sodipodi.sourceforge.net/DTD/sodipodi-0.dtd"
   xmlns="http://www.w3.org/2000/svg"
   xmlns:svg="http://www.w3.org/2000/svg">
  <defs
     id="defs1">
    <inkscape:path-effect
       effect="fillet_chamfer"
       id="path-effect15"
       is_visible="true"
       lpeversion="1"
       nodesatellites_param="F,0,0,1,0,0,0,1 @ F,0,0,1,0,0.4565851,0,1 @ F,0,0,1,0,0.48162861,0,1 @ F,0,0,1,0,0,0,1"
       radius="0"
       unit="px"
       method="auto"
       mode="F"
       chamfer_steps="1"
       flexible="false"
       use_knot_distance="true"
       apply_no_radius="true"
       apply_with_radius="true"
       only_selected="false"
       hide_knots="false" />
    <inkscape:path-effect
       effect="fillet_chamfer"
       id="path-effect14"
       is_visible="true"
       lpeversion="1"
       nodesatellites_param="F,0,0,1,0,0,0,1 @ F,0,0,1,0,0.48613589,0,1 @ F,0,0,1,0,0.48171644,0,1 @ F,0,0,1,0,0,0,1"
       radius="0"
       unit="px"
       method="auto"
       mode="F"
       chamfer_steps="1"
       flexible="false"
       use_knot_distance="true"
       apply_no_radius="true"
       apply_with_radius="true"
       only_selected="false"
       hide_knots="false" />
    <inkscape:path-effect
       effect="fillet_chamfer"
       id="path-effect13"
       is_visible="true"
       lpeversion="1"
       nodesatellites_param="F,0,0,1,0,0,0,1 @ F,0,0,1,0,0.4861359,0,1 @ F,0,0,1,0,0.47287763,0,1 @ F,0,0,1,0,0,0,1"
       radius="0"
       unit="px"
       method="auto"
       mode="F"
       chamfer_steps="1"
       flexible="false"
       use_knot_distance="true"
       apply_no_radius="true"
       apply_with_radius="true"
       only_selected="false"
       hide_knots="false" />
    <inkscape:path-effect
       effect="fillet_chamfer"
       id="path-effect12"
       is_visible="true"
       lpeversion="1"
       nodesatellites_param="F,0,0,1,0,0,0,1 @ F,0,0,1,0,0.16189902,0,1 @ F,0,0,1,0,0.10383518,0,1 @ F,0,0,1,0,0,0,1"
       radius="0"
       unit="px"
       method="auto"
       mode="F"
       chamfer_steps="1"
       flexible="false"
       use_knot_distance="true"
       apply_no_radius="true"
       apply_with_radius="true"
       only_selected="false"
       hide_knots="false" />
    <inkscape:path-effect
       effect="fillet_chamfer"
       id="path-effect11"
       is_visible="true"
       lpeversion="1"
       nodesatellites_param="F,0,0,1,0,0.315625,0,1 @ F,0,0,1,0,0.22097087,0,1 @ F,0,0,1,0,0.22980971,0,1"
       radius="0"
       unit="px"
       method="auto"
       mode="F"
       chamfer_steps="1"
       flexible="false"
       use_knot_distance="true"
       apply_no_radius="true"
       apply_with_radius="true"
       only_selected="false"
       hide_knots="false" />
    <linearGradient
       id="swatch1"
       inkscape:swatch="solid">
      <stop
         style="stop-color:#000000;stop-opacity:1;"
         offset="0"
         id="stop1" />
    </linearGradient>
  </defs>
  <sodipodi:namedview
     id="namedview1"
     pagecolor="#505050"
     bordercolor="#eeeeee"
     borderopacity="1"
     inkscape:showpageshadow="0"
     inkscape:pageopacity="0"
     inkscape:pagecheckerboard="0"
     inkscape:deskcolor="#505050" />
  <g
     id="g15"
     transform="translate(-1.1048543,-1.8285409)">
    <path
       d="M 20.875,10 2.0207299,28.85427 a 0.05694179,0.05694179 64.377374 0 0 0.046458,0.09687 l 8.0170928,-0.877342 a 0.29577455,0.29577455 154.41052 0 0 0.176726,-0.08463 L 24.52968,13.753466"
       id="path10"
       sodipodi:nodetypes="cccc"
       inkscape:path-effect="#path-effect12"
       inkscape:original-d="M 20.875,10 1.90625,28.96875 10.1875,28.0625 24.52968,13.753466" />
    <path
       d="m 27.4375,7.565625 v 8.400904 a 0.09152913,0.09152913 157.5 0 1 -0.15625,0.06472 l -8.9,-8.9 a 0.09111,0.09111 113.37373 0 1 0.0672,-0.1554921 l 8.673569,0.2646173 A 0.32540109,0.32540109 45.873732 0 1 27.4375,7.565625 Z"
       id="path9"
       sodipodi:nodetypes="cccc"
       inkscape:path-effect="#path-effect11"
       inkscape:original-d="m 27.4375,7.25 v 8.9375 L 18.21875,6.96875 Z" />
  </g>
  <g
     id="g16"
     transform="translate(-1.1048543,-1.8285409)">
    <path
       d="M 58.55728,60.899571 H 1.1048543"
       id="path2" />
    <path
       d="M 3.8448931,60.943766 V 44.238368 A 0.4861359,0.4861359 135 0 1 4.331029,43.752232 h 12.166656 a 0.47287763,0.47287763 45 0 1 0.472878,0.472878 v 16.630267"
       id="path3"
       inkscape:path-effect="#path-effect13"
       inkscape:original-d="M 3.8448931,60.943766 V 43.752232 H 16.970563 v 17.103145" />
    <path
       d="M 9.1039998,60.98796 V 50.204581"
       id="path4" />
    <path
       d="M 23.555495,60.98796 V 34.029514 a 0.48613589,0.48613589 135 0 1 0.486136,-0.486136 H 36.11106 a 0.48171644,0.48171644 45 0 1 0.481716,0.481716 v 26.874477"
       id="path5"
       inkscape:path-effect="#path-effect14"
       inkscape:original-d="M 23.555495,60.98796 V 33.543378 h 13.037281 v 27.356193" />
    <path
       d="M 28.947184,60.98796 V 40.084116"
       id="path6" />
    <path
       d="M 43.045125,60.98796 V 22.155924 a 0.4565851,0.4565851 135 0 1 0.456585,-0.456585 h 12.143262 a 0.48162861,0.48162861 45 0 1 0.481629,0.481629 v 38.709657"
       id="path7"
       inkscape:path-effect="#path-effect15"
       inkscape:original-d="M 43.045125,60.98796 V 21.699339 h 13.081476 v 39.191286" />
    <path
       d="M 48.421875,60.96875 V 28.28125"
       id="path8" />
    <path
       d="m 10.424855,43.446956 c -0.142785,-2.484183 0.41454,-5.101198 -0.6026197,-7.464144 -0.873424,-1.840085 -2.725095,-2.783112 -4.613829,-3.092459 -0.912165,-0.15615 -1.922584,0.0092 -2.741349,-0.334718 -0.03251,0.762862 0.184736,1.74662 0.508942,2.490496 0.429423,1.100198 1.817124,2.76476 3.433833,3.005987 1.3911,0.274256 2.613691,0.08864 4.0164617,0.186947"
       id="path11-9-67"
       sodipodi:nodetypes="ccccccc" />
    <path
       d="m 10.471092,43.446956 c 0.142785,-2.484183 -0.41454,-5.101198 0.602619,-7.464144 0.873424,-1.840085 2.725095,-2.783112 4.613829,-3.092459 0.912165,-0.15615 1.922584,0.0092 2.741349,-0.334718 0.03251,0.762862 -0.184736,1.74662 -0.508942,2.490496 -0.429423,1.100198 -1.817124,2.76476 -3.433833,3.005987 -1.3911,0.274256 -2.613691,0.08864 -4.016461,0.186947"
       id="path11-9-67-5"
       sodipodi:nodetypes="ccccccc" />
    <path
       d="m 30.023781,33.349369 c -0.142785,-2.484183 0.41454,-5.101198 -0.60262,-7.464144 -0.873424,-1.840085 -2.725095,-2.783112 -4.613829,-3.092459 -0.912165,-0.15615 -1.922584,0.0092 -2.741349,-0.334718 -0.03251,0.762862 0.184736,1.74662 0.508942,2.490496 0.429423,1.100198 1.817124,2.76476 3.433833,3.005987 1.3911,0.274256 2.613691,0.08864 4.016462,0.186947"
       id="path11-9-67-3"
       sodipodi:nodetypes="ccccccc" />
    <path
       d="m 30.070018,33.349369 c 0.142785,-2.484183 -0.41454,-5.101198 0.602619,-7.464144 0.873424,-1.840085 2.725095,-2.783112 4.613829,-3.092459 0.912165,-0.15615 1.922584,0.0092 2.741349,-0.334718 0.03251,0.762862 -0.184736,1.74662 -0.508942,2.490496 -0.429423,1.100198 -1.817124,2.76476 -3.433833,3.005987 -1.3911,0.274256 -2.613691,0.08864 -4.016461,0.186947"
       id="path11-9-67-5-9"
       sodipodi:nodetypes="ccccccc" />
    <path
       d="m 49.555302,21.17656 c -0.0544,-2.992416 0.215666,-5.189586 -0.60262,-7.618823 -0.873424,-1.840085 -2.725095,-2.783112 -4.613829,-3.092459 -0.912165,-0.15615 -1.922584,0.0092 -2.741349,-0.334718 -0.03251,0.762862 0.184736,1.74662 0.508942,2.490496 0.429423,1.100198 1.817124,2.76476 3.433833,3.005987 1.3911,0.274256 2.613691,0.08864 4.016462,0.186947"
       id="path11-9-67-3-3-6"
       sodipodi:nodetypes="ccccccc" />
    <path
       d="m 49.552632,21.177102 c 0.0544,-2.992416 -0.215666,-5.189586 0.602621,-7.618823 0.873424,-1.840085 2.725095,-2.783112 4.613829,-3.092459 0.912165,-0.15615 1.922584,0.0092 2.741349,-0.334718 0.03251,0.762862 -0.184736,1.74662 -0.508942,2.490496 -0.429423,1.100198 -1.817124,2.76476 -3.433833,3.005987 -1.3911,0.274256 -2.613691,0.08864 -4.016462,0.186947"
       id="path11-9-67-3-3-6-4"
       sodipodi:nodetypes="ccccccc" />
    <path
       d="m 49.544467,12.874542 c -0.0544,-2.9924161 0.215666,-5.1895871 -0.60262,-7.6188241 -0.873424,-1.840085 -2.725095,-2.783112 -4.613829,-3.092459 -0.912165,-0.15615 -1.922584,0.0092 -2.741349,-0.334718 -0.03251,0.762862 0.184736,1.74662 0.508942,2.490496 0.429423,1.100198 1.817124,2.76476 3.433833,3.005987 1.3911,0.274256 2.613691,0.08864 4.016462,0.186947"
       id="path11-9-67-3-3-6-5"
       sodipodi:nodetypes="ccccccc" />
    <path
       d="m 49.541797,14.289298 c 0.0544,-2.992418 -0.215666,-6.6038011 0.602621,-9.0330381 0.873424,-1.840085 2.725095,-2.783112 4.613829,-3.092459 0.912165,-0.1561497 1.922584,0.0092 2.741349,-0.3347177 0.03251,0.7628617 -0.184736,1.7466197 -0.508942,2.4904957 -0.429423,1.100198 -1.817124,2.76476 -3.433833,3.005988 -1.3911,0.274256 -2.613691,0.08864 -4.016462,0.186947"
       id="path11-9-67-3-3-6-4-6"
       sodipodi:nodetypes="ccccccc" />
  </g>
</svg>
