<?xml version="1.0" encoding="UTF-8" standalone="no"?>
<!-- Created with Inkscape (http://www.inkscape.org/) -->

<svg
   width="66.913887mm"
   height="25.746099mm"
   viewBox="0 0 66.913888 25.7461"
   version="1.1"
   id="svg1"
   xmlns:inkscape="http://www.inkscape.org/namespaces/inkscape"
   xmlns:sodipodi="http://sodipodi.sourceforge.net/DTD/sodipodi-0.dtd"
   xmlns="http://www.w3.org/2000/svg"
   xmlns:svg="http://www.w3.org/2000/svg">
  <sodipodi:namedview
     id="namedview1"
     pagecolor="#505050"
     bordercolor="#eeeeee"
     borderopacity="1"
     inkscape:showpageshadow="0"
     inkscape:pageopacity="0"
     inkscape:pagecheckerboard="0"
     inkscape:deskcolor="#505050"
     inkscape:document-units="mm" />
  <defs
     id="defs1" />
  <g
     inkscape:label="Capa 1"
     inkscape:groupmode="layer"
     id="layer1"
     transform="translate(-71.491104,-135.67764)">
    <path
       class="cls-2"
       d="m 94.668604,151.50182 c 0.79375,-0.60854 1.53459,-1.19062 2.32834,-1.74625 0.23812,-0.18521 0.58208,-0.23812 0.87312,-0.37042 0.18521,-0.0794 0.39688,-0.15875 0.58209,-0.29104 1.693326,-1.13771 3.360196,-2.32833 5.053536,-3.43958 1.87854,-1.24354 3.81,-2.43417 5.715,-3.65126 0.52916,-0.34395 1.24354,-0.0794 1.53458,0.50271 0.15875,0.34396 0.3175,0.68792 0.47625,1.03188 0.0794,-0.0265 0.15875,-0.0529 0.21167,-0.10584 3.22791,-1.98437 6.45583,-3.96875 9.68375,-5.97958 0.52916,-0.3175 1.03187,-0.68792 1.48166,-1.13771 0.52917,-0.52916 1.11125,-0.71437 1.85209,-0.60854 0.9525,0.13229 1.93145,0.23813 2.88395,0.34396 0.50271,0.0529 0.82021,0.37042 1.11125,0.71437 0.3175,0.42334 0.21167,0.84667 -0.26458,1.19063 -0.87312,0.66146 -1.77271,1.34937 -2.64583,2.01083 -0.21167,0.18521 -0.42334,0.37042 -0.66146,0.635 1.48167,-0.18521 2.72521,0.23813 3.59833,1.50813 0.26459,-0.15875 0.47625,-0.29104 0.68792,-0.42334 1.42875,-0.84666 2.8575,-1.71979 4.28625,-2.56645 0.23812,-0.1323 0.58208,-0.1323 0.84667,-0.10584 0.44979,0.0529 0.87312,0.23813 1.32291,0.3175 0.37042,0.0794 0.635,0.26459 0.74084,0.635 0.0794,0.34396 0.29104,0.47625 0.60854,0.44979 0.42333,-0.0265 0.68791,0.18521 0.87312,0.52917 0.0265,0.0529 0.0529,0.10583 0.10584,0.15875 0.60854,0.92604 0.635,1.79917 -0.1323,2.69876 -1.61395,1.905 -3.175,3.88937 -4.81541,5.76791 -1.45521,1.64042 -2.98979,3.22792 -4.47146,4.84188 -0.0794,0.0794 -0.15875,0.21166 -0.18521,0.3175 -0.21167,0.89958 -0.37042,1.82562 -0.60854,2.69875 -0.29104,1.05833 -0.635,2.09021 -0.97896,3.14854 -0.23812,0.74083 -0.47625,0.87312 -1.27,0.82021 -0.29104,0 -0.55562,0.0265 -0.84667,0.0265 -17.48895,0 -34.951446,0 -52.440406,0 -0.23813,0 -0.47625,-0.0794 -0.71438,-0.10584 0.10584,-0.18521 0.23813,-0.34396 0.34396,-0.52916 0.13229,-0.21167 0.29104,-0.42334 0.44979,-0.635 0.0529,-0.0529 0.1323,-0.10584 0.21167,-0.1323 1.29646,-0.5027 2.59292,-1.00541 3.91583,-1.48166 2.38125,-0.87313 4.73605,-1.79917 7.14375,-2.56646 1.21709,-0.39688 2.51355,-0.52917 3.78355,-0.76729 0.15875,-0.0265 0.3175,-0.10584 0.44979,-0.18521 1.37583,-0.9525 2.75166,-1.93146 4.1275,-2.88396 0.50271,-0.34396 1.08479,-0.60854 1.64041,-0.87312 0.42334,-0.21167 0.79375,-0.0794 1.16417,0.23812 z m 8.254996,3.41313 c 0.1323,0.1852 0.18521,0.3175 0.29105,0.44979 1.48166,1.82562 2.98979,3.65125 4.47145,5.50333 0.15875,0.21167 0.34396,0.26458 0.58209,0.26458 4.68312,0 9.33979,0 14.02291,0 0.0794,0 0.15875,0.0265 0.23813,0 0.10583,-0.0529 0.23812,-0.15875 0.26458,-0.23812 0.21167,-1.48167 0.42333,-2.96333 0.60854,-4.445 0.0529,-0.34396 0.0794,-0.76729 -0.0529,-1.05833 -0.4498,-0.84667 -0.97896,-1.64042 -1.53459,-2.40771 -0.13229,-0.18521 -0.44979,-0.3175 -0.68791,-0.34396 -0.44979,0 -0.89959,0.0529 -1.34938,0.10583 -1.74625,0.26459 -3.4925,0.58209 -5.23875,0.79375 -3.36021,0.42334 -6.72041,0.79375 -10.08062,1.19063 -0.50271,0.0529 -0.97896,0.13229 -1.53459,0.21166 z m -20.399366,6.16479 h 21.748746 c 0.21167,-0.87313 0.39687,-1.74625 0.66146,-2.59292 0.10583,-0.37042 0.0529,-0.60854 -0.18521,-0.89958 -0.71438,-0.84667 -1.37583,-1.69334 -2.09021,-2.54 -0.0529,-0.0794 -0.21167,-0.10584 -0.34396,-0.0794 -1.11125,0.13229 -2.2225,0.29104 -3.333746,0.44979 -2.09021,0.3175 -4.18041,0.66146 -6.29708,0.66146 -2.54,0 -5.05354,0 -7.59354,0 -0.21167,0 -0.39688,0.0265 -0.50271,0.26459 -0.68792,1.56104 -1.37583,3.12208 -2.09021,4.73604 z m 42.253956,-17.48897 c -0.68792,-0.68791 -1.32292,-1.34937 -2.01084,-1.98437 -0.23812,-0.23813 -0.52916,-0.26458 -0.84666,-0.0529 -1.61396,1.11125 -3.28084,2.22251 -4.89479,3.36022 -3.57188,2.51354 -6.7998,5.47687 -10.16,8.255 0,0 -0.0265,0.0529 -0.0529,0.13229 0.13229,0 0.21167,-0.0265 0.3175,-0.0529 3.62479,-0.84667 7.24958,-1.69333 10.84792,-2.54 0.13229,-0.0265 0.29104,-0.10583 0.39687,-0.21167 2.11667,-2.27541 4.23333,-4.55083 6.37646,-6.87916 z m -28.601456,10.90084 c 0.0794,0 0.10583,0.0529 0.13229,0.0529 0.89958,-0.0265 1.79917,-0.0529 2.69875,-0.0794 0.0794,0 0.15875,0 0.21167,-0.0529 0.47625,-0.34396 0.926036,-0.68792 1.402286,-1.00542 4.55083,-3.04271 8.99583,-6.21771 13.36146,-9.55146 0.9525,-0.71438 1.95791,-1.24354 3.12208,-1.42875 0.29104,-0.0529 0.635,-0.13229 0.84667,-0.3175 1.79916,-1.53459 3.59833,-3.09563 5.3975,-4.65667 0.29104,-0.26458 0.58208,-0.52917 0.87312,-0.82021 -0.10583,-0.0794 -0.18521,-0.13229 -0.23812,-0.18521 -0.47625,-0.34395 -0.47625,-0.34395 -0.92605,0 -0.60854,0.4498 -1.19062,0.9525 -1.82562,1.37584 -1.37583,0.87312 -2.80458,1.71979 -4.18042,2.59291 -3.09562,1.93146 -6.2177,3.78355 -9.23395,5.82084 -3.86292,2.61938 -7.64646,5.3975 -11.429996,8.09625 -0.0794,0.0529 -0.1323,0.10584 -0.21167,0.18521 z m 7.276036,-0.52916 c 0,0.0264 0.0265,0.0529 0.0529,0.0794 0.66146,-0.13229 1.32291,-0.26458 1.95791,-0.44979 0.26459,-0.0794 0.55563,-0.21167 0.79375,-0.39688 0.74084,-0.58208 1.48167,-1.19062 2.16959,-1.79916 4.28625,-3.75709 8.78416,-7.24959 13.59958,-10.31876 0.29104,-0.18521 0.66146,-0.34396 1.00542,-0.34396 0.74083,0 1.37583,-0.23812 1.95791,-0.71437 0.9525,-0.79375 1.95792,-1.50813 2.93688,-2.27542 0.18521,-0.15875 0.37041,-0.3175 0.26458,-0.60854 -0.10583,-0.29104 -0.34396,-0.26458 -0.58208,-0.26458 -0.82021,0 -1.66688,0 -2.48709,-0.0794 -0.42333,-0.0265 -0.71437,0.0794 -1.00541,0.34396 -1.50813,1.37583 -3.01625,2.75166 -4.57729,4.04812 -2.40771,1.98438 -4.86834,3.86293 -7.3025,5.79439 -2.61938,2.06375 -5.26521,4.1275 -7.88459,6.19125 -0.3175,0.23812 -0.60854,0.52916 -0.89958,0.79375 z m 20.10833,-3.6248 c 0.84667,0.3175 1.61396,0.60855 2.38125,0.87313 0.0794,0.0265 0.26459,0 0.3175,-0.0794 0.79375,-0.87312 1.56104,-1.74625 2.32834,-2.64583 1.21708,-1.42875 2.43416,-2.88396 3.62479,-4.33917 0.74083,-0.89958 1.45521,-1.82563 2.14312,-2.75167 0.0794,-0.0794 0.13229,-0.26458 0.10584,-0.34396 -0.23813,-0.52916 -0.50271,-1.05833 -0.79375,-1.61395 -1.66688,1.00541 -3.3073,1.95791 -4.97417,2.93687 0.42333,0.42333 0.68792,0.87313 0.42333,1.42876 -0.29104,0.60854 -0.55562,1.27 -1.00541,1.7727 -1.19063,1.34938 -2.46063,2.64584 -3.73063,3.9423 -0.26458,0.26458 -0.52917,0.5027 -0.84667,0.79375 z m -51.408536,10.74209 c 0.10584,0 0.15875,0 0.21167,0 3.14854,0 6.27062,0 9.41917,0 0.15875,0 0.37041,-0.13229 0.42333,-0.29104 0.39687,-0.7673 0.79375,-1.53459 1.16417,-2.32834 0.34395,-0.76729 0.66145,-1.53458 1.00541,-2.38125 -0.37041,0.10584 -0.66146,0.15875 -0.9525,0.26459 -2.06375,0.74083 -4.10104,1.48166 -6.13833,2.24895 -1.42875,0.52917 -2.83104,1.13771 -4.25979,1.66688 -0.44979,0.15875 -0.635,0.44979 -0.89959,0.82021 z m 63.843956,-21.00792 c -0.0529,0 -0.10583,0 -0.15875,-0.0265 -2.93688,3.94229 -6.05896,7.69938 -9.39271,11.37709 0.50271,0.23812 0.92604,0.42333 1.45521,0.66145 0.10583,-0.13229 0.21167,-0.3175 0.37042,-0.47625 1.69333,-1.69333 3.41312,-3.3602 5.08,-5.10645 1.05833,-1.11125 2.01083,-2.3548 2.98979,-3.54543 0.13229,-0.15875 0.29104,-0.44979 0.23812,-0.635 -0.15875,-0.74083 -0.37041,-1.48166 -0.58208,-2.2225 z m -10.55688,11.50938 c 0,-0.0265 0,-0.0794 0,-0.10584 -1.42875,-0.58208 -2.8575,-1.05833 -4.41854,-0.82021 -1.79916,0.29105 -3.59833,0.58209 -5.37104,0.97896 -3.33375,0.74084 -6.6675,1.56104 -9.97479,2.32834 -0.82021,0.1852 -1.66687,0.37041 -2.51354,0.55562 0.0794,0.0794 0.13229,0.0794 0.21167,0.0794 2.69875,-0.3175 5.3975,-0.635 8.09625,-0.97896 1.95791,-0.23813 3.91583,-0.50271 5.87375,-0.76729 1.95791,-0.26459 3.88937,-0.50271 5.84729,-0.79375 0.76729,-0.10584 1.50812,-0.29105 2.24895,-0.4498 z m -1.61395,4.20687 c -0.23813,1.71979 -0.68792,3.46604 -0.71438,5.31813 0.84667,0 1.64042,0 2.40771,0 0.42333,0 0.66146,-0.15875 0.79375,-0.52917 0.29104,-0.92604 0.60854,-1.87854 0.89958,-2.80458 0.18521,-0.635 0.37042,-1.24355 0.60854,-1.98438 h -3.96875 z m -6.74688,-13.0175 c -0.97896,0.0794 -1.74625,0.44979 -2.43416,0.97896 -4.7625,3.59833 -9.57792,7.11729 -14.57855,10.37167 -0.0794,0.0529 -0.158746,0.13229 -0.211656,0.1852 0,0.0265 0,0.0794 0,0.10584 0.793746,-0.0529 1.587496,-0.0794 2.354786,-0.15875 0.29104,-0.0265 0.58208,-0.21167 0.79375,-0.39688 1.00542,-0.84666 1.98437,-1.74625 3.01625,-2.54 3.59833,-2.80458 7.19667,-5.55625 10.795,-8.33438 0.0529,-0.0529 0.10583,-0.10583 0.23812,-0.21166 z m 4.97417,9.78958 c 0.55562,0.89959 1.08479,1.77271 1.61396,2.61938 0.0529,0.0794 0.15875,0.18521 0.26458,0.18521 1.29646,0.0529 2.59292,0.0794 3.96875,0.13229 0,-0.29104 0.0265,-0.58208 0,-0.84667 -0.10583,-0.58208 -0.26458,-1.13771 -0.34396,-1.71979 -0.0529,-0.50271 -0.23812,-0.79375 -0.76729,-0.9525 -0.44979,-0.13229 -0.84667,-0.26458 -1.34938,-0.15875 -0.8202,0.21167 -1.66687,0.34396 -2.48708,0.52917 -0.29104,0.0529 -0.58208,0.13229 -0.89958,0.21166 z m 14.63146,-9.44563 c -0.15875,0.1323 -0.21167,0.18521 -0.23813,0.23813 -1.29646,1.7198 -2.80458,3.28084 -4.33917,4.78896 -1.40229,1.37584 -2.77812,2.80459 -4.15395,4.23334 -0.0529,0.0529 -0.1323,0.13229 -0.10584,0.1852 0.10584,0.52917 0.21167,1.05834 0.3175,1.69334 0.52917,-0.58209 1.00542,-1.08479 1.45521,-1.5875 2.16958,-2.35479 4.445,-4.63021 6.40292,-7.14375 0.10583,-0.13229 0.21166,-0.23813 0.23812,-0.39688 0.13229,-0.44979 0.23813,-0.89958 0.34396,-1.34937 0.0265,-0.18522 0.0265,-0.37042 0.0794,-0.66147 z m -39.528746,6.85272 c -2.01084,1.5875 -4.10104,3.20146 -6.16479,4.81541 1.00541,0 1.98437,-0.0529 2.96333,-0.10583 0.0529,0 0.13229,-0.0265 0.15875,-0.0794 0.66146,-0.52917 1.29646,-1.05834 1.95792,-1.5875 0.76729,-0.635 1.56104,-1.24355 2.30187,-1.85209 -0.39687,-0.37041 -0.76729,-0.74083 -1.21708,-1.19062 z m 1.27,-0.44979 c 0.23812,0.29104 0.44979,0.21166 0.68791,0.0529 1.428746,-0.9525 2.831046,-1.93146 4.259796,-2.88396 0.71437,-0.47625 1.56104,-0.47625 2.35479,-0.68791 0.0265,0 0.0794,0 0.10583,0 0.0794,0 0.15875,0 0.21167,-0.0529 1.19062,-0.76729 2.38125,-1.56104 3.54541,-2.32833 -0.10583,-0.47626 -0.21166,-0.87313 -0.29104,-1.27001 -0.74083,0.21167 -9.683746,6.05897 -10.900826,7.17022 z m 26.564156,-5.68855 c -2.06375,2.24896 -4.07458,4.41855 -6.16479,6.69396 0.50271,-0.0794 0.84667,-0.18521 1.21709,-0.18521 1.05833,0.0265 1.79916,-0.34395 2.38125,-1.27 0.66145,-1.08479 1.4552,-2.06375 2.16958,-3.09562 0.39687,-0.60854 0.58208,-1.29646 0.39687,-2.14313 z m -2.27541,-2.67229 c 0.79375,0.76729 1.50812,1.45521 2.19604,2.14312 0.13229,0.10584 0.26458,0.23813 0.3175,0.37042 0.10583,0.21167 0.21166,0.23813 0.42333,0.18521 0.74083,-0.18521 1.50813,-0.37042 2.24896,-0.52917 0.26458,-0.0529 0.55562,-0.10583 0.92604,-0.18521 -0.68792,-0.76729 -1.24354,-1.53458 -2.11667,-1.93146 -0.23812,-0.10583 -0.5027,-0.13229 -0.74083,-0.13229 -0.76729,0 -1.53458,0 -2.27542,0 -0.29104,0 -0.55562,0.0529 -0.9525,0.10584 z m 2.56645,4.04813 c -0.71437,1.87854 -2.11666,3.33375 -3.28083,4.97416 0.47625,0.0529 0.87313,0.10584 1.16417,0.1323 1.61396,-1.56105 3.20146,-3.06917 4.57729,-4.81542 -0.84667,-0.10583 -1.61396,-0.18521 -2.46063,-0.29104 z m -23.15104,9.44562 c -5.371036,0.23813 -10.715616,0.37042 -16.007286,1.16417 5.37104,0.21167 10.68917,-0.0794 16.007286,-1.16417 z m 1.53459,-7.77875 c -1.42875,0.97896 -2.8575,1.93146 -4.339166,2.93688 0.767286,0.0794 1.005416,0.635 1.349376,1.11125 0.9525,-0.66146 1.85208,-1.32292 2.77812,-1.95792 0.66146,-0.47625 0.74083,-0.71437 0.50271,-1.48167 -0.0529,-0.1852 -0.15875,-0.37041 -0.26458,-0.60854 z m -10.371666,5.74146 c 0,-0.0265 0,-0.0794 -0.0265,-0.10583 -0.635,-0.13229 -1.24354,-0.23813 -1.82562,0.26458 -0.66146,0.55563 -1.40229,1.03188 -2.11667,1.53458 -0.3175,0.23813 -0.66146,0.47625 -1.05833,0.7673 0.3175,0 0.50271,0 0.71437,-0.0529 0.47625,-0.0794 1.05834,-0.0794 1.42875,-0.3175 1.00542,-0.635 1.93146,-1.40229 2.91042,-2.11667 z m 11.324166,8.46667 h 2.8575 c -0.74084,-0.92604 -1.42875,-1.79917 -2.19604,-2.75167 -0.23813,0.97896 -0.42334,1.85208 -0.635,2.75167 z m 24.26229,-17.51542 c -0.0529,-0.0529 -0.0794,-0.0794 -0.13229,-0.1323 -1.00542,0.23813 -2.0373,0.47626 -3.04271,0.71438 -0.23813,0.0529 -0.34396,0.15875 -0.34396,0.39688 0,0.29104 0.15875,0.3175 0.37042,0.34396 0.71437,0.0794 1.42875,0.15875 2.14312,0.23812 0.0794,0 0.21167,-0.0529 0.26458,-0.10583 0.26459,-0.47625 0.50271,-0.97896 0.74084,-1.48167 z m -29.686246,8.38729 c -0.18521,-0.23812 -0.3175,-0.44979 -0.47625,-0.66146 -1.37583,1.11125 -2.69875,2.19605 -4.02167,3.25438 0.0265,0.0529 0.0529,0.10583 0.0794,0.15875 0.3175,-0.13229 0.66146,-0.18521 0.92604,-0.37042 0.9525,-0.635 1.905,-1.29646 2.8575,-1.93146 0.21167,-0.13229 0.39687,-0.29104 0.60854,-0.44979 z m 37.491456,-7.38187 c 0.0264,0 0.0529,0.0265 0.0794,0.0529 0.29104,-0.39687 0.52917,-0.79375 0.84667,-1.13771 0.50271,-0.60854 0.50271,-1.21708 0.13229,-1.85208 -0.0529,-0.10584 -0.13229,-0.21167 -0.18521,-0.34396 -0.15875,-0.39688 -0.47625,-0.52917 -0.92604,-0.44979 0.39687,1.24354 0.44979,2.51354 0.0794,3.75709 z m -36.32729,6.56166 c -0.29105,-0.66145 -0.661456,-1.08479 -1.402296,-1.03187 -0.21166,0 -0.42333,-0.15875 -0.635,-0.23813 -0.21166,-0.0794 -0.44979,-0.13229 -0.68791,-0.1852 -0.0265,0.0529 -0.0529,0.10583 -0.10584,0.15875 0.15875,0.21166 0.29105,0.44979 0.47625,0.60854 0.47625,0.42333 0.97896,0.79375 1.50813,1.24354 0.21167,-0.15875 0.502706,-0.34396 0.793746,-0.55563 z m 6.0325,-4.9477 c 0.13229,0.10583 0.26458,0.21166 0.37041,0.3175 1.11125,-0.74084 2.19604,-1.48167 3.30729,-2.24896 -0.10583,-0.13229 -0.1852,-0.26459 -0.29104,-0.39688 -1.16416,0.79375 -2.27541,1.56104 -3.41312,2.32834 z m 0.10583,0.55562 c 0,-0.0529 0,-0.10583 0,-0.13229 -0.37042,-0.0794 -0.71438,-0.26458 -1.05833,-0.23813 -0.4498,0.0529 -0.89959,0.26459 -1.34938,0.42334 0.0794,0.47625 0.10583,0.47625 0.58208,0.52916 0.26459,0 0.52917,0.0794 0.79375,0.10584 0.0529,0 0.1323,0 0.18521,-0.0265 0.29104,-0.21167 0.58209,-0.42333 0.84667,-0.635 z m 3.22792,-4.445 c -0.0265,0.68791 0.15875,1.29645 0.71437,1.77271 0.15875,-0.10583 0.3175,-0.18521 0.44979,-0.29104 -0.50271,-1.34938 -0.68791,-1.53459 -1.16416,-1.48167 z m 25.9027,-2.51355 c -0.55562,-0.13229 -1.03187,-0.26458 -1.5875,-0.39687 0.26459,0.52917 0.47625,0.97896 0.68792,1.45521 0.29104,-0.37042 0.58208,-0.68792 0.87312,-1.08479 z m -8.28146,-3.22791 c 0,-0.0529 0,-0.10584 0,-0.15875 -1.05833,-0.10584 -2.0902,-0.21167 -3.14854,-0.3175 0,0.0529 0,0.10583 0,0.13229 1.00542,0.55562 2.09021,0.23812 3.14854,0.34396 z m -32.993536,15.13417 c -0.47625,-0.29104 -0.89958,-0.15875 -1.56104,0.42333 0.58209,0.13229 1.13771,0.23813 1.56104,-0.42333 z m 9.974796,-4.04813 c 0,0.18521 0.0265,0.37042 0.0529,0.635 0.29104,-0.21166 0.52917,-0.39687 0.87313,-0.635 z"
       id="path8"
       style="fill:#ccff66;stroke-width:0.264583" />
  </g>
</svg>
