<?xml version="1.0" encoding="UTF-8" standalone="no"?>
<!-- Created with Inkscape (http://www.inkscape.org/) -->

<svg
   width="25.746099mm"
   height="66.913887mm"
   viewBox="0 0 25.7461 66.913888"
   version="1.1"
   id="svg1"
   xmlns="http://www.w3.org/2000/svg"
   xmlns:svg="http://www.w3.org/2000/svg">
  <defs
     id="defs1" />
  <g
     id="layer1"
     transform="translate(-92.074998,-115.09375)">
    <path
       class="cls-2"
       d="m 112.66171,158.83013 c -0.60854,-0.79375 -1.19062,-1.53459 -1.74625,-2.32834 -0.18521,-0.23812 -0.23812,-0.58208 -0.37042,-0.87312 -0.0794,-0.18521 -0.15875,-0.39688 -0.29104,-0.58209 -1.13771,-1.69332 -2.32833,-3.36019 -3.43958,-5.05353 -1.24354,-1.87854 -2.43417,-3.81 -3.65127,-5.715 -0.34395,-0.52916 -0.0794,-1.24354 0.50271,-1.53458 l 1.03189,-0.47625 c -0.0265,-0.0794 -0.0529,-0.15875 -0.10584,-0.21167 -1.98439,-3.22791 -3.96877,-6.45583 -5.979607,-9.68375 -0.3175,-0.52916 -0.68792,-1.03187 -1.13771,-1.48166 -0.52916,-0.52917 -0.71437,-1.11125 -0.60854,-1.85209 0.13229,-0.9525 0.23813,-1.93145 0.34396,-2.88395 0.0529,-0.50271 0.37042,-0.82021 0.71437,-1.11125 0.42334,-0.3175 0.84667,-0.21167 1.190633,0.26458 0.661457,0.87312 1.349364,1.77271 2.010834,2.64583 0.18521,0.21167 0.37042,0.42334 0.635,0.66146 -0.18521,-1.48167 0.23813,-2.72521 1.50814,-3.59833 -0.15875,-0.26459 -0.29104,-0.47625 -0.42334,-0.68792 -0.84667,-1.42875 -1.7198,-2.8575 -2.56647,-4.28625 -0.1323,-0.23812 -0.1323,-0.58208 -0.10584,-0.84667 0.0529,-0.44979 0.23813,-0.87312 0.3175,-1.32291 0.0794,-0.37042 0.2646,-0.635 0.63501,-0.74084 0.34396,-0.0794 0.47625,-0.29104 0.44979,-0.60854 -0.0265,-0.42333 0.18521,-0.68791 0.52917,-0.87312 0.0529,-0.0265 0.10583,-0.0529 0.15875,-0.10584 0.92605,-0.60854 1.79918,-0.635 2.69878,0.1323 1.905,1.61395 3.88937,3.175 5.76791,4.81541 1.64042,1.45521 3.22792,2.98979 4.84188,4.47146 0.0794,0.0794 0.21166,0.15875 0.3175,0.18521 1.99538,0.35726 3.92379,0.96122 5.84729,1.5875 0.74083,0.23812 0.87312,0.47625 0.82021,1.27 0,0.29104 0.0265,0.55562 0.0265,0.84667 v 52.4404 c 0,0.23813 -0.0794,0.47625 -0.10584,0.71438 -0.18521,-0.10584 -0.34396,-0.23813 -0.52916,-0.34396 -0.21167,-0.13229 -0.42334,-0.29104 -0.635,-0.44979 -0.0529,-0.0529 -0.10584,-0.1323 -0.1323,-0.21167 -0.5027,-1.29646 -1.00541,-2.59292 -1.48166,-3.91583 -0.87313,-2.38125 -1.79917,-4.73605 -2.56646,-7.14375 -0.39688,-1.21709 -0.52917,-2.51355 -0.76729,-3.78355 -0.0265,-0.15875 -0.10584,-0.3175 -0.18521,-0.44979 -0.9525,-1.37583 -1.93146,-2.75166 -2.88396,-4.1275 -0.34396,-0.50271 -0.60854,-1.08479 -0.87312,-1.64041 -0.21167,-0.42334 -0.0794,-0.79375 0.23812,-1.16417 z m 3.41313,-8.25499 c 0.1852,-0.1323 0.3175,-0.18521 0.44979,-0.29105 1.82562,-1.48166 3.65125,-2.98979 5.50333,-4.47145 0.21167,-0.15875 0.26458,-0.34396 0.26458,-0.58209 v -14.02291 c 0,-0.0794 0.0265,-0.15875 0,-0.23813 -0.0529,-0.10583 -0.15875,-0.23812 -0.23812,-0.26458 -1.48167,-0.21167 -2.96333,-0.42333 -4.445,-0.60854 -0.34396,-0.0529 -0.76729,-0.0794 -1.05833,0.0529 -0.84667,0.4498 -1.64042,0.97896 -2.40771,1.53459 -0.18521,0.13229 -0.3175,0.44979 -0.34396,0.68791 0,0.44979 0.0529,0.89959 0.10583,1.34938 0.26459,1.74625 0.58209,3.4925 0.79375,5.23875 0.42334,3.36021 0.79375,6.72041 1.19063,10.08062 0.0529,0.50271 0.13229,0.97896 0.21166,1.53459 z m 6.16479,20.39936 v -21.74874 c -0.87313,-0.21167 -1.74625,-0.39687 -2.59292,-0.66146 -0.37042,-0.10583 -0.60854,-0.0529 -0.89958,0.18521 -0.84667,0.71438 -1.69334,1.37583 -2.54,2.09021 -0.0794,0.0529 -0.10584,0.21167 -0.0794,0.34396 0.13229,1.11125 0.29104,2.2225 0.44979,3.33374 0.3175,2.09021 0.66146,4.18041 0.66146,6.29708 v 7.59354 c 0,0.21167 0.0265,0.39688 0.26459,0.50271 1.56104,0.68792 3.12208,1.37583 4.73604,2.09021 z m -17.48897,-42.25395 c -0.68792,0.68792 -1.34938,1.32292 -1.98438,2.01084 -0.23814,0.23812 -0.26459,0.52916 -0.0529,0.84666 1.11125,1.61396 2.22252,3.28084 3.36023,4.89479 2.51354,3.57188 5.47687,6.7998 8.255,10.16 0,0 0.0529,0.0265 0.13229,0.0529 0,-0.13229 -0.0265,-0.21167 -0.0529,-0.3175 -0.84667,-3.62479 -1.69333,-7.24958 -2.54,-10.84792 -0.0265,-0.13229 -0.10583,-0.29104 -0.21167,-0.39687 -2.27541,-2.11667 -4.55083,-4.23333 -6.87916,-6.37646 z M 115.6515,157.322 c 0,-0.0794 0.0529,-0.10583 0.0529,-0.13229 -0.0265,-0.89958 -0.0529,-1.79917 -0.0794,-2.69875 0,-0.0794 0,-0.15875 -0.0529,-0.21167 -0.34396,-0.47625 -0.68792,-0.92603 -1.00542,-1.40228 -3.04271,-4.55083 -6.21771,-8.99583 -9.55146,-13.36146 -0.71438,-0.9525 -1.24355,-1.95791 -1.42876,-3.12208 -0.0529,-0.29104 -0.13229,-0.635 -0.3175,-0.84667 -1.5346,-1.79916 -3.09565,-3.59833 -4.656687,-5.3975 -0.26458,-0.29104 -0.52917,-0.58208 -0.82021,-0.87312 -0.0794,0.10583 -0.13229,0.18521 -0.18521,0.23812 -0.34395,0.47625 -0.34395,0.47625 0,0.92605 0.4498,0.60854 0.9525,1.19062 1.375843,1.82562 0.873117,1.37583 1.719794,2.80458 2.592914,4.18042 1.93147,3.09562 3.78357,6.2177 5.82086,9.23395 2.61938,3.86292 5.3975,7.64646 8.09625,11.42999 0.0529,0.0794 0.10584,0.1323 0.18521,0.21167 z m -0.52916,-7.27603 c 0.0264,0 0.0529,-0.0265 0.0794,-0.0529 -0.13229,-0.66146 -0.26458,-1.32291 -0.44979,-1.95791 -0.0794,-0.26459 -0.21167,-0.55563 -0.39688,-0.79375 -0.58208,-0.74084 -1.19062,-1.48167 -1.79916,-2.16959 -3.75709,-4.28625 -7.24959,-8.78416 -10.31878,-13.59958 -0.18521,-0.29104 -0.34396,-0.66146 -0.34396,-1.00542 0,-0.74083 -0.23812,-1.37583 -0.71437,-1.95791 -0.79376,-0.9525 -1.508137,-1.95792 -2.275427,-2.93688 -0.15875,-0.18521 -0.3175,-0.37041 -0.60854,-0.26458 -0.29104,0.10583 -0.26458,0.34396 -0.26458,0.58208 0,0.82021 0,1.66688 -0.0794,2.48709 -0.0265,0.42333 0.0794,0.71437 0.34396,1.00541 1.37583,1.50813 2.751667,3.01625 4.048127,4.57729 1.9844,2.40771 3.86295,4.86834 5.79441,7.3025 2.06375,2.61938 4.1275,5.26521 6.19125,7.88459 0.23812,0.3175 0.52916,0.60854 0.79375,0.89958 z m -3.6248,-20.10833 c 0.3175,-0.84667 0.60855,-1.61396 0.87313,-2.38125 0.0265,-0.0794 0,-0.26459 -0.0794,-0.3175 -0.87312,-0.79375 -1.74625,-1.56104 -2.64583,-2.32834 -1.42875,-1.21708 -2.88396,-2.43416 -4.33917,-3.62479 -0.89958,-0.74083 -1.82564,-1.45521 -2.75169,-2.14312 -0.0794,-0.0794 -0.26458,-0.13229 -0.34396,-0.10584 -0.52916,0.23813 -1.05833,0.50271 -1.61395,0.79375 1.00541,1.66688 1.95791,3.3073 2.93688,4.97417 0.42333,-0.42333 0.87314,-0.68792 1.42877,-0.42333 0.60854,0.29104 1.27,0.55562 1.7727,1.00541 1.34938,1.19063 2.64584,2.46063 3.9423,3.73063 0.26458,0.26458 0.5027,0.52917 0.79375,0.84667 z m 10.74209,51.40853 v -0.21167 -9.41917 c 0,-0.15875 -0.13229,-0.37041 -0.29104,-0.42333 -0.7673,-0.39687 -1.53459,-0.79375 -2.32834,-1.16417 -0.76729,-0.34395 -1.53458,-0.66145 -2.38125,-1.00541 0.10584,0.37041 0.15875,0.66146 0.26459,0.9525 0.74083,2.06375 1.48166,4.10104 2.24895,6.13833 0.52917,1.42875 1.13771,2.83104 1.66688,4.25979 0.15875,0.44979 0.44979,0.635 0.82021,0.89959 z m -21.00794,-63.84395 c 0,0.0529 0,0.10583 -0.0265,0.15875 3.94231,2.93688 7.6994,6.05896 11.37711,9.39271 0.23812,-0.50271 0.42333,-0.92604 0.66145,-1.45521 -0.13229,-0.10583 -0.3175,-0.21167 -0.47625,-0.37042 -1.69333,-1.69333 -3.3602,-3.41312 -5.10645,-5.08 -1.11125,-1.05833 -2.3548,-2.01083 -3.54544,-2.98979 -0.15875,-0.13229 -0.44979,-0.29104 -0.635,-0.23812 -0.74083,0.15875 -1.48167,0.37041 -2.22251,0.58208 z m 11.5094,10.55688 h -0.10584 c -0.58208,1.42875 -1.05833,2.8575 -0.82021,4.41854 0.29105,1.79916 0.58209,3.59833 0.97896,5.37104 0.74084,3.33375 1.56104,6.6675 2.32834,9.97479 0.1852,0.82021 0.37041,1.66687 0.55562,2.51354 0.0794,-0.0794 0.0794,-0.13229 0.0794,-0.21167 -0.3175,-2.69875 -0.635,-5.3975 -0.97896,-8.09625 -0.23813,-1.95791 -0.50271,-3.91583 -0.76729,-5.87375 -0.26459,-1.95791 -0.50271,-3.88937 -0.79375,-5.84729 -0.10584,-0.76729 -0.29105,-1.50812 -0.4498,-2.24895 z m 4.20687,1.61395 c 1.71979,0.23813 3.46604,0.68792 5.31813,0.71438 v -2.40771 c 0,-0.42333 -0.15875,-0.66146 -0.52917,-0.79375 -1.58684,-0.53298 -3.19498,-0.99804 -4.78896,-1.50812 v 3.96875 z m -13.01751,6.74688 c 0.0794,0.97896 0.4498,1.74625 0.97897,2.43416 3.59833,4.7625 7.11729,9.57792 10.37167,14.57855 0.0529,0.0794 0.13229,0.15874 0.1852,0.21165 h 0.10584 c -0.0529,-0.79374 -0.0794,-1.58749 -0.15875,-2.35478 -0.0265,-0.29104 -0.21167,-0.58208 -0.39688,-0.79375 -0.84666,-1.00542 -1.74625,-1.98437 -2.54,-3.01625 -2.80458,-3.59833 -5.55625,-7.19667 -8.33439,-10.795 -0.0529,-0.0529 -0.10583,-0.10583 -0.21166,-0.23812 z m 9.78959,-4.97417 c 0.89959,-0.55562 1.77271,-1.08479 2.61938,-1.61396 0.0794,-0.0529 0.18521,-0.15875 0.18521,-0.26458 0.0529,-1.29646 0.0794,-2.59292 0.13229,-3.96875 -0.29104,0 -0.58208,-0.0265 -0.84667,0 -0.58208,0.10583 -1.13771,0.26458 -1.71979,0.34396 -0.50271,0.0529 -0.79375,0.23812 -0.9525,0.76729 -0.13229,0.44979 -0.26458,0.84667 -0.15875,1.34938 0.21167,0.8202 0.34396,1.66687 0.52917,2.48708 0.0529,0.29104 0.13229,0.58208 0.21166,0.89958 z m -9.44563,-14.63146 c 0.1323,0.15875 0.18521,0.21167 0.23813,0.23813 1.7198,1.29646 3.28084,2.80458 4.78896,4.33917 1.37584,1.40229 2.80459,2.77812 4.23334,4.15395 0.0529,0.0529 0.13229,0.1323 0.1852,0.10584 0.52917,-0.10584 1.05834,-0.21167 1.69334,-0.3175 -0.58209,-0.52917 -1.08479,-1.00542 -1.5875,-1.45521 -2.35479,-2.16958 -4.63021,-4.445 -7.14375,-6.40292 -0.13229,-0.10583 -0.23813,-0.21166 -0.39688,-0.23812 -0.44979,-0.13229 -0.89958,-0.23813 -1.34937,-0.34396 -0.18522,-0.0265 -0.37042,-0.0265 -0.66147,-0.0794 z m 6.85272,39.52874 c 1.5875,2.01084 3.20146,4.10104 4.81541,6.16479 0,-1.00541 -0.0529,-1.98437 -0.10583,-2.96333 0,-0.0529 -0.0265,-0.13229 -0.0794,-0.15875 -0.52917,-0.66146 -1.05834,-1.29646 -1.5875,-1.95792 -0.635,-0.76729 -1.24355,-1.56104 -1.85209,-2.30187 -0.37041,0.39687 -0.74083,0.76729 -1.19062,1.21708 z m -0.44979,-1.27 c 0.29104,-0.23812 0.21166,-0.44979 0.0529,-0.68791 -0.9525,-1.42874 -1.93146,-2.83104 -2.88396,-4.25979 -0.47625,-0.71437 -0.47625,-1.56104 -0.68791,-2.35479 v -0.10583 c 0,-0.0794 0,-0.15875 -0.0529,-0.21167 -0.76729,-1.19062 -1.56104,-2.38125 -2.32833,-3.54541 -0.47626,0.10583 -0.87314,0.21166 -1.27002,0.29104 0.21167,0.74083 6.05898,9.68374 7.17023,10.90082 z m -5.68855,-26.56415 c 2.24896,2.06375 4.41855,4.07458 6.69396,6.16479 -0.0794,-0.50271 -0.18521,-0.84667 -0.18521,-1.21709 0.0265,-1.05833 -0.34395,-1.79916 -1.27,-2.38125 -1.08479,-0.66145 -2.06375,-1.4552 -3.09562,-2.16958 -0.60854,-0.39687 -1.29646,-0.58208 -2.14313,-0.39687 z m -2.67231,2.27541 c 0.7673,-0.79375 1.45522,-1.50812 2.14314,-2.19604 0.10584,-0.13229 0.23813,-0.26458 0.37042,-0.3175 0.21167,-0.10583 0.23813,-0.21166 0.18521,-0.42333 -0.18521,-0.74083 -0.37042,-1.50813 -0.52917,-2.24896 -0.0529,-0.26458 -0.10583,-0.55562 -0.18521,-0.92604 -0.7673,0.68792 -1.53459,1.24354 -1.93148,2.11667 -0.10583,0.23812 -0.13229,0.5027 -0.13229,0.74083 v 2.27542 c 0,0.29104 0.0529,0.55562 0.10584,0.9525 z m 4.04815,-2.56645 c 1.87854,0.71437 3.33375,2.11666 4.97416,3.28083 0.0529,-0.47625 0.10584,-0.87313 0.1323,-1.16417 -1.56105,-1.61396 -3.06917,-3.20146 -4.81542,-4.57729 -0.10583,0.84667 -0.18521,1.61396 -0.29104,2.46063 z m 9.44562,23.15104 c 0.23813,5.37103 0.37042,10.71561 1.16417,16.00728 0.21167,-5.37104 -0.0794,-10.68917 -1.16417,-16.00728 z m -7.77875,-1.53459 c 0.97896,1.42875 1.93146,2.8575 2.93688,4.33916 0.0794,-0.76728 0.635,-1.00541 1.11125,-1.34937 -0.66146,-0.9525 -1.32292,-1.85208 -1.95792,-2.77812 -0.47625,-0.66146 -0.71437,-0.74083 -1.48167,-0.50271 -0.1852,0.0529 -0.37041,0.15875 -0.60854,0.26458 z m 5.74146,10.37166 c -0.0265,0 -0.0794,0 -0.10583,0.0265 -0.13229,0.635 -0.23813,1.24354 0.26458,1.82562 0.55563,0.66146 1.03188,1.40229 1.53458,2.11667 0.23813,0.3175 0.47625,0.66146 0.7673,1.05833 0,-0.3175 0,-0.50271 -0.0529,-0.71437 -0.0794,-0.47625 -0.0794,-1.05834 -0.3175,-1.42875 -0.635,-1.00542 -1.40229,-1.93146 -2.11667,-2.91042 z m 8.46667,-11.32416 v -2.8575 c -0.92604,0.74084 -1.79917,1.42875 -2.75167,2.19604 0.97896,0.23813 1.85208,0.42334 2.75167,0.635 z m -17.51542,-24.26229 c -0.0529,0.0529 -0.0794,0.0794 -0.1323,0.13229 0.23813,1.00542 0.47626,2.0373 0.71438,3.04271 0.0529,0.23813 0.15875,0.34396 0.39688,0.34396 0.29104,0 0.3175,-0.15875 0.34396,-0.37042 0.0794,-0.71437 0.15875,-1.42875 0.23812,-2.14312 0,-0.0794 -0.0529,-0.21167 -0.10583,-0.26458 -0.47625,-0.26459 -0.97896,-0.50271 -1.48167,-0.74084 z m 8.38729,29.68624 c -0.23812,0.18521 -0.44979,0.3175 -0.66146,0.47625 1.11125,1.37583 2.19605,2.69875 3.25438,4.02167 0.0529,-0.0265 0.10583,-0.0529 0.15875,-0.0794 -0.13229,-0.3175 -0.18521,-0.66146 -0.37042,-0.92604 -0.635,-0.9525 -1.29646,-1.905 -1.93146,-2.8575 -0.13229,-0.21167 -0.29104,-0.39687 -0.44979,-0.60854 z m -7.38187,-37.49145 c 0,-0.0264 0.0265,-0.0529 0.0529,-0.0794 -0.39687,-0.29104 -0.79375,-0.52917 -1.13771,-0.84667 -0.60855,-0.50271 -1.21709,-0.50271 -1.85209,-0.13229 -0.10584,0.0529 -0.21168,0.13229 -0.34397,0.18521 -0.39688,0.15875 -0.52917,0.47625 -0.44979,0.92604 1.24355,-0.39687 2.51356,-0.44979 3.75711,-0.0794 z m 6.56166,36.32729 c -0.66145,0.29105 -1.08479,0.66145 -1.03187,1.40229 0,0.21166 -0.15875,0.42333 -0.23813,0.635 -0.0794,0.21166 -0.13229,0.44979 -0.1852,0.68791 0.0529,0.0265 0.10583,0.0529 0.15875,0.10584 0.21166,-0.15875 0.44979,-0.29105 0.60854,-0.47625 0.42333,-0.47625 0.79375,-0.97896 1.24354,-1.50813 -0.15875,-0.21167 -0.34396,-0.5027 -0.55563,-0.79374 z m -4.9477,-6.0325 c 0.10583,-0.13229 0.21166,-0.26458 0.3175,-0.37041 -0.74084,-1.11125 -1.48167,-2.19604 -2.24896,-3.30729 -0.13229,0.10583 -0.26459,0.1852 -0.39688,0.29104 0.79375,1.16416 1.56104,2.27541 2.32834,3.41312 z m 0.55562,-0.10583 h -0.13229 c -0.0794,0.37042 -0.26458,0.71438 -0.23813,1.05833 0.0529,0.4498 0.26459,0.89959 0.42334,1.34938 0.47625,-0.0794 0.47625,-0.10583 0.52916,-0.58208 0,-0.26459 0.0794,-0.52917 0.10584,-0.79375 0,-0.0529 0,-0.1323 -0.0265,-0.18521 -0.21167,-0.29104 -0.42333,-0.58209 -0.635,-0.84667 z m -4.44501,-3.22792 c 0.68791,0.0265 1.29646,-0.15875 1.77272,-0.71437 -0.10583,-0.15875 -0.18521,-0.3175 -0.29104,-0.44979 -1.34939,0.50271 -1.5346,0.68791 -1.48168,1.16416 z m -2.51356,-25.9027 c -0.13229,0.55562 -0.26458,1.03187 -0.39687,1.5875 0.52917,-0.26459 0.97896,-0.47625 1.45521,-0.68792 -0.37042,-0.29104 -0.68792,-0.58208 -1.08479,-0.87312 z m -3.227917,8.28146 h -0.15875 c -0.10584,1.05833 -0.21167,2.0902 -0.3175,3.14854 h 0.13229 c 0.55562,-1.00542 0.23812,-2.09021 0.34396,-3.14854 z m 15.134197,32.99353 c -0.29104,0.47625 -0.15875,0.89958 0.42333,1.56104 0.13229,-0.58209 0.23813,-1.13771 -0.42333,-1.56104 z m -4.04813,-9.97479 c 0.18521,0 0.37042,-0.0265 0.635,-0.0529 -0.21166,-0.29104 -0.39687,-0.52917 -0.635,-0.87313 z"
       id="path8"
       style="fill:#ffffff;stroke-width:0.264583" />
    <path
       style="font-variation-settings:'wght' 900;fill:#ffffff;stroke-width:0.264583;paint-order:stroke fill markers"
       d="M 112.2472,168.92604 V 129.59998"
       id="path1" />
    <path
       style="font-variation-settings:'wght' 900;fill:#ffffff;stroke-width:0.264583;paint-order:stroke fill markers"
       d="m 112.00886,129.8979 v 39.02814"
       id="path2" />
  </g>
</svg>
