<?xml version="1.0" encoding="UTF-8" standalone="no"?>
<!-- Created with Inkscape (http://www.inkscape.org/) -->

<svg
   width="25.746098mm"
   height="66.913887mm"
   viewBox="0 0 25.746098 66.913889"
   version="1.1"
   id="svg1"
   inkscape:export-filename="diamante_vertical.svg"
   inkscape:export-xdpi="96"
   inkscape:export-ydpi="96"
   xmlns:inkscape="http://www.inkscape.org/namespaces/inkscape"
   xmlns:sodipodi="http://sodipodi.sourceforge.net/DTD/sodipodi-0.dtd"
   xmlns="http://www.w3.org/2000/svg"
   xmlns:svg="http://www.w3.org/2000/svg">
  <sodipodi:namedview
     id="namedview1"
     pagecolor="#505050"
     bordercolor="#eeeeee"
     borderopacity="1"
     inkscape:showpageshadow="0"
     inkscape:pageopacity="0"
     inkscape:pagecheckerboard="0"
     inkscape:deskcolor="#505050"
     inkscape:document-units="mm" />
  <defs
     id="defs1" />
  <g
     inkscape:label="Capa 1"
     inkscape:groupmode="layer"
     id="layer1"
     transform="translate(-92.075,-115.09375)">
    <path
       class="cls-2"
       d="m 107.89918,158.83013 c -0.60854,-0.79375 -1.19062,-1.53459 -1.74625,-2.32834 -0.18521,-0.23812 -0.23812,-0.58208 -0.37042,-0.87312 -0.0794,-0.18521 -0.15875,-0.39688 -0.29104,-0.58209 -1.13771,-1.69332 -2.32833,-3.36019 -3.43958,-5.05353 -1.24354,-1.87854 -2.434168,-3.81 -3.651258,-5.715 -0.34395,-0.52916 -0.0794,-1.24354 0.50271,-1.53458 0.34396,-0.15875 0.68792,-0.3175 1.03188,-0.47625 -0.0265,-0.0794 -0.0529,-0.15875 -0.10584,-0.21167 -1.98437,-3.22791 -3.96875,-6.45583 -5.97958,-9.68375 -0.3175,-0.52916 -0.68792,-1.03187 -1.13771,-1.48166 -0.52916,-0.52917 -0.71437,-1.11125 -0.60854,-1.85209 0.13229,-0.9525 0.23813,-1.93145 0.34396,-2.88395 0.0529,-0.50271 0.37042,-0.82021 0.71437,-1.11125 0.42334,-0.3175 0.84667,-0.21167 1.19063,0.26458 0.66146,0.87312 1.34937,1.77271 2.01083,2.64583 0.18521,0.21167 0.37042,0.42334 0.635,0.66146 -0.18521,-1.48167 0.23813,-2.72521 1.50813,-3.59833 -0.15875,-0.26459 -0.29104,-0.47625 -0.42334,-0.68792 -0.84666,-1.42875 -1.71979,-2.8575 -2.56645,-4.28625 -0.1323,-0.23812 -0.1323,-0.58208 -0.10584,-0.84667 0.0529,-0.44979 0.23813,-0.87312 0.3175,-1.32291 0.0794,-0.37042 0.26459,-0.635 0.635,-0.74084 0.34396,-0.0794 0.47625,-0.29104 0.44979,-0.60854 -0.0265,-0.42333 0.18521,-0.68791 0.52917,-0.87312 0.0529,-0.0265 0.10583,-0.0529 0.15875,-0.10584 0.92604,-0.60854 1.79917,-0.635 2.698758,0.1323 1.905,1.61395 3.88937,3.175 5.76791,4.81541 1.64042,1.45521 3.22792,2.98979 4.84188,4.47146 0.0794,0.0794 0.21166,0.15875 0.3175,0.18521 0.89958,0.21167 1.82562,0.37042 2.69875,0.60854 1.05833,0.29104 2.09021,0.635 3.14854,0.97896 0.74083,0.23812 0.87312,0.47625 0.82021,1.27 0,0.29104 0.0265,0.55562 0.0265,0.84667 0,17.48895 0,34.95144 0,52.4404 0,0.23813 -0.0794,0.47625 -0.10584,0.71438 -0.18521,-0.10584 -0.34396,-0.23813 -0.52916,-0.34396 -0.21167,-0.13229 -0.42334,-0.29104 -0.635,-0.44979 -0.0529,-0.0529 -0.10584,-0.1323 -0.1323,-0.21167 -0.5027,-1.29646 -1.00541,-2.59292 -1.48166,-3.91583 -0.87313,-2.38125 -1.79917,-4.73605 -2.56646,-7.14375 -0.39688,-1.21709 -0.52917,-2.51355 -0.76729,-3.78355 -0.0265,-0.15875 -0.10584,-0.3175 -0.18521,-0.44979 -0.9525,-1.37583 -1.93146,-2.75166 -2.88396,-4.1275 -0.34396,-0.50271 -0.60854,-1.08479 -0.87312,-1.64041 -0.21167,-0.42334 -0.0794,-0.79375 0.23812,-1.16417 z m 3.41313,-8.25499 c 0.1852,-0.1323 0.3175,-0.18521 0.44979,-0.29105 1.82562,-1.48166 3.65125,-2.98979 5.50333,-4.47145 0.21167,-0.15875 0.26458,-0.34396 0.26458,-0.58209 0,-4.68312 0,-9.33979 0,-14.02291 0,-0.0794 0.0265,-0.15875 0,-0.23813 -0.0529,-0.10583 -0.15875,-0.23812 -0.23812,-0.26458 -1.48167,-0.21167 -2.96333,-0.42333 -4.445,-0.60854 -0.34396,-0.0529 -0.76729,-0.0794 -1.05833,0.0529 -0.84667,0.4498 -1.64042,0.97896 -2.40771,1.53459 -0.18521,0.13229 -0.3175,0.44979 -0.34396,0.68791 0,0.44979 0.0529,0.89959 0.10583,1.34938 0.26459,1.74625 0.58209,3.4925 0.79375,5.23875 0.42334,3.36021 0.79375,6.72041 1.19063,10.08062 0.0529,0.50271 0.13229,0.97896 0.21166,1.53459 z m 6.16479,20.39936 v -21.74874 c -0.87313,-0.21167 -1.74625,-0.39687 -2.59292,-0.66146 -0.37042,-0.10583 -0.60854,-0.0529 -0.89958,0.18521 -0.84667,0.71438 -1.69334,1.37583 -2.54,2.09021 -0.0794,0.0529 -0.10584,0.21167 -0.0794,0.34396 0.13229,1.11125 0.29104,2.2225 0.44979,3.33374 0.3175,2.09021 0.66146,4.18041 0.66146,6.29708 0,2.54 0,5.05354 0,7.59354 0,0.21167 0.0265,0.39688 0.26459,0.50271 1.56104,0.68792 3.12208,1.37583 4.73604,2.09021 z M 99.988132,128.72055 c -0.68791,0.68792 -1.34937,1.32292 -1.98437,2.01084 -0.23813,0.23812 -0.26458,0.52916 -0.0529,0.84666 1.11125,1.61396 2.222508,3.28084 3.360218,4.89479 2.51354,3.57188 5.47687,6.7998 8.255,10.16 0,0 0.0529,0.0265 0.13229,0.0529 0,-0.13229 -0.0265,-0.21167 -0.0529,-0.3175 -0.84667,-3.62479 -1.69333,-7.24958 -2.54,-10.84792 -0.0265,-0.13229 -0.10583,-0.29104 -0.21167,-0.39687 -2.27541,-2.11667 -4.55083,-4.23333 -6.87916,-6.37646 z M 110.88897,157.322 c 0,-0.0794 0.0529,-0.10583 0.0529,-0.13229 -0.0265,-0.89958 -0.0529,-1.79917 -0.0794,-2.69875 0,-0.0794 0,-0.15875 -0.0529,-0.21167 -0.34396,-0.47625 -0.68792,-0.92603 -1.00542,-1.40228 -3.04271,-4.55083 -6.21771,-8.99583 -9.55146,-13.36146 -0.714378,-0.9525 -1.243538,-1.95791 -1.428748,-3.12208 -0.0529,-0.29104 -0.13229,-0.635 -0.3175,-0.84667 -1.53459,-1.79916 -3.09563,-3.59833 -4.65667,-5.3975 -0.26458,-0.29104 -0.52917,-0.58208 -0.82021,-0.87312 -0.0794,0.10583 -0.13229,0.18521 -0.18521,0.23812 -0.34395,0.47625 -0.34395,0.47625 0,0.92605 0.4498,0.60854 0.9525,1.19062 1.37584,1.82562 0.87312,1.37583 1.71979,2.80458 2.59291,4.18042 1.93146,3.09562 3.783548,6.2177 5.820838,9.23395 2.61938,3.86292 5.3975,7.64646 8.09625,11.42999 0.0529,0.0794 0.10584,0.1323 0.18521,0.21167 z m -0.52916,-7.27603 c 0.0264,0 0.0529,-0.0265 0.0794,-0.0529 -0.13229,-0.66146 -0.26458,-1.32291 -0.44979,-1.95791 -0.0794,-0.26459 -0.21167,-0.55563 -0.39688,-0.79375 -0.58208,-0.74084 -1.19062,-1.48167 -1.79916,-2.16959 -3.75709,-4.28625 -7.24959,-8.78416 -10.318758,-13.59958 -0.18521,-0.29104 -0.34396,-0.66146 -0.34396,-1.00542 0,-0.74083 -0.23812,-1.37583 -0.71437,-1.95791 -0.79375,-0.9525 -1.50813,-1.95792 -2.27542,-2.93688 -0.15875,-0.18521 -0.3175,-0.37041 -0.60854,-0.26458 -0.29104,0.10583 -0.26458,0.34396 -0.26458,0.58208 0,0.82021 0,1.66688 -0.0794,2.48709 -0.0265,0.42333 0.0794,0.71437 0.34396,1.00541 1.37583,1.50813 2.75166,3.01625 4.04812,4.57729 1.98438,2.40771 3.862928,4.86834 5.794388,7.3025 2.06375,2.61938 4.1275,5.26521 6.19125,7.88459 0.23812,0.3175 0.52916,0.60854 0.79375,0.89958 z m -3.6248,-20.10833 c 0.3175,-0.84667 0.60855,-1.61396 0.87313,-2.38125 0.0265,-0.0794 0,-0.26459 -0.0794,-0.3175 -0.87312,-0.79375 -1.74625,-1.56104 -2.64583,-2.32834 -1.42875,-1.21708 -2.88396,-2.43416 -4.33917,-3.62479 -0.899578,-0.74083 -1.825628,-1.45521 -2.751668,-2.14312 -0.0794,-0.0794 -0.26458,-0.13229 -0.34396,-0.10584 -0.52916,0.23813 -1.05833,0.50271 -1.61395,0.79375 1.00541,1.66688 1.95791,3.3073 2.93687,4.97417 0.42333,-0.42333 0.87313,-0.68792 1.428758,-0.42333 0.60854,0.29104 1.27,0.55562 1.7727,1.00541 1.34938,1.19063 2.64584,2.46063 3.9423,3.73063 0.26458,0.26458 0.5027,0.52917 0.79375,0.84667 z m 10.74209,51.40853 c 0,-0.10584 0,-0.15875 0,-0.21167 0,-3.14854 0,-6.27062 0,-9.41917 0,-0.15875 -0.13229,-0.37041 -0.29104,-0.42333 -0.7673,-0.39687 -1.53459,-0.79375 -2.32834,-1.16417 -0.76729,-0.34395 -1.53458,-0.66145 -2.38125,-1.00541 0.10584,0.37041 0.15875,0.66146 0.26459,0.9525 0.74083,2.06375 1.48166,4.10104 2.24895,6.13833 0.52917,1.42875 1.13771,2.83104 1.66688,4.25979 0.15875,0.44979 0.44979,0.635 0.82021,0.89959 z M 96.469182,117.50222 c 0,0.0529 0,0.10583 -0.0265,0.15875 3.942288,2.93688 7.699378,6.05896 11.377088,9.39271 0.23812,-0.50271 0.42333,-0.92604 0.66145,-1.45521 -0.13229,-0.10583 -0.3175,-0.21167 -0.47625,-0.37042 -1.69333,-1.69333 -3.3602,-3.41312 -5.10645,-5.08 -1.11125,-1.05833 -2.3548,-2.01083 -3.545428,-2.98979 -0.15875,-0.13229 -0.44979,-0.29104 -0.635,-0.23812 -0.74083,0.15875 -1.48166,0.37041 -2.2225,0.58208 z m 11.509378,10.55688 c -0.0265,0 -0.0794,0 -0.10584,0 -0.58208,1.42875 -1.05833,2.8575 -0.82021,4.41854 0.29105,1.79916 0.58209,3.59833 0.97896,5.37104 0.74084,3.33375 1.56104,6.6675 2.32834,9.97479 0.1852,0.82021 0.37041,1.66687 0.55562,2.51354 0.0794,-0.0794 0.0794,-0.13229 0.0794,-0.21167 -0.3175,-2.69875 -0.635,-5.3975 -0.97896,-8.09625 -0.23813,-1.95791 -0.50271,-3.91583 -0.76729,-5.87375 -0.26459,-1.95791 -0.50271,-3.88937 -0.79375,-5.84729 -0.10584,-0.76729 -0.29105,-1.50812 -0.4498,-2.24895 z m 4.20687,1.61395 c 1.71979,0.23813 3.46604,0.68792 5.31813,0.71438 0,-0.84667 0,-1.64042 0,-2.40771 0,-0.42333 -0.15875,-0.66146 -0.52917,-0.79375 -0.92604,-0.29104 -1.87854,-0.60854 -2.80458,-0.89958 -0.635,-0.18521 -1.24355,-0.37042 -1.98438,-0.60854 v 3.96875 z m -13.017498,6.74688 c 0.0794,0.97896 0.44979,1.74625 0.978958,2.43416 3.59833,4.7625 7.11729,9.57792 10.37167,14.57855 0.0529,0.0794 0.13229,0.15874 0.1852,0.21165 0.0265,0 0.0794,0 0.10584,0 -0.0529,-0.79374 -0.0794,-1.58749 -0.15875,-2.35478 -0.0265,-0.29104 -0.21167,-0.58208 -0.39688,-0.79375 -0.84666,-1.00542 -1.74625,-1.98437 -2.54,-3.01625 -2.80458,-3.59833 -5.55625,-7.19667 -8.334378,-10.795 -0.0529,-0.0529 -0.10583,-0.10583 -0.21166,-0.23812 z m 9.789578,-4.97417 c 0.89959,-0.55562 1.77271,-1.08479 2.61938,-1.61396 0.0794,-0.0529 0.18521,-0.15875 0.18521,-0.26458 0.0529,-1.29646 0.0794,-2.59292 0.13229,-3.96875 -0.29104,0 -0.58208,-0.0265 -0.84667,0 -0.58208,0.10583 -1.13771,0.26458 -1.71979,0.34396 -0.50271,0.0529 -0.79375,0.23812 -0.9525,0.76729 -0.13229,0.44979 -0.26458,0.84667 -0.15875,1.34938 0.21167,0.8202 0.34396,1.66687 0.52917,2.48708 0.0529,0.29104 0.13229,0.58208 0.21166,0.89958 z M 99.511882,116.8143 c 0.1323,0.15875 0.18521,0.21167 0.23813,0.23813 1.719798,1.29646 3.280838,2.80458 4.788958,4.33917 1.37584,1.40229 2.80459,2.77812 4.23334,4.15395 0.0529,0.0529 0.13229,0.1323 0.1852,0.10584 0.52917,-0.10584 1.05834,-0.21167 1.69334,-0.3175 -0.58209,-0.52917 -1.08479,-1.00542 -1.5875,-1.45521 -2.35479,-2.16958 -4.63021,-4.445 -7.14375,-6.40292 -0.13229,-0.10583 -0.23813,-0.21166 -0.39688,-0.23812 -0.44979,-0.13229 -0.89958,-0.23813 -1.34937,-0.34396 -0.185218,-0.0265 -0.370418,-0.0265 -0.661468,-0.0794 z m 6.852718,39.52874 c 1.5875,2.01084 3.20146,4.10104 4.81541,6.16479 0,-1.00541 -0.0529,-1.98437 -0.10583,-2.96333 0,-0.0529 -0.0265,-0.13229 -0.0794,-0.15875 -0.52917,-0.66146 -1.05834,-1.29646 -1.5875,-1.95792 -0.635,-0.76729 -1.24355,-1.56104 -1.85209,-2.30187 -0.37041,0.39687 -0.74083,0.76729 -1.19062,1.21708 z m -0.44979,-1.27 c 0.29104,-0.23812 0.21166,-0.44979 0.0529,-0.68791 -0.9525,-1.42874 -1.93146,-2.83104 -2.88396,-4.25979 -0.47625,-0.71437 -0.47625,-1.56104 -0.68791,-2.35479 0,-0.0265 0,-0.0794 0,-0.10583 0,-0.0794 0,-0.15875 -0.0529,-0.21167 -0.76729,-1.19062 -1.56104,-2.38125 -2.32833,-3.54541 -0.476258,0.10583 -0.873128,0.21166 -1.270008,0.29104 0.21167,0.74083 6.058968,9.68374 7.170218,10.90082 z m -5.68855,-26.56415 c 2.24896,2.06375 4.41855,4.07458 6.69396,6.16479 -0.0794,-0.50271 -0.18521,-0.84667 -0.18521,-1.21709 0.0265,-1.05833 -0.34395,-1.79916 -1.27,-2.38125 -1.08479,-0.66145 -2.06375,-1.4552 -3.09562,-2.16958 -0.60854,-0.39687 -1.29646,-0.58208 -2.14313,-0.39687 z m -2.672288,2.27541 c 0.76729,-0.79375 1.45521,-1.50812 2.14312,-2.19604 0.10584,-0.13229 0.23813,-0.26458 0.370418,-0.3175 0.21167,-0.10583 0.23813,-0.21166 0.18521,-0.42333 -0.18521,-0.74083 -0.370418,-1.50813 -0.529168,-2.24896 -0.0529,-0.26458 -0.10583,-0.55562 -0.18521,-0.92604 -0.76729,0.68792 -1.53458,1.24354 -1.93146,2.11667 -0.10583,0.23812 -0.13229,0.5027 -0.13229,0.74083 0,0.76729 0,1.53458 0,2.27542 0,0.29104 0.0529,0.55562 0.10584,0.9525 z m 4.048128,-2.56645 c 1.87854,0.71437 3.33375,2.11666 4.97416,3.28083 0.0529,-0.47625 0.10584,-0.87313 0.1323,-1.16417 -1.56105,-1.61396 -3.06917,-3.20146 -4.81542,-4.57729 -0.10583,0.84667 -0.18521,1.61396 -0.29104,2.46063 z m 9.44562,23.15104 c 0.23813,5.37103 0.37042,10.71561 1.16417,16.00728 0.21167,-5.37104 -0.0794,-10.68917 -1.16417,-16.00728 z m -7.77875,-1.53459 c 0.97896,1.42875 1.93146,2.8575 2.93688,4.33916 0.0794,-0.76728 0.635,-1.00541 1.11125,-1.34937 -0.66146,-0.9525 -1.32292,-1.85208 -1.95792,-2.77812 -0.47625,-0.66146 -0.71437,-0.74083 -1.48167,-0.50271 -0.1852,0.0529 -0.37041,0.15875 -0.60854,0.26458 z m 5.74146,10.37166 c -0.0265,0 -0.0794,0 -0.10583,0.0265 -0.13229,0.635 -0.23813,1.24354 0.26458,1.82562 0.55563,0.66146 1.03188,1.40229 1.53458,2.11667 0.23813,0.3175 0.47625,0.66146 0.7673,1.05833 0,-0.3175 0,-0.50271 -0.0529,-0.71437 -0.0794,-0.47625 -0.0794,-1.05834 -0.3175,-1.42875 -0.635,-1.00542 -1.40229,-1.93146 -2.11667,-2.91042 z m 8.46667,-11.32416 v -2.8575 c -0.92604,0.74084 -1.79917,1.42875 -2.75167,2.19604 0.97896,0.23813 1.85208,0.42334 2.75167,0.635 z M 99.961682,124.61951 c -0.0529,0.0529 -0.0794,0.0794 -0.1323,0.13229 0.238128,1.00542 0.476258,2.0373 0.714378,3.04271 0.0529,0.23813 0.15875,0.34396 0.39688,0.34396 0.29104,0 0.3175,-0.15875 0.34396,-0.37042 0.0794,-0.71437 0.15875,-1.42875 0.23812,-2.14312 0,-0.0794 -0.0529,-0.21167 -0.10583,-0.26458 -0.47625,-0.26459 -0.97896,-0.50271 -1.481668,-0.74084 z m 8.387288,29.68624 c -0.23812,0.18521 -0.44979,0.3175 -0.66146,0.47625 1.11125,1.37583 2.19605,2.69875 3.25438,4.02167 0.0529,-0.0265 0.10583,-0.0529 0.15875,-0.0794 -0.13229,-0.3175 -0.18521,-0.66146 -0.37042,-0.92604 -0.635,-0.9525 -1.29646,-1.905 -1.93146,-2.8575 -0.13229,-0.21167 -0.29104,-0.39687 -0.44979,-0.60854 z M 100.9671,116.8143 c 0,-0.0264 0.0265,-0.0529 0.0529,-0.0794 -0.39687,-0.29104 -0.79375,-0.52917 -1.137708,-0.84667 -0.60854,-0.50271 -1.21708,-0.50271 -1.85208,-0.13229 -0.10584,0.0529 -0.21167,0.13229 -0.34396,0.18521 -0.39688,0.15875 -0.52917,0.47625 -0.44979,0.92604 1.24354,-0.39687 2.51354,-0.44979 3.757088,-0.0794 z m 6.56166,36.32729 c -0.66145,0.29105 -1.08479,0.66145 -1.03187,1.40229 0,0.21166 -0.15875,0.42333 -0.23813,0.635 -0.0794,0.21166 -0.13229,0.44979 -0.1852,0.68791 0.0529,0.0265 0.10583,0.0529 0.15875,0.10584 0.21166,-0.15875 0.44979,-0.29105 0.60854,-0.47625 0.42333,-0.47625 0.79375,-0.97896 1.24354,-1.50813 -0.15875,-0.21167 -0.34396,-0.5027 -0.55563,-0.79374 z m -4.9477,-6.0325 c 0.10583,-0.13229 0.21166,-0.26458 0.3175,-0.37041 -0.74084,-1.11125 -1.48167,-2.19604 -2.24896,-3.30729 -0.13229,0.10583 -0.26459,0.1852 -0.39688,0.29104 0.79375,1.16416 1.56104,2.27541 2.32834,3.41312 z m 0.55562,-0.10583 c -0.0529,0 -0.10583,0 -0.13229,0 -0.0794,0.37042 -0.26458,0.71438 -0.23813,1.05833 0.0529,0.4498 0.26459,0.89959 0.42334,1.34938 0.47625,-0.0794 0.47625,-0.10583 0.52916,-0.58208 0,-0.26459 0.0794,-0.52917 0.10584,-0.79375 0,-0.0529 0,-0.1323 -0.0265,-0.18521 -0.21167,-0.29104 -0.42333,-0.58209 -0.635,-0.84667 z m -4.444998,-3.22792 c 0.68791,0.0265 1.29645,-0.15875 1.772708,-0.71437 -0.10583,-0.15875 -0.18521,-0.3175 -0.29104,-0.44979 -1.349378,0.50271 -1.534588,0.68791 -1.481668,1.16416 z m -2.51355,-25.9027 c -0.13229,0.55562 -0.26458,1.03187 -0.39687,1.5875 0.52917,-0.26459 0.97896,-0.47625 1.45521,-0.68792 -0.37042,-0.29104 -0.68792,-0.58208 -1.08479,-0.87312 z m -3.22791,8.28146 c -0.0529,0 -0.10584,0 -0.15875,0 -0.10584,1.05833 -0.21167,2.0902 -0.3175,3.14854 0.0529,0 0.10583,0 0.13229,0 0.55562,-1.00542 0.23812,-2.09021 0.34396,-3.14854 z m 15.134168,32.99353 c -0.29104,0.47625 -0.15875,0.89958 0.42333,1.56104 0.13229,-0.58209 0.23813,-1.13771 -0.42333,-1.56104 z m -4.04813,-9.97479 c 0.18521,0 0.37042,-0.0265 0.635,-0.0529 -0.21166,-0.29104 -0.39687,-0.52917 -0.635,-0.87313 z"
       id="path8"
       style="fill:#ffffff;stroke-width:0.264583" />
  </g>
</svg>
