<?xml version="1.0" encoding="UTF-8" standalone="no"?>
<svg
   id="gemstone-bg"
   viewBox="0 0 876.43771 767.47073"
   version="1.1"
   width="876.43768"
   height="767.4707"
   xmlns="http://www.w3.org/2000/svg"
   xmlns:svg="http://www.w3.org/2000/svg">
  <defs
     id="defs1" />
  <path
     id="gall-svg-mask"
     style="display:inline;fill:#000000;fill-opacity:1;stroke:none"
     d="M 111.45421,1.9061821e-8 C 70.794327,1.9061821e-8 39.822754,11.399207 20.762811,34.119141 -14.517084,76.149015 -4.5951552,151.54996 48.684686,246.42969 c 52.479844,93.43971 141.240004,195.90028 249.929684,288.5 l 0.0996,0.0898 c 109.25967,89.58973 231.64986,163.27098 335.76953,202.13086 53.90985,20.11994 100.53947,30.32031 138.60938,30.32031 38.06988,0 67.05167,-10.50076 84.43164,-31.2207 34.9099,-41.5998 21.18944,-120.19104 -38.65038,-221.30074 -57.12985,-96.53969 -152.03119,-204.84995 -260.38086,-297.17969 -0.0937,-0.0361 -0.17017,-0.14192 -0.25,-0.20898 -3.8718,-3.1775 -8.45035,-6.8879 -12.33594,-10.01172 l 0.002,-0.002 C 440.0363,122.53575 329.4336,57.67645 233.02453,24.179688 186.55465,8.0397368 145.5941,1.9061821e-8 111.45421,1.9061821e-8 Z M 186.81164,58.871094 c 4.83173,-0.02145 9.78406,0.113203 14.85156,0.408203 0.59,0.02 1.17148,0.06133 1.77148,0.111328 8.16,0.519997 16.7591,1.458831 25.53907,2.798828 0.45,0.06 0.87078,0.120938 1.30078,0.210938 3.39997,0.519997 7.00875,1.139612 10.71875,1.849609 0.72,0.13 1.44971,0.259922 2.17969,0.419922 2.42999,0.469997 4.83992,0.96094 7.16992,1.460937 11.83997,2.539994 24.21128,5.779153 36.78125,9.619141 25.35992,7.759976 51.97967,18.100503 79.09961,30.73047 3.16997,1.47 6.53932,3.06979 10.02929,4.75976 20.91994,10.10997 42.2803,21.64889 63.49024,34.29883 0,0 1.60807,0.9873 2.02929,1.24024 -0.80903,-0.43023 -2.92056,-1.77972 -3.09765,-1.76563 l -0.004,0.002 c -17.33934,-5.86406 -41.74673,-10.86598 -69.14062,-10.7246 -21.04261,0.1086 -42.69249,3.03009 -63.34375,9.24804 -40.74238,12.26726 -76.06368,35.42998 -101.13282,66.07617 -27.90451,34.11237 -43.13229,74.96725 -42.7207,116.50586 0.23488,23.7041 4.65614,46.8229 13.74219,68.72071 2.67854,3.40091 5.23482,6.79502 8.0039,10.19922 -2.59932,-3.18526 -5.27646,-6.38763 -7.76953,-9.54102 h 0.004 c -0.0909,-0.21652 -0.14834,-0.44144 -0.23828,-0.6582 C 132.81448,339.91419 101.23597,285.52673 84.253045,235.69922 76.623069,213.30928 72.114602,192.3408 70.854608,173.38086 c -0.28,-4.23 -0.411094,-8.42141 -0.371094,-12.44141 0.01,-1.15 0.03055,-2.29971 0.06055,-3.42968 0.449997,-13.48997 2.749387,-25.94006 6.859375,-37 3.639988,-9.73997 8.719393,-18.54019 15.109375,-26.160161 3.259988,-3.879988 6.941407,-7.509306 10.941406,-10.779297 0.72998,-0.609997 1.41891,-1.159453 2.12891,-1.689453 19.52994,-14.997455 47.40631,-22.859648 81.22852,-23.009765 z m 182.1914,92.249996 c 67.96981,-1e-5 127.60982,53.84923 145.00977,130.95899 l 0.0898,0.39062 h 39.56055 c 4.29999,0 8.18039,-2.02078 10.65039,-5.55078 2.47,-3.51997 3.04984,-7.86039 1.58984,-11.90039 -6.76997,-18.65994 -16.9369,-36.653 -30.04687,-53.29297 l -0.0977,0.12305 c -14.63074,-11.41968 -42.79421,-32.01745 -43.29101,-32.38086 -0.6905,-0.47787 -1.4064,-0.93955 -2.09961,-1.41602 0.0932,0.0621 1.71875,1.13086 1.71875,1.13086 0,0 0.37648,0.28196 0.38086,0.28516 0.0407,0.0282 0.0843,0.0539 0.125,0.082 19.97993,13.88997 40.12185,29.05014 59.84179,45.08008 144.45958,123.76965 249.06993,280.92022 254.41993,382.16992 0.4,7.39997 0.24882,14.50891 -0.45118,21.12891 -0.15,1.53 -0.35007,3.07937 -0.58007,4.60937 -1.19484,8.22268 -3.37749,15.81468 -6.34571,22.71289 l 0.0371,0.16211 c -0.29,0.66 -0.0963,0.25235 -0.40625,0.90235 l -0.16015,0.41015 c -0.0733,0.20479 -0.20551,0.41177 -0.28125,0.61719 l -0.2129,0.50586 c -0.31249,0.8724 -0.84185,1.70596 -1.19726,2.57617 0.43801,-1.035 1.03167,-2.05551 1.41016,-3.08203 l 0.0762,-0.18359 c 0.08,-0.19 0.17023,-0.38079 0.24023,-0.55078 0.19354,-0.42792 0.30741,-0.92345 0.49414,-1.35743 l -0.11328,-0.49218 -307.9707,-307.3086 -0.0899,-0.0801 c -5.31997,-5.51998 -12.47065,-8.56054 -20.14062,-8.56054 -0.53,0 -1.05055,0.0188 -1.56055,0.0488 H 349.78429 l 0.0801,0.57031 c 1.88,13.26995 12.96847,23.49078 26.39844,24.30078 h 22.62109 c 4.15,-0.42 8.38008,-0.42 12.58008,0 12.36997,1.22 24.10042,5.98884 33.90039,13.79883 l 0.1582,0.11132 c 0.18,0.15 0.37055,0.29923 0.56055,0.44922 0.21,0.17 0.43086,0.34001 0.63086,0.5 4.55999,3.81 8.56994,8.23017 11.91992,13.16016 0.66,0.95 1.33024,1.98985 1.99024,3.08984 0.23999,0.4 0.47876,0.82024 0.71875,1.24024 l 0.1914,0.33984 c 0.19,0.37 0.39008,0.72008 0.58008,1.08008 l 0.0898,0.16992 0.20899,0.40039 c 0.96,1.81 1.91078,3.8393 2.80078,6.0293 1.28,3.21 2.27853,6.37969 2.97852,9.42969 0.49,2.08998 0.87086,4.2707 1.13086,6.4707 0.13,0.94 0.24031,1.94047 0.32031,2.98047 l 0.0195,0.33008 c 0.18,2.47998 0.22109,4.91031 0.12109,7.32031 -0.01,0.09 -0.0117,0.20859 -0.0117,0.30859 -0.06,1.46 -0.18867,3.01133 -0.38867,4.61133 v 0.13867 c -0.02,0.07 -0.0195,0.14063 -0.0195,0.14063 -0.11,0.87 -0.22109,1.72078 -0.37109,2.55078 -0.07,0.3 -0.12016,0.54859 -0.16016,0.80859 -0.16,1.02 -0.39008,2.05164 -0.58008,2.93164 -0.17,0.76999 -0.39922,1.79008 -0.69922,2.83008 -0.95998,3.36 -1.94031,6.08962 -3.07031,8.59961 -0.41,0.94 -0.85078,1.85852 -1.30078,2.72852 l -0.0586,0.13086 c -0.82,1.62998 -1.74985,3.28101 -2.83985,5.04101 -0.11195,0.16613 -0.15295,0.23202 -0.23047,0.34961 -1.53998,2.42 -3.19945,4.69 -4.93945,6.75 -1.23,1.49 -2.55189,2.92954 -3.92187,4.26953 -2.36999,2.31 -4.72899,4.32086 -7.20899,6.13086 -2,1.46 -4.05992,2.78899 -6.16992,3.95899 -21.18817,12.85704 -45.44298,19.80078 -69.58008,19.80078 -83.12975,0 -150.75,-78.81006 -150.75,-175.75977 0,-96.94971 67.96978,-175.83008 151.51953,-175.83008 z m 86.77344,4.22071 c 0.10739,0.0742 0.91338,0.54879 0.92773,0.56836 0.67226,0.42134 1.32019,0.88897 1.99219,1.3125 -1.01327,-0.6553 -1.94258,-1.25277 -2.91992,-1.88086 z M 185.87023,407.24219 c 6.53121,7.97446 13.28507,15.95298 20.30078,23.92578 0.72497,0.75959 1.92723,1.97896 2.69336,2.7793 -0.67597,-0.70638 -1.83077,-1.8464 -2.48047,-2.52735 -0.0738,-0.0838 -0.13914,-0.16814 -0.21289,-0.25195 -0.0572,-0.0599 -0.15597,-0.1591 -0.21289,-0.21875 -6.91708,-7.85941 -13.5885,-15.79761 -20.08789,-23.70703 z m 338.16406,46.59765 242.08985,239.43946 0.47851,0.54687 c 0.21541,-0.13768 0.4701,-0.23952 0.6836,-0.3789 0.83666,-0.51243 1.55402,-0.98788 2.34765,-1.45899 5.62006,-3.23711 10.40972,-7.06421 15.32617,-12.00195 0.67081,-0.72901 1.26223,-1.23981 1.97461,-2.07813 0.1115,-0.13048 0.20963,-0.28575 0.32032,-0.41797 -0.27597,0.33771 -0.48018,0.75452 -0.76172,1.08399 -0.51939,0.5416 -1.02066,0.89735 -1.53321,1.41211 -5.72167,6.21817 -10.29501,9.0154 -15.32617,12.00195 -0.52005,0.29954 -0.93724,0.67921 -1.47461,0.9707 l -0.0156,0.0117 c -0.26494,0.17764 -0.58947,0.30162 -0.85742,0.47657 -0.23444,0.14358 -0.41957,0.2597 -0.65821,0.4082 l -0.0254,-0.0293 c -14.6577,9.36856 -33.64072,14.86714 -56.61914,16.17383 -2.92,0.16 -5.78,0.26102 -8.5,0.29102 -0.88,0.01 -1.77018,0.0195 -2.66015,0.0195 v -0.0215 c -53.94822,0 -142.12294,-23.8164 -241.81055,-78.97851 -5.82,-3.22 -11.45977,-6.41047 -16.75977,-9.48047 -46.72987,-27.06985 -92.40035,-58.66072 -135.74023,-93.89063 -9.70193,-8.32778 -23.26317,-21.28126 -37.39258,-35.10156 -0.098,-0.0516 -0.20089,-0.0947 -0.29883,-0.14648 l 0.002,-0.002 c -1.86261,-1.82177 -3.66919,-3.69279 -5.54493,-5.54297 1.9983,1.97115 3.86885,3.76162 5.8418,5.69141 31.00036,16.33001 66.47624,25.05274 102.39258,25.05273 58.93982,0 115.23161,-23.34091 154.52148,-64.05078 z" />
</svg>
