<?xml version="1.0" encoding="UTF-8" standalone="no"?>
<svg
   id="Capa_1"
   viewBox="0 0 878.42038 769.46274"
   version="1.1"
   width="878.42041"
   height="769.46271"
   xmlns="http://www.w3.org/2000/svg"
   xmlns:svg="http://www.w3.org/2000/svg">
  <defs
     id="defs1">
    <style
       id="style1">
      .cls-1 {
        fill: none;
        stroke: #000;
        stroke-miterlimit: 10;
      }
    </style>
  </defs>
  <g
     id="g24"
     transform="translate(0.49934147,0.24268078)">
    <path
       class="cls-1"
       d="M 819.8,515.45 C 762.63,418.85 667.65,310.44 559.18,218.03 c 0,0 0,-0.01 0,-0.01 -0.01,-0.01 0,-0.01 -0.01,-0.01 l -0.07,-0.06 C 449.5,128.01 333.93,59.29 233.68,24.46 131.64,-10.98 56.08,-7.4 20.88,34.55 c -35.43,42.2 -25.53,117.81 27.86,212.88 52.5,93.49 141.3,196 250.04,288.63 l 0.07,0.06 0.02,0.02 c 109.31,89.63 231.75,163.34 335.93,202.23 54.22,20.23 101.07,30.35 138.79,30.35 37.72,0 67.26,-10.47 84.81,-31.4 35.06,-41.78 21.35,-120.57 -38.6,-221.87 z m -13.4,113.18 c -0.15,1.55 -0.35,3.07 -0.58,4.59 -1.26,8.66 -3.51,16.66 -6.8,23.94 -0.11,0.27 -0.24,0.55 -0.37,0.82 l -0.17,0.44 c -2.63,7.34 -6.53,14.06 -11.6,19.99 -5.1,5.97 -11.19,10.9 -18.1,14.64 l -0.41,0.24 c -14.9,9.99 -34.45,15.63 -57.93,16.96 -2.77,0.15 -5.6,0.25 -8.47,0.28 -0.88,0.01 -1.77,0.02 -2.66,0.02 -7,0 -14.32,-0.35 -21.93,-1.05 -1.53,-0.14 -3.08,-0.29 -4.66,-0.47 -6.44,-0.69 -13.09,-1.63 -19.93,-2.81 -12.57,-2.17 -25.77,-5.15 -39.57,-8.96 -13,-3.57 -26.53,-7.87 -40.51,-12.9 -13.75,-4.94 -27.69,-10.48 -41.77,-16.58 -0.36,-0.15 -0.72,-0.31 -1.09,-0.48 -23.8,-10.35 -47.95,-22.3 -72.12,-35.68 -5.58,-3.08 -11.17,-6.24 -16.75,-9.48 C 394.79,595.38 348.8,563.65 305.31,528.3 280.76,507.22 233.24,459.09 207.23,431.82 148.13,364.72 105.94,297.1 85.21,236.28 77.55,213.79 73.09,192.97 71.84,174.09 c -0.28,-4.24 -0.41,-8.37 -0.37,-12.4 0.01,-1.15 0.03,-2.29 0.06,-3.42 0.45,-13.48 2.73,-25.79 6.83,-36.84 3.61,-9.67 8.62,-18.37 15.03,-26.01 3.27,-3.9 6.9,-7.47 10.88,-10.72 0.69,-0.58 1.39,-1.14 2.11,-1.67 22.41,-17.21 55.18,-24.86 95.75,-22.5 0.59,0.02 1.17,0.06 1.76,0.11 8.2,0.52 16.7,1.45 25.51,2.8 0.43,0.06 0.85,0.12 1.28,0.2 3.52,0.54 7.09,1.16 10.72,1.85 0.72,0.13 1.44,0.26 2.17,0.42 2.36,0.46 4.76,0.94 7.16,1.46 11.92,2.56 24.2,5.77 36.74,9.61 25.41,7.77 51.95,18.09 79.04,30.71 3.33,1.54 6.68,3.14 10.03,4.76 20.95,10.13 42.18,21.59 63.45,34.28 5.65,3.37 11.3,6.82 16.95,10.36 11.98,7.51 23.96,15.38 35.87,23.62 19.99,13.89 40.11,29.05 59.81,45.05 147.62,126.49 249.02,283 254.23,381.81 0.4,7.36 0.25,14.39 -0.45,21.06 z"
       id="path3" />
    <g
       id="g13">
      <g
         id="g12">
        <g
           id="g10">
          <path
             class="cls-1"
             d="m 808.93,629.42 c -0.15,1.55 -0.35,3.08 -0.58,4.59 -1.26,8.66 -3.51,16.67 -6.8,23.95 -0.11,0.27 -0.24,0.55 -0.37,0.82 l -0.17,0.44 c -2.63,7.34 -6.54,14.07 -11.6,20 -5.11,5.97 -11.2,10.9 -18.11,14.65 l -0.41,0.24 c -14.9,9.99 -34.46,15.63 -57.95,16.96 -2.77,0.15 -5.6,0.25 -8.48,0.28 -0.88,0.01 -1.77,0.02 -2.66,0.02 -7,0 -14.32,-0.35 -21.94,-1.05 -1.53,-0.14 -3.09,-0.29 -4.66,-0.47 -6.45,-0.69 -13.09,-1.63 -19.94,-2.81 -12.58,-2.17 -25.78,-5.16 -39.59,-8.96 -13,-3.57 -26.53,-7.88 -40.52,-12.9 -13.75,-4.94 -27.7,-10.49 -41.78,-16.59 -0.36,-0.15 -0.72,-0.31 -1.09,-0.48 -23.8,-10.35 -47.96,-22.31 -72.14,-35.69 -5.58,-3.09 -11.18,-6.24 -16.76,-9.48 l -28.72,-33.62 -15.13,-34.26 51.38,1.68 41.82,22.6 26.04,0.66 31.09,28.25 -53.95,-131.16 -6.14,-31.64 5.27,-58.51 64.72,49.39 1.24,0.94 46.97,128.21 5.76,-74.69 75.48,-92.21 0.93,1.44 v 0 c 0,0 62.4,96.94 62.4,96.94 l -31.37,99.35 61.64,-29.47 -10.06,58.55 23.27,-15.51 13.35,-1.53 c 0.4,7.36 0.25,14.39 -0.45,21.06 z"
             id="path4" />
          <polyline
             class="cls-1"
             points="808.36 634.01 767.34 644.18 783.09 632.87 808.93 629.42"
             id="polyline4" />
          <polyline
             class="cls-1"
             points="772.77 625.4 767.34 644.18 765.48 646.17 704.47 711.35"
             id="polyline5" />
          <line
             class="cls-1"
             x1="801.54999"
             y1="657.96002"
             x2="712.95001"
             y2="711.07001"
             id="line5" />
          <path
             class="cls-1"
             d="m 765.48,646.17 -85.6,64.15 c -1.53,-0.14 -3.09,-0.29 -4.66,-0.47 l 73.5,-93.97 16.76,30.28 z"
             id="path5" />
          <path
             class="cls-1"
             d="m 655.28,707.05 c -0.48,-3.2 0.24,-6.08 1.16,-8.26 l 0.02,-0.04 v 0 c 0.27,-0.66 0.57,-1.25 0.85,-1.77 l 0.04,-0.08 c 0.77,-1.4 1.45,-2.21 1.45,-2.21 l 47.12,-80.8 42.8,2.01 34.11,-49.04"
             id="path6" />
          <polyline
             class="cls-1"
             points="782.83 566.85 705.92 613.88 656.44 698.78 698.42 612.27 721.19 596.32"
             id="polyline6" />
          <polyline
             class="cls-1"
             points="698.42 612.27 752.56 496.98 703.56 463.6 646.12 517.41 613.75 490.8"
             id="polyline7" />
          <line
             class="cls-1"
             x1="690.15997"
             y1="400.04001"
             x2="703.56"
             y2="463.60001"
             id="line7" />
          <polyline
             class="cls-1"
             points="615.69 698.08 635.77 657.7 666.91 568.71 646.13 517.41 694.25 459.46 689.23 398.59"
             id="polyline8" />
          <line
             class="cls-1"
             x1="573.56"
             y1="615.90002"
             x2="533.39001"
             y2="668.59003"
             id="line8" />
          <polyline
             class="cls-1"
             points="532.31 668.12 536.11 632.46 556.43 597.53 559.16 585.88 571.15 612.99 635.77 657.7 602.12 612.28 606.74 575.42 607.99 565.49"
             id="polyline9" />
          <polyline
             class="cls-1"
             points="553.06 603.3 495.94 477.09 515.97 426.66 495.06 386.94 523.59 431.47 547.99 436.69 550.71 437.27 559.78 436.34"
             id="polyline10" />
          <line
             class="cls-1"
             x1="606.75"
             y1="575.41998"
             x2="550.71002"
             y2="437.26999"
             id="line10" />
        </g>
        <polyline
           class="cls-1"
           points="460.16 632.43 449.9 603.31 434.52 584.1 399.55 555.07 434.69 578.68 484.45 591.96 450.94 556.74 488.62 588.88 507.01 591.89 511.65 591.69 540.66 624.21"
           id="polyline11" />
        <line
           class="cls-1"
           x1="534.73999"
           y1="644.59998"
           x2="449.89999"
           y2="603.29999"
           id="line11" />
        <line
           class="cls-1"
           x1="783.09003"
           y1="632.88"
           x2="796.03998"
           y2="609.89001"
           id="line12" />
      </g>
      <polyline
         class="cls-1"
         points="602.13 612.27 559.17 585.88 515.97 426.66"
         id="polyline12" />
    </g>
    <g
       id="g23">
      <g
         id="g22">
        <g
           id="g20">
          <path
             class="cls-1"
             d="m 384.16,200.89 -31.1,-28.25 53.95,131.16 6.15,31.64 -5.28,58.51 -65.96,-50.35 -46.96,-128.21 -5.77,74.7 -75.48,92.21 -0.93,-1.45 -62.4,-96.94 31.37,-99.34 -61.64,29.47 10.07,-58.56 -23.28,15.51 -32.78,3.76 c -0.28,-4.24 -0.41,-8.37 -0.37,-12.4 0.01,-1.15 0.03,-2.29 0.06,-3.42 0.45,-13.48 2.73,-25.8 6.83,-36.86 l 25.91,-36.74 c 0.69,-0.58 1.39,-1.14 2.11,-1.67 22.41,-17.22 55.2,-24.87 95.78,-22.5 0.59,0.02 1.17,0.06 1.76,0.11 8.2,0.52 16.71,1.45 25.52,2.8 0.43,0.06 0.85,0.12 1.28,0.2 3.52,0.54 7.1,1.16 10.72,1.85 0.44,0.43 0.85,0.87 1.27,1.34 0,0 0.29,-0.36 0.9,-0.92 2.37,0.46 4.76,0.94 7.17,1.46 11.93,2.56 24.21,5.78 36.76,9.61 25.42,7.78 51.97,18.1 79.06,30.72 l 1.98,2.23 8.05,2.53 c 20.96,10.13 42.2,21.6 63.47,34.29 5.65,3.37 11.31,6.82 16.95,10.36 l 28.91,33.83 15.13,34.25 -51.38,-1.68 -41.82,-22.59 -26.04,-0.66 z"
             id="path13" />
          <polyline
             class="cls-1"
             points="108.68 83.65 95.9 126.21 82.55 149.85"
             id="polyline13" />
          <polyline
             class="cls-1"
             points="73.83 158.91 82.55 149.85 135.6 136.69 119.85 148 85.25 152.64 73.77 162.34"
             id="polyline14" />
          <polyline
             class="cls-1"
             points="130.18 155.47 135.6 136.69 137.47 134.71 206.22 61.25"
             id="polyline15" />
          <line
             class="cls-1"
             x1="204.47"
             y1="61.139999"
             x2="95.900002"
             y2="126.21"
             id="line15" />
          <path
             class="cls-1"
             d="m 233.02,64.26 -78.79,100.73 -16.76,-30.28 94.27,-70.65 c 0.43,0.06 0.85,0.12 1.28,0.2 z"
             id="path15" />
          <path
             class="cls-1"
             d="m 120.12,214.03 34.11,-49.04 42.79,2.02 47.12,-80.81 c 0,0 7.65,-9.22 0.86,-18.75"
             id="path16" />
          <polyline
             class="cls-1"
             points="120.12 214.03 197.02 167 246.5 82.1 204.52 168.61 181.75 184.56"
             id="polyline16" />
          <polyline
             class="cls-1"
             points="204.52 168.61 150.39 283.9 199.38 317.29 256.82 263.47 289.2 290.08"
             id="polyline17" />
          <line
             class="cls-1"
             x1="212.78"
             y1="380.84"
             x2="199.38"
             y2="317.29001"
             id="line17" />
          <polyline
             class="cls-1"
             points="289.83 77.6 267.18 123.18 236.03 212.18 256.82 263.47 208.7 321.42 213.71 382.29"
             id="polyline18" />
          <polyline
             class="cls-1"
             points="294.96 215.39 300.82 168.61 267.17 123.18 331.8 167.89 343.78 195.01 346.51 183.36 366.83 148.42 370.88 110.55 329.39 164.98"
             id="polyline19" />
          <polyline
             class="cls-1"
             points="349.89 177.58 407.01 303.8 386.98 354.22 407.88 393.94 379.36 349.41 354.95 344.19 352.23 343.61 343.16 344.55"
             id="polyline20" />
          <line
             class="cls-1"
             x1="296.20001"
             y1="205.46001"
             x2="352.23001"
             y2="343.60999"
             id="line20" />
        </g>
        <polyline
           class="cls-1"
           points="442.4 147.36 453.05 177.58 468.43 196.78 503.4 225.81 468.25 202.2 418.49 188.93 452.01 224.13 414.33 192 395.93 188.99 391.3 189.19 362.29 156.68"
           id="polyline21" />
        <line
           class="cls-1"
           x1="368.20999"
           y1="136.28"
           x2="453.04999"
           y2="177.58"
           id="line21" />
        <line
           class="cls-1"
           x1="119.85"
           y1="148.00999"
           x2="106.91"
           y2="170.99001"
           id="line22" />
      </g>
      <polyline
         class="cls-1"
         points="300.82 168.61 343.78 195.01 386.98 354.22"
         id="polyline22" />
    </g>
  </g>
</svg>
