<svg
   id="gemstone-bg"
   viewBox="0 0 878.42038 769.46274"
   version="1.1"
   width="878.42041"
   height="769.46271">
  <path
     id="gemstone-bg-path"
     d="m 116.6289,0.0390625 c -4.77375,-0.088948 -9.42028,-0.0266433 -13.9375,0.1875 C 66.553665,1.9397088 38.704792,13.366159 20.996093,34.470703 3.1718263,55.700849 -3.2262056,85.317271 1.5058594,121.4707 6.2379244,157.62413 22.088492,200.34523 48.804687,247.91797 101.34604,341.4816 190.17897,444.02283 298.95508,536.68359 v -0.002 l 0.0547,0.0469 0.0234,0.0254 0.0195,0.0156 c 109.34741,89.66068 231.8188,163.39313 336.07227,202.31055 54.2571,20.24385 101.15549,30.38281 138.96484,30.38281 37.81245,0 67.51866,-10.50135 85.19336,-31.58008 17.65008,-21.03309 22.99186,-51.34931 16.4375,-89.02148 C 869.1663,611.18912 850.72579,566.12188 820.73042,515.43746 763.53857,418.80056 668.56945,310.4028 560.10542,217.98043 l -0.0723,-0.0723 c 0.009,0.009 0.0191,0.023 0.0293,0.0352 -0.02,-0.0171 -0.0386,-0.0357 -0.0586,-0.0527 l 0.006,0.0117 c -0.0121,-0.0147 -0.023,-0.0275 -0.0293,-0.0352 l 0.0156,0.006 -0.0371,-0.0312 -0.0371,-0.0332 -0.004,-0.002 C 450.28154,127.83671 334.67361,59.088215 234.34375,24.230469 189.66541,8.7130213 150.04519,0.66169871 116.6289,0.0390625 Z m -0.0176,1 c 33.27024,0.6215361 72.79785,8.642275 117.40432,24.1347655 100.13836,34.791211 215.63157,103.454012 325.16407,193.322262 v 0.008 l 0.17578,0.14843 c 108.43252,92.37807 203.3839,200.7629 260.51367,297.29492 29.95451,50.61538 48.34406,95.59326 54.86719,133.08594 6.52312,37.49267 1.1911,67.46021 -16.21875,88.20703 -17.42524,20.78119 -46.80034,31.22266 -84.42774,31.22266 -37.63049,0 -84.43256,-10.10228 -138.61523,-30.31836 C 531.37329,699.28372 408.97145,625.60118 299.70312,536.00781 l -0.0137,-0.0137 -0.084,-0.0723 h -0.002 C 190.90015,443.32308 102.13422,340.84372 49.675781,247.42773 23.002083,199.93066 7.205963,157.31072 2.4980469,121.3418 -2.2098693,85.372868 4.1580098,56.083051 21.763671,35.113281 39.254902,14.267908 66.786164,2.9289562 102.73828,1.2246094 107.2323,1.011566 111.85844,0.95027163 116.61133,1.0390625 Z m 71.17385,58.8164065 c -33.83118,0.118243 -61.47922,7.871478 -81.20117,23.013672 -0.002,0.0014 -0.004,0.0025 -0.006,0.0039 l -0.002,0.002 c -0.72803,0.536237 -1.43329,1.10052 -2.12695,1.683594 -4.00189,3.268309 -7.65206,6.860129 -10.941408,10.783203 -6.447187,7.684602 -11.488736,16.436832 -15.117187,26.156252 -4.121092,11.10683 -6.407836,23.47193 -6.859375,36.99804 l -0.002,0.002 c -0.03008,1.13301 -0.04857,2.27675 -0.05859,3.42968 -0.04014,4.04413 0.09036,8.18636 0.371093,12.4375 1.253576,18.93401 5.72328,39.79533 13.394532,62.31836 20.760285,60.90884 62.987145,128.57266 122.119145,195.70899 l 0.006,0.008 0.008,0.008 c 26.01707,27.27742 73.52185,75.39642 98.11523,96.51367 l 0.006,0.006 0.004,0.004 c 43.51016,35.36638 89.52068,67.11104 135.73437,93.88477 5.58331,3.24191 11.1768,6.40469 16.75977,9.48632 v -0.002 c 24.18306,13.38723 48.34652,25.34439 72.16211,35.70117 0.36813,0.16905 0.72983,0.32954 1.0918,0.48047 14.0891,6.10394 28.0381,11.64794 41.79882,16.5918 7.10618,2.55679 14.09104,4.9155 20.95508,7.0957 7.48882,2.417 14.86213,4.66333 22.04102,6.63477 13.82386,3.80381 27.04061,6.79759 39.63867,8.9707 6.55714,1.12955 12.9108,2.02515 19.10352,2.70703 l -0.004,0.004 0.56641,0.0664 c 0.0989,0.0107 0.20199,0.0265 0.30078,0.0371 1.576,0.18068 3.14031,0.33057 4.67187,0.47071 0.0286,0.003 0.0554,0.003 0.084,0.006 l 0.12695,0.0117 0.004,-0.002 c 7.55518,0.6879 14.82199,1.03516 21.77148,1.03516 0.89375,0 1.78402,-0.01 2.66406,-0.0195 2.88816,-0.0301 5.72558,-0.13091 8.50196,-0.28125 h 0.002 c 16.79634,-0.95101 31.16178,-5.15786 43.46875,-11.10547 0.0591,-0.0268 0.11677,-0.0551 0.17578,-0.082 3.75192,-1.8212 7.3011,-3.80638 10.66992,-5.91602 0.42194,-0.2712 0.92499,-0.46427 1.33985,-0.74219 l 0.0254,-0.0156 0.36914,-0.21485 c 3.92518,-2.12448 7.509,-4.72386 10.8789,-7.58398 1.95272,-1.58043 3.89394,-3.3365 5.91797,-5.70117 0.0845,-0.0991 0.15999,-0.2016 0.24414,-0.30078 0.37588,-0.41756 0.83537,-0.74172 1.20117,-1.16993 0.65806,-0.76967 1.12535,-1.66122 1.74414,-2.45703 1.41763,-1.82263 2.75543,-3.68794 3.98243,-5.61718 0.65136,-1.05315 1.26049,-2.12186 1.84961,-3.21094 1.0938,-1.99925 2.08963,-4.0649 2.90625,-6.25586 0.36242,-0.88551 0.88081,-1.68931 1.20507,-2.59375 l 0.004,-0.0117 0.16602,-0.42773 c 0.12402,-0.25845 0.24964,-0.52695 0.35937,-0.79493 l 0.006,-0.0137 c 3.30761,-7.32263 5.5668,-15.36291 6.83203,-24.05664 v -0.004 c 0.23072,-1.5251 0.43303,-3.05337 0.58399,-4.61329 l -0.002,0.004 c 0.0877,-0.8361 0.0896,-1.72706 0.16016,-2.57422 1.02759,-6.87247 0.66061,-12.39418 0.49414,-18.76562 l -0.0156,-0.61133 -0.26757,0.0605 C 804.93248,557.57643 778.32244,494.01721 734.05664,427.01172 689.57348,359.67721 627.28959,288.89741 553.44531,225.62305 l -0.006,-0.004 -0.004,-0.006 c -19.70907,-16.00732 -39.83899,-31.17473 -59.83985,-45.07227 h -0.002 c -11.91649,-8.24449 -23.90261,-16.11901 -35.88867,-23.63281 -4.67209,-2.92729 -9.34379,-5.75669 -14.01563,-8.5664 l -0.31836,-0.90625 -0.73828,0.25976 c -0.62878,-0.37703 -1.25793,-0.7773 -1.88672,-1.15234 -21.28188,-12.69712 -42.52445,-24.16409 -63.48828,-34.30078 -3.35145,-1.6207 -6.70331,-3.22193 -10.03711,-4.76368 C 340.11265,94.850102 313.55189,84.521797 288.11719,76.744141 h -0.002 c -12.55212,-3.843661 -24.84494,-7.058008 -36.77929,-9.621094 -2.40128,-0.520276 -4.80027,-0.999349 -7.15821,-1.458984 l -0.0117,-0.002 c -0.73581,-0.160976 -1.45753,-0.292898 -2.17187,-0.421875 h -0.006 c -3.62786,-0.689532 -7.197,-1.309432 -10.7168,-1.84961 l -0.0156,-0.002 c -0.43771,-0.081 -0.86121,-0.141743 -1.28711,-0.201172 -8.81741,-1.350914 -17.32669,-2.281771 -25.53711,-2.802734 -0.59122,-0.0501 -1.17606,-0.09081 -1.77344,-0.111328 h -0.0117 c -5.0768,-0.295089 -10.03148,-0.434849 -14.86133,-0.417969 z m 0.31055,1.626953 c 4.26143,-0.0142 8.65965,0.139227 13.11719,0.369141 L 95.25,125.35937 107.60937,84.199219 c 19.48631,-14.91062 46.87587,-22.604787 80.48633,-22.716797 z m 14.96289,0.427734 c 0.18406,0.0072 0.36918,0.02456 0.55274,0.03516 l -67.97657,72.632804 -0.3125,0.23438 0.0332,0.0606 -1.51953,1.60937 -51.7793,12.8457 12.716797,-22.51757 z m 1.8418,0.121094 c 7.73525,0.49736 15.76328,1.380778 24.04492,2.617188 l -88.72266,66.492182 z m 25.45703,2.808594 c 0.0797,0.01134 0.15745,0.02545 0.23633,0.03711 L 152.80078,164.32812 136.61914,135.0918 Z m 1.36523,0.216797 c 3.36754,0.520545 6.7883,1.111819 10.24805,1.769531 0.39098,0.387634 0.76419,0.781176 1.14649,1.208984 l 0.0312,0.03516 c 3.23396,4.59939 3.01665,9.052229 1.99023,12.425781 -0.20087,0.660207 -0.44642,1.234456 -0.68945,1.798828 l -49.21289,84.443355 -41.51563,-1.96094 z m 11.27344,1.396484 c 0.28485,0.05471 0.57014,0.104597 0.85547,0.166016 -0.11802,0.119706 -0.2547,0.254214 -0.35351,0.363281 -0.16447,-0.179076 -0.33541,-0.352471 -0.50196,-0.529297 z m 1.5586,0.873047 c 2.28325,0.444317 4.58226,0.90412 6.90039,1.404297 11.73383,2.517906 23.81503,5.689524 36.15429,9.439453 l -22.12109,44.517578 -2.01758,-1.39453 1.64649,2.22461 -31.1211,88.91797 20.73242,51.14648 -56.89843,53.31055 -48.30664,-32.92383 53.89062,-114.78125 0.0254,-0.0527 0.0332,-0.0703 41.28321,-85.076169 c 0.18657,-0.357348 0.36048,-0.702595 0.54492,-1.121093 l 0.14844,-0.306641 -0.0274,-0.01367 c 0.23458,-0.557522 0.47512,-1.113065 0.67188,-1.759765 1.06783,-3.509683 1.26649,-8.248703 -1.96485,-13.027344 0.12291,-0.1285 0.19636,-0.208961 0.42579,-0.433594 z m 44.02539,11.136719 c 25.24435,7.749235 51.60111,17.995961 78.49804,30.521479 l 1.64258,1.84961 -41.22851,54.08594 0.79492,0.60547 40.40429,-53.00586 -3.84765,35.98438 -13.61133,23.40429 -0.97852,-0.88867 0.61915,1.50781 -6.33204,10.88867 -2.33789,9.97266 -0.27343,-0.16797 -11.22852,-25.41992 -64.38281,-44.53711 z m -182.33399,6.798828 -12.30859,40.994141 -13.291016,23.53515 -7.744141,8.04493 c 0.55324,-12.8751 2.763788,-24.68621 6.691407,-35.29883 l 25.82422,-36.619141 c 0.27179,-0.227959 0.55308,-0.4354 0.82812,-0.65625 z m -2.46094,1.234375 -23.763666,33.699216 c 3.534198,-8.94721 8.253945,-17.06199 14.251953,-24.210935 2.876905,-3.43117 6.080013,-6.563419 9.511713,-9.488281 z m 134.87696,7.759766 -36.03516,74.26172 -22.66406,15.875 0.002,0.002 -52.83984,25.26172 68.51172,-41.89844 0.16211,0.008 z m 130.01172,15.01953 c 0.30137,0.14099 0.60461,0.28787 0.90625,0.42969 l -0.24219,0.31836 z m 1.30664,0.61914 c 1.20014,0.56546 2.40046,1.13496 3.60351,1.71094 l -3.66406,-1.15039 z m -0.16992,1.57422 7.40625,2.32617 c 20.93844,10.12048 42.15607,21.57769 63.40625,34.25586 0.80931,0.48273 1.61806,0.99828 2.42773,1.48438 l 9.62305,27.30468 -83.74414,-40.76758 -0.43946,0.9004 84.74024,41.25 15.34179,19.15234 27.41602,22.75976 -27.0293,-18.15429 -51.55468,-13.74805 28.10937,29.51758 -30.46484,-25.97852 -18.58985,-3.04101 -4.44336,0.1914 -28.85351,-32.33203 -0.7461,0.66602 29.16797,32.68555 4.81641,-0.20704 18.21094,2.97852 36.58203,31.19336 -0.56836,-0.0195 -41.82227,-22.5918 -25.94336,-0.65625 -30.86914,-28.04297 13.82617,-23.77344 z m -103.97266,13.01953 32.96094,44.5 -5.57813,44.53711 -0.082,-0.22461 -5.87305,76.01758 -31.52929,-25.91211 -20.67188,-50.99609 z m 2.0332,1.06641 62.0293,42.9082 10.52734,23.83398 -38.8457,-23.87109 -0.52344,0.85156 40.08203,24.63086 1.28516,2.91211 0.43555,-1.85351 0.98828,0.60742 42.29297,155.86523 -1.21289,3.05274 15.55078,29.55273 -22.3125,-34.83789 -24.61328,-5.26367 -2.46094,-0.52344 -55.87695,-137.77734 4.625,-36.92774 z m -132.00586,10.23828 0.0898,0.16406 -0.32032,0.0801 z m 0.19336,0.34961 16.08203,29.05859 -32.65625,46.95117 9.6875,-56.33984 5.36133,-18.57422 z m -4.36523,1.90234 -13.53321,9.71875 -34.621088,4.64258 -10.769531,9.09961 c 0.01044,-0.71248 0.01905,-1.42604 0.03711,-2.13086 l 8.503906,-8.83203 z m 1.52539,0.13672 -4.97266,17.22852 -18.16992,12.10742 10.70898,-19.01953 -0.87109,-0.49024 -11.67383,20.73242 -3.01758,2.00977 -32.119135,3.68359 c -0.251434,-3.9622 -0.378491,-7.83249 -0.347656,-11.60742 l 11.205078,-9.46875 34.580073,-4.63672 z m 311.18359,12.17969 c 4.36891,2.63273 8.74153,5.27105 13.09961,8.00586 l 28.81055,33.71484 13.06055,29.56445 -30.08399,-24.97656 -15.29492,-19.09375 z m -316.41211,6.42187 -10.03711,58.36719 61.47266,-29.39063 -31.02344,98.24415 -0.14648,0.31054 0.23828,0.16211 62.36523,96.88672 1.30078,2.0293 76.01563,-92.86524 5.60547,-72.5625 L 340,344.15039 l 66.79687,50.98828 5.36719,-59.48242 -6.13476,-31.56836 0.0234,-0.0586 -0.0605,-0.13086 -53.12696,-129.15625 29.45899,26.75976 0.30468,-0.79101 -0.0117,0.92187 h 0.0137 l 25.90625,0.65625 41.81836,22.58985 52.29297,1.70898 -0.48633,-1.10156 1.45898,0.98047 0.59766,-0.79883 -0.0391,-0.0312 -3.08204,-2.5586 -13.92968,-31.53515 -27.4336,-32.10156 c 11.11848,7.01785 22.23764,14.27453 33.29102,21.92187 19.97907,13.88241 40.08868,29.03497 59.7793,45.02734 73.77125,63.2133 135.99377,133.92956 180.41601,201.17188 44.25635,66.99118 70.80076,130.52565 73.56836,179.69726 l -10.4707,2.39454 -22.37891,14.91796 10.02735,-58.35742 -61.47461,29.39063 30.95703,-98.03516 0.24414,-0.52148 -0.2793,-0.19141 -62.35351,-96.86719 -1.30274,-2.01562 -76.01367,92.86328 -5.5957,72.55078 -46.22852,-126.18555 -1.35742,-1.02929 -65.43945,-49.93946 -5.35743,59.48438 6.13477,31.61719 -0.004,0.01 0.01,0.0234 0.0215,0.10742 53.12696,129.1543 -29.58594,-26.88477 -26.10547,-0.66015 -41.58984,-22.47657 -0.01,-0.008 -0.002,0.002 -0.2168,-0.11718 -52.29297,-1.70899 15.48047,35.05469 27.84961,32.60156 c -0.28379,-0.16434 -0.56782,-0.31766 -0.85156,-0.48242 -46.16269,-26.74417 -92.12891,-58.4568 -135.59571,-93.78711 l -0.002,-0.002 c -0.003,-0.002 -0.005,-0.004 -0.008,-0.006 -24.5049,-21.0428 -72.01675,-69.15997 -98.01953,-96.42188 l -0.01,-0.0117 -0.004,-0.004 C 149.03151,364.65948 106.8816,297.08747 86.183593,236.36133 78.687802,214.35345 74.309875,193.983 72.96289,175.45703 l 32.61328,-3.74219 1.58203,-1.05273 -0.18359,0.32422 0.87109,0.49023 1.14844,-2.03906 z m 24.99219,8.96094 40.87305,1.92969 -73.46485,44.92968 z m 48.78906,4.59375 -50.16406,106.83984 29.07227,-92.0664 z m 149.58203,3.35352 42.75586,103.94726 -45.16601,-99.80469 z m -3.02734,5.20507 56.64063,125.15821 -18.20899,45.83593 -42.04687,-154.96093 -1.60938,-0.99024 2.37891,-10.15039 z m 72.25,11.2168 47.96484,12.79102 32.06836,21.53906 0.48243,1.09375 -48.28516,-1.57813 z m -125.61523,17.56445 55.05664,135.7461 -8.20703,0.84961 -0.97071,-0.74024 -46.86719,-127.95703 z m 264.21484,10.57618 c 0,2e-4 0.002,0.0291 0.004,0.0527 -5.5e-4,-0.002 -0.004,-0.0137 -0.004,-0.0137 10e-6,1.2e-4 0,-0.0392 0,-0.0391 z m -303.78906,46.16015 31.60937,25.97656 -74.38867,90.87305 -4.89258,-59.43945 z m -5.5586,5.12891 -43.14257,51.95703 4.77343,58.00195 -13.03125,-61.79687 z m -99.21289,16.3789 46.81641,31.91016 12.80273,60.71094 z m 254.73047,19.88868 5.81055,29.89648 -5.11914,56.74805 -20.00781,-38.02149 0.54882,-1.38476 0.41993,1.54492 0.96484,-0.26172 -0.76758,-2.83203 z m -54.64258,38.54687 2.64258,0.56445 24.20508,5.17579 26.89258,41.98632 -61.47461,-46.92578 z m 145.1836,44.52149 20.0332,38.05273 -19.33594,48.68359 -5.8125,-29.94922 z m 1.64258,0.45117 61.43554,46.88281 -7.72851,0.79297 -2.64258,-0.5625 -24.19531,-5.17578 z m 3.93359,7.99218 22.31836,34.83594 24.60351,5.26367 2.46094,0.52344 55.88477,137.76367 -4.50782,35.96485 -42.12109,-25.87305 -43.10547,-158.86914 0.0234,-0.0586 z m 187.74219,2.90625 1.14453,60.01758 -43.85742,56.6543 -31.55664,-25.94141 z m 1.00586,0.35352 13.30078,63.08789 -52.94141,49.59375 40.78711,-52.68555 z m 1.5,2.26758 59.58398,92.56445 -46.78711,-31.87109 z m -175.33008,25.63086 42.76758,157.6289 -2.6875,11.47657 -2.83985,4.88086 -56.63867,-125.14649 z m 43.74804,8.62109 0.95118,0.7207 46.89453,128.00391 -0.98828,7.85547 -55.0625,-135.74023 z m 143.98047,27.37891 48.31641,32.91406 -53.95898,114.9043 h 0.002 l -41.04492,84.58203 c -0.005,0.008 -0.007,0.0113 -0.0117,0.0195 l -0.006,0.01 -0.043,0.0879 c -0.11526,0.21426 -0.23415,0.49579 -0.35352,0.73632 l -0.50195,1.03516 -0.0176,0.0352 0.004,0.002 -0.008,0.0156 -0.008,0.0156 c -0.83476,1.97803 -1.51214,4.53074 -1.3164,7.38477 -0.61035,-0.10197 -1.17368,-0.14613 -1.78711,-0.25196 -7.38954,-1.27567 -15.0655,-2.92088 -22.88672,-4.76172 l 17.81641,-82.1582 4.31445,-57.07617 -5.39258,-44.20703 z m -89.45312,27.54297 31.5918,25.9707 5.36523,44.00195 -4.30078,56.91016 -8.9082,41.07617 -35.26368,-47.59766 4.59571,-36.66015 0.98828,-7.85156 0.0664,0.18164 0.14063,-1.82813 0.0547,-0.43164 -0.0215,-0.002 z m -107.1582,10.95898 45.50585,100.54492 -2.42968,4.17578 z m 242.74609,1.41016 -29.00977,91.87695 -21.06445,14.75781 z m -348.48242,51.46679 49.46093,1.61719 32.14258,33.78516 -47.96484,-12.80078 z m -0.41992,1.17579 33.32031,27.66015 15.29492,19.10352 9.78906,27.7832 c -5.17829,-2.87393 -10.37059,-5.78738 -15.54492,-8.79102 l -28.61523,-33.49804 z m 54.07421,2.68164 37.67969,20.36132 25.97461,0.65821 30.87305,28.05273 -8.7168,14.98633 -28.86133,-32.35352 -4.82617,0.20899 -18.20117,-2.98047 z m -47.46093,1.50781 27.02539,18.1582 51.55468,13.75977 -28.10546,-29.54102 30.47265,25.99219 18.57813,3.04101 4.45508,-0.19335 28.76171,32.24218 -4.57226,7.85938 -1.23438,11.57422 -84.18554,-40.98438 -15.32618,-19.14258 z m 373.61718,7.5293 -32.60546,46.875 -40.91211,-1.91993 z m 0.85157,0.52539 -9.69336,56.42968 -5.33789,18.45899 -1.30469,1.39648 -16.27344,-29.40039 z m -7.49805,2.36523 -68.65234,41.98047 -0.13282,-0.006 -0.0801,0.13672 -0.01,0.006 -10.05273,17.25 -32.74415,56.14453 36.0586,-74.30859 22.66406,-15.875 -0.008,-0.01 z m -214.16211,15.73633 41.49023,25.48633 31.81641,42.94531 -62.01953,-42.91211 z m -0.95703,0.30664 11.44336,25.875 67.14648,46.45703 -8.88086,40.94336 c -5.15607,-1.22617 -10.3238,-2.46757 -15.66211,-3.94141 h -0.002 c -6.37574,-1.75087 -12.88558,-3.68629 -19.50781,-5.78906 -6.08931,-1.96466 -12.24559,-4.02718 -18.52735,-6.28125 -13.53989,-4.86451 -27.27744,-10.33421 -41.14062,-16.32617 l 39.78125,-52.17969 -0.79492,-0.60547 -39.9375,52.38282 c -0.12517,-0.0541 -0.25207,-0.10925 -0.37891,-0.16602 l 3.75,-35.19531 13.60352,-23.38477 0.96679,0.87891 -0.61132,-1.48828 6.3457,-10.90821 z m -108.53516,16.83594 83.50782,40.64843 -2.39454,22.45704 c -23.53278,-10.25756 -47.413,-22.08379 -71.31836,-35.30469 z m 355.58789,3.74609 c 0.31065,6.0382 0.17492,11.80267 -0.25976,17.37109 l -21.86524,6.4668 12.14258,-21.55273 z m -11.76172,3.40234 -11.84375,21.02735 -5.69335,4.15039 -0.0898,0.0117 0.006,0.0508 -8.79883,6.41601 5.0293,-17.39843 z m -88.39843,2.97461 41.51562,1.94922 -72.31054,92.44727 c -0.87347,-0.086 -1.73714,-0.16425 -2.62696,-0.26563 h -0.002 -0.002 c -5.52105,-0.59154 -11.27019,-1.45624 -17.08985,-2.41015 -0.23138,-2.74076 0.40433,-5.2125 1.21485,-7.13477 7.3e-4,-0.002 9.5e-4,-0.004 0.002,-0.006 l 0.0156,-0.0273 0.004,-0.01 39.24023,-67.32617 z m 42.44922,2.37891 16.1875,29.24414 -84.23633,63.12891 c -1.08929,-0.0867 -2.07222,-0.051 -3.17383,-0.15235 -0.27742,-0.0254 -0.56511,-0.0598 -0.84375,-0.0859 z m 57.34179,9.69141 c -0.1541,0.97019 -0.24673,1.88162 -0.46679,2.91796 h -0.0137 c -0.0983,1.01543 -0.44496,2.47161 -0.73242,3.81836 l -25.67578,3.14649 4.45508,-3.24805 z m -1.41406,7.78711 c -0.036,0.19418 -0.0905,0.43421 -0.11719,0.60937 v 0.002 l -0.002,0.002 c -0.88096,6.05487 -1.8718,10.73532 -3.56055,15.66211 -0.10806,0.30651 -0.22068,0.60983 -0.33203,0.91406 -0.53034,1.48121 -1.09761,2.97414 -1.77734,4.56055 -0.0129,0.0324 -0.0341,0.085 -0.0469,0.11718 l -50.73242,9.44141 17.80859,-19.02734 0.16407,-0.12305 v -0.0527 l 1.67773,-1.79687 0.0625,0.0859 9.69141,-7.06641 z m -43.34961,15.7207 -14.87891,15.89648 -0.0859,0.0156 0.0117,0.0625 -41.15625,43.9707 c -1.05588,0.0296 -2.08439,0.0924 -3.15235,0.10352 -0.87995,0.01 -1.76805,0.0215 -2.65429,0.0215 -5.47075,0 -11.29359,-0.39325 -17.14454,-0.82226 z m 37.04883,7.28711 c -0.33826,0.85229 -0.6192,1.57984 -1.24024,3.04492 l -0.006,0.0117 -0.004,0.0137 c -0.0626,0.17457 -0.15226,0.33072 -0.2168,0.50391 -0.85257,2.08076 -1.76736,4.12772 -2.83008,6.0957 -0.59658,1.09199 -1.19432,2.18306 -1.86328,3.23242 -1.16509,1.88114 -2.48425,3.66743 -3.84765,5.42578 -0.95965,1.23611 -1.95068,2.45843 -2.98047,3.67188 -1.88372,2.08979 -3.88403,4.0505 -6.01367,5.85937 -2.96618,2.4025 -5.97818,4.29226 -9.48633,6.58008 v 0.002 c -0.98823,0.66193 -2.0399,1.28377 -3.0625,1.92383 -3.30376,2.12218 -6.75022,4.11168 -10.49219,5.82031 -0.0656,0.0319 -0.13354,0.062 -0.19922,0.0937 -12.79826,5.80658 -28.09946,9.21064 -45.62109,10.20313 -1.26904,0.0687 -2.58709,0.0832 -3.87891,0.12891 l 40.27735,-43.03321 z m -67.56055,50.92383 c -0.46921,0.099 -0.9208,0.21686 -1.39453,0.31054 0.48235,-0.0855 0.91642,-0.22057 1.39453,-0.31054 z m -5.44336,0.9707 c -3.98259,0.64267 -8.06461,1.16308 -12.35937,1.40625 -0.35422,0.0192 -0.72788,0.0177 -1.08399,0.0352 4.64713,-0.29954 9.11158,-0.79971 13.44336,-1.44141 z" />
</svg>
