<?xml version="1.0" encoding="UTF-8" standalone="no"?>
<svg
   id="gemstone-bg"
   viewBox="0 0 878.42038 769.46274"
   version="1.1"
   width="878.42041"
   height="769.46271"
   sodipodi:docname="gemstone-bg.svg"
   inkscape:export-filename="gemstoneBG.svg"
   inkscape:export-xdpi="96"
   inkscape:export-ydpi="96"
   inkscape:version="1.3.2 (091e20e, 2023-11-25, custom)"
   xmlns:inkscape="http://www.inkscape.org/namespaces/inkscape"
   xmlns:sodipodi="http://sodipodi.sourceforge.net/DTD/sodipodi-0.dtd"
   xmlns="http://www.w3.org/2000/svg"
   xmlns:svg="http://www.w3.org/2000/svg">
  <sodipodi:namedview
     id="namedview1"
     pagecolor="#505050"
     bordercolor="#eeeeee"
     borderopacity="1"
     inkscape:showpageshadow="0"
     inkscape:pageopacity="0"
     inkscape:pagecheckerboard="0"
     inkscape:deskcolor="#505050"
     inkscape:zoom="0.53348914"
     inkscape:cx="212.75035"
     inkscape:cy="454.55471"
     inkscape:window-width="1920"
     inkscape:window-height="1017"
     inkscape:window-x="-8"
     inkscape:window-y="-8"
     inkscape:window-maximized="1"
     inkscape:current-layer="gemstone-bg" />
  <defs
     id="defs1">
    <style
       id="style1">
      .cls-1 {
        fill: none;
        stroke: #000;
        stroke-miterlimit: 10;
      }
    </style>
  </defs>
  <path
     id="path3"
     style="color:#000000;fill:#000000;stroke-miterlimit:10;-inkscape-stroke:none"
     d="M 116.12956 -0.20361828 C 111.35581 -0.29256629 106.70928 -0.23026157 102.19206 -0.016118279 C 66.054324 1.697028 38.205451 13.123478 20.496752 34.228022 C 2.6724848 55.458168 -3.7255471 85.07459 1.0065179 121.22802 C 5.7385829 157.38145 21.589151 200.10255 48.305346 247.67529 C 100.8467 341.23892 189.67963 443.78015 298.45574 536.44091 L 298.45574 536.43896 L 298.51042 536.48583 L 298.53386 536.51123 L 298.55339 536.52685 C 407.9008 626.18753 530.37219 699.91998 634.62566 738.8374 C 688.88276 759.08125 735.78115 769.22021 773.5905 769.22021 C 811.40295 769.22021 841.10916 758.71886 858.78386 737.64013 C 876.43394 716.60704 881.77572 686.29082 875.22136 648.61865 C 868.66701 610.94648 850.2265 565.87924 820.23113 515.19482 C 763.03928 418.55792 668.07016 310.16016 559.60613 217.73779 L 559.53386 217.66552 C 559.54286 217.67452 559.55296 217.68848 559.56316 217.70068 C 559.54316 217.68358 559.52456 217.66494 559.50456 217.64794 L 559.51042 217.65966 C 559.49832 217.64496 559.48743 217.63221 559.48113 217.62451 L 559.49675 217.63037 L 559.45964 217.59912 L 559.42253 217.56591 L 559.41863 217.56396 C 449.7822 127.59403 334.17427 58.845534 233.84441 23.987788 C 189.16607 8.4703405 149.54585 0.41901793 116.12956 -0.20361828 z M 116.11199 0.79638172 C 149.3822 1.4179178 188.90981 9.4386567 233.51628 24.931147 C 333.65464 59.722358 449.14785 128.38516 558.68035 218.25341 L 558.68035 218.26123 L 558.85613 218.40966 C 667.28865 310.78773 762.24003 419.17256 819.3698 515.70458 C 849.32431 566.31996 867.71386 611.29784 874.23699 648.79052 C 880.76011 686.28319 875.42809 716.25073 858.01824 736.99755 C 840.593 757.77874 811.2179 768.22021 773.5905 768.22021 C 735.96001 768.22021 689.15794 758.11793 634.97527 737.90185 C 530.87395 699.04104 408.47211 625.3585 299.20378 535.76513 L 299.19011 535.75146 L 299.10613 535.67919 L 299.10417 535.67919 C 190.40081 443.0804 101.63488 340.60104 49.17644 247.18505 C 22.502742 199.68798 6.7066215 157.06804 1.9987054 121.09912 C -2.7092108 85.130187 3.6586683 55.84037 21.26433 34.8706 C 38.755561 14.025227 66.286823 2.6862754 102.23894 0.9819286 C 106.73296 0.76888524 111.3591 0.70759085 116.11199 0.79638172 z M 187.28581 59.612788 C 153.45463 59.731031 125.80659 67.484266 106.08464 82.62646 C 106.08264 82.62786 106.08078 82.628966 106.07878 82.630366 L 106.07683 82.632319 C 105.3488 83.168556 104.64354 83.732839 103.94988 84.315913 C 99.947989 87.584222 96.297819 91.176042 93.008471 95.099116 C 86.561284 102.78372 81.519735 111.53595 77.891284 121.25537 C 73.770192 132.3622 71.483448 144.7273 71.031909 158.25341 L 71.029955 158.25537 C 70.999875 159.38838 70.981382 160.53212 70.971362 161.68505 C 70.931222 165.72918 71.061722 169.87141 71.342455 174.12255 C 72.596031 193.05656 77.065735 213.91788 84.736987 236.44091 C 105.49727 297.34975 147.72413 365.01357 206.85613 432.1499 L 206.86199 432.15771 L 206.8698 432.16552 C 232.88687 459.44294 280.39165 507.56194 304.98503 528.67919 L 304.99089 528.68505 L 304.9948 528.68896 C 348.50496 564.05534 394.51548 595.8 440.72917 622.57373 C 446.31248 625.81564 451.90597 628.97842 457.48894 632.06005 L 457.48894 632.0581 C 481.672 645.44533 505.83546 657.40249 529.65105 667.75927 C 530.01918 667.92832 530.38088 668.08881 530.74285 668.23974 C 544.83195 674.34368 558.78095 679.88768 572.54167 684.83154 C 579.64785 687.38833 586.63271 689.74704 593.49675 691.92724 C 600.98557 694.34424 608.35888 696.59057 615.53777 698.56201 C 629.36163 702.36582 642.57838 705.3596 655.17644 707.53271 C 661.73358 708.66226 668.08724 709.55786 674.27996 710.23974 L 674.27605 710.24365 L 674.84246 710.31005 C 674.94133 710.32074 675.04445 710.33659 675.14324 710.34716 C 676.71924 710.52784 678.28355 710.67773 679.81511 710.81787 C 679.84367 710.82049 679.87055 710.82111 679.8991 710.82373 L 680.02605 710.83544 L 680.02996 710.83349 C 687.58514 711.52139 694.85195 711.86865 701.80144 711.86865 C 702.69519 711.86865 703.58546 711.85862 704.4655 711.84912 C 707.35366 711.81902 710.19108 711.71821 712.96746 711.56787 L 712.96941 711.56787 C 729.76575 710.61686 744.13119 706.41001 756.43816 700.4624 C 756.49727 700.43558 756.55493 700.40729 756.61394 700.38037 C 760.36586 698.55917 763.91504 696.57399 767.28386 694.46435 C 767.7058 694.19315 768.20885 694.00008 768.62371 693.72216 L 768.6491 693.70654 L 769.01824 693.49169 C 772.94342 691.36721 776.52724 688.76783 779.89714 685.90771 C 781.84986 684.32728 783.79108 682.57121 785.81511 680.20654 C 785.89964 680.10748 785.9751 680.00494 786.05925 679.90576 C 786.43513 679.4882 786.89462 679.16404 787.26042 678.73583 C 787.91848 677.96616 788.38577 677.07461 789.00456 676.2788 C 790.42219 674.45617 791.75999 672.59086 792.98699 670.66162 C 793.63835 669.60847 794.24748 668.53976 794.8366 667.45068 C 795.9304 665.45143 796.92623 663.38578 797.74285 661.19482 C 798.10527 660.30931 798.62366 659.50551 798.94792 658.60107 L 798.95183 658.58935 L 799.11785 658.16162 C 799.24187 657.90317 799.36749 657.63467 799.47722 657.36669 L 799.48308 657.35302 C 802.79069 650.03039 805.04988 641.99011 806.31511 633.29638 L 806.31511 633.29248 C 806.54583 631.76738 806.74814 630.23911 806.8991 628.67919 L 806.89714 628.6831 C 806.98489 627.847 806.98674 626.95604 807.0573 626.10888 C 808.08489 619.23641 807.71791 613.7147 807.55144 607.34326 L 807.53581 606.73193 L 807.26824 606.79248 C 804.43314 557.33375 777.8231 493.77453 733.5573 426.76904 C 689.07414 359.43453 626.79025 288.65473 552.94597 225.38037 L 552.94011 225.37646 L 552.93621 225.3706 C 533.22714 209.36328 513.09722 194.19587 493.09636 180.29833 L 493.09441 180.29833 C 481.17792 172.05384 469.1918 164.17932 457.20574 156.66552 C 452.53365 153.73823 447.86195 150.90883 443.19011 148.09912 L 442.87175 147.19287 L 442.13347 147.45263 C 441.50469 147.0756 440.87554 146.67533 440.24675 146.30029 C 418.96487 133.60317 397.7223 122.1362 376.75847 111.99951 C 373.40702 110.37881 370.05516 108.77758 366.72136 107.23583 C 339.61331 94.607421 313.05255 84.279116 287.61785 76.50146 L 287.61589 76.50146 C 275.06377 72.657799 262.77095 69.443452 250.8366 66.880366 C 248.43532 66.36009 246.03633 65.881017 243.67839 65.421382 L 243.66667 65.419429 C 242.93086 65.258453 242.20914 65.126531 241.4948 64.997554 L 241.48894 64.997554 C 237.86108 64.308022 234.29194 63.688122 230.77214 63.147944 L 230.75652 63.145991 C 230.31881 63.064991 229.89531 63.004248 229.46941 62.944819 C 220.652 61.593905 212.14272 60.663048 203.9323 60.142085 C 203.34108 60.091985 202.75624 60.051275 202.15886 60.030757 L 202.14714 60.030757 C 197.07034 59.735668 192.11566 59.595908 187.28581 59.612788 z M 187.59636 61.239741 C 191.85779 61.225539 196.25601 61.378968 200.71355 61.608882 L 94.750659 125.11669 L 107.11003 83.956538 C 126.59634 69.045918 153.9859 61.351751 187.59636 61.239741 z M 202.55925 61.667475 C 202.74331 61.674635 202.92843 61.692038 203.11199 61.702632 L 135.13542 134.33544 L 134.82292 134.56982 L 134.85613 134.63037 L 133.3366 136.23974 L 81.557299 149.08544 L 94.274096 126.56787 L 202.55925 61.667475 z M 204.40105 61.788569 C 212.1363 62.285929 220.16433 63.169347 228.44597 64.405757 L 139.72331 130.89794 L 204.40105 61.788569 z M 229.85808 64.597163 C 229.93775 64.608501 230.01553 64.62261 230.09441 64.634272 L 152.30144 164.08544 L 136.1198 134.84912 L 229.85808 64.597163 z M 231.22331 64.81396 C 234.59085 65.334505 238.01161 65.925779 241.47136 66.583491 C 241.86234 66.971125 242.23555 67.364667 242.61785 67.792475 L 242.6491 67.827632 C 245.88306 72.427022 245.66575 76.879861 244.63933 80.253413 C 244.43846 80.91362 244.19291 81.487869 243.94988 82.052241 L 194.73699 166.4956 L 153.22136 164.53466 L 231.22331 64.81396 z M 242.49675 66.210444 C 242.7816 66.265152 243.06689 66.315041 243.35222 66.37646 C 243.2342 66.496166 243.09752 66.630674 242.99871 66.739741 C 242.83424 66.560665 242.6633 66.38727 242.49675 66.210444 z M 244.05535 67.083491 C 246.3386 67.527808 248.63761 67.987611 250.95574 68.487788 C 262.68957 71.005694 274.77077 74.177312 287.11003 77.927241 L 264.98894 122.44482 L 262.97136 121.05029 L 264.61785 123.2749 L 233.49675 212.19287 L 254.22917 263.33935 L 197.33074 316.6499 L 149.0241 283.72607 L 202.91472 168.94482 L 202.94011 168.89208 L 202.97331 168.82177 L 244.25652 83.7456 C 244.44309 83.388252 244.617 83.043005 244.80144 82.624507 L 244.94988 82.317866 L 244.92253 82.304194 C 245.15711 81.746672 245.39765 81.191129 245.59441 80.544429 C 246.66224 77.034746 246.8609 72.295726 243.62956 67.517085 C 243.75247 67.388585 243.82592 67.308124 244.05535 67.083491 z M 288.08074 78.22021 C 313.32509 85.969445 339.68185 96.216171 366.57878 108.74169 L 368.22136 110.5913 L 326.99285 164.67724 L 327.78777 165.28271 L 368.19206 112.27685 L 364.34441 148.26123 L 350.73308 171.66552 L 349.75456 170.77685 L 350.37371 172.28466 L 344.04167 183.17333 L 341.70378 193.14599 L 341.43035 192.97802 L 330.20183 167.5581 L 265.81902 123.02099 L 288.08074 78.22021 z M 105.74675 85.019038 L 93.438159 126.01318 L 80.147143 149.54833 L 72.403002 157.59326 C 72.956242 144.71816 75.16679 132.90705 79.094409 122.29443 L 104.91863 85.675288 C 105.19042 85.447329 105.47171 85.239888 105.74675 85.019038 z M 103.28581 86.253413 L 79.522143 119.95263 C 83.056341 111.00542 87.776088 102.89064 93.774096 95.741694 C 96.651001 92.310524 99.854112 89.178275 103.28581 86.253413 z M 238.16277 94.013179 L 202.12761 168.2749 L 179.46355 184.1499 L 179.4655 184.15185 L 126.62566 209.41357 L 195.13738 167.51513 L 195.29949 167.52294 L 238.16277 94.013179 z M 368.17449 109.03271 C 368.47586 109.1737 368.7791 109.32058 369.08074 109.4624 L 368.83855 109.78076 L 368.17449 109.03271 z M 369.48113 109.65185 C 370.68127 110.21731 371.88159 110.78681 373.08464 111.36279 L 369.42058 110.2124 L 369.48113 109.65185 z M 369.31121 111.22607 L 376.71746 113.55224 C 397.6559 123.67272 418.87353 135.12993 440.12371 147.8081 C 440.93302 148.29083 441.74177 148.80638 442.55144 149.29248 L 452.17449 176.59716 L 368.43035 135.82958 L 367.99089 136.72998 L 452.73113 177.97998 L 468.07292 197.13232 L 495.48894 219.89208 L 468.45964 201.73779 L 416.90496 187.98974 L 445.01433 217.50732 L 414.54949 191.5288 L 395.95964 188.48779 L 391.51628 188.67919 L 362.66277 156.34716 L 361.91667 157.01318 L 391.08464 189.69873 L 395.90105 189.49169 L 414.11199 192.47021 L 450.69402 223.66357 L 450.12566 223.64404 L 408.30339 201.05224 L 382.36003 200.39599 L 351.49089 172.35302 L 365.31706 148.57958 L 369.31121 111.22607 z M 265.33855 124.2456 L 298.29949 168.7456 L 292.72136 213.28271 L 292.63933 213.0581 L 286.76628 289.07568 L 255.23699 263.16357 L 234.56511 212.16748 L 265.33855 124.2456 z M 267.37175 125.31201 L 329.40105 168.22021 L 339.92839 192.05419 L 301.08269 168.1831 L 300.55925 169.03466 L 340.64128 193.66552 L 341.92644 196.57763 L 342.36199 194.72412 L 343.35027 195.33154 L 385.64324 351.19677 L 384.43035 354.24951 L 399.98113 383.80224 L 377.66863 348.96435 L 353.05535 343.70068 L 350.59441 343.17724 L 294.71746 205.3999 L 299.34246 168.47216 L 267.37175 125.31201 z M 135.36589 135.55029 L 135.45574 135.71435 L 135.13542 135.79443 L 135.36589 135.55029 z M 135.55925 135.8999 L 151.64128 164.95849 L 118.98503 211.90966 L 128.67253 155.56982 L 134.03386 136.9956 L 135.55925 135.8999 z M 131.19402 137.80224 L 117.66081 147.52099 L 83.039721 152.16357 L 72.27019 161.26318 C 72.280625 160.5507 72.289243 159.83714 72.307299 159.13232 L 80.811205 150.30029 L 131.19402 137.80224 z M 132.71941 137.93896 L 127.74675 155.16748 L 109.57683 167.2749 L 120.28581 148.25537 L 119.41472 147.76513 L 107.74089 168.49755 L 104.72331 170.50732 L 72.604174 174.19091 C 72.35274 170.22871 72.225683 166.35842 72.256518 162.58349 L 83.461596 153.11474 L 118.04167 148.47802 L 132.71941 137.93896 z M 443.903 150.11865 C 448.27191 152.75138 452.64453 155.3897 457.00261 158.12451 L 485.81316 191.83935 L 498.87371 221.4038 L 468.78972 196.42724 L 453.4948 177.33349 L 443.903 150.11865 z M 127.49089 156.54052 L 117.45378 214.90771 L 178.92644 185.51708 L 147.903 283.76123 L 147.75652 284.07177 L 147.9948 284.23388 L 210.36003 381.1206 L 211.66081 383.1499 L 287.67644 290.28466 L 293.28191 217.72216 L 339.50066 343.90771 L 406.29753 394.89599 L 411.66472 335.41357 L 405.52996 303.84521 L 405.55339 303.78662 L 405.49285 303.65576 L 352.36589 174.49951 L 381.82488 201.25927 L 382.12956 200.46826 L 382.11785 201.39013 L 382.13152 201.39013 L 408.03777 202.04638 L 449.85613 224.63623 L 502.1491 226.34521 L 501.66277 225.24365 L 503.12175 226.22412 L 503.71941 225.42529 L 503.68035 225.39404 L 500.59831 222.83544 L 486.66863 191.30029 L 459.23503 159.19873 C 470.35351 166.21658 481.47267 173.47326 492.52605 181.1206 C 512.50512 195.00301 532.61473 210.15557 552.30535 226.14794 C 626.0766 289.36124 688.29912 360.0775 732.72136 427.31982 C 776.97771 494.311 803.52212 557.84547 806.28972 607.01708 L 795.81902 609.41162 L 773.44011 624.32958 L 783.46746 565.97216 L 721.99285 595.36279 L 752.94988 497.32763 L 753.19402 496.80615 L 752.91472 496.61474 L 690.56121 399.74755 L 689.25847 397.73193 L 613.2448 490.59521 L 607.6491 563.14599 L 561.42058 436.96044 L 560.06316 435.93115 L 494.62371 385.99169 L 489.26628 445.47607 L 495.40105 477.09326 L 495.39714 477.10302 L 495.40691 477.12646 L 495.42839 477.23388 L 548.55535 606.38818 L 518.96941 579.50341 L 492.86394 578.84326 L 451.2741 556.36669 L 451.26433 556.35888 L 451.26238 556.36083 L 451.04558 556.24365 L 398.75261 554.53466 L 414.23308 589.58935 L 442.08269 622.19091 C 441.7989 622.02657 441.51487 621.87325 441.23113 621.70849 C 395.06844 594.96432 349.10222 563.25169 305.63542 527.92138 L 305.63347 527.91943 C 305.63047 527.91743 305.62866 527.91557 305.62566 527.91357 C 281.12076 506.87077 233.60891 458.7536 207.60613 431.49169 L 207.59636 431.47998 L 207.59246 431.47607 C 148.53217 364.4168 106.38226 296.84479 85.684252 236.11865 C 78.188461 214.11077 73.810534 193.74032 72.463549 175.21435 L 105.07683 171.47216 L 106.65886 170.41943 L 106.47527 170.74365 L 107.34636 171.23388 L 108.4948 169.19482 L 127.49089 156.54052 z M 152.48308 165.50146 L 193.35613 167.43115 L 119.89128 212.36083 L 152.48308 165.50146 z M 201.27214 170.09521 L 151.10808 276.93505 L 180.18035 184.86865 L 201.27214 170.09521 z M 350.85417 173.44873 L 393.61003 277.39599 L 348.44402 177.5913 L 350.85417 173.44873 z M 347.82683 178.6538 L 404.46746 303.81201 L 386.25847 349.64794 L 344.2116 194.68701 L 342.60222 193.69677 L 344.98113 183.54638 L 347.82683 178.6538 z M 420.07683 189.8706 L 468.04167 202.66162 L 500.11003 224.20068 L 500.59246 225.29443 L 452.3073 223.7163 L 420.07683 189.8706 z M 294.4616 207.43505 L 349.51824 343.18115 L 341.31121 344.03076 L 340.3405 343.29052 L 293.47331 215.33349 L 294.4616 207.43505 z M 558.67644 218.01123 C 558.67644 218.01143 558.67835 218.04036 558.68035 218.06396 C 558.6798 218.06196 558.67644 218.05029 558.67644 218.05029 C 558.67645 218.05041 558.67644 218.01113 558.67644 218.01123 z M 254.88738 264.17138 L 286.49675 290.14794 L 212.10808 381.02099 L 207.2155 321.58154 L 254.88738 264.17138 z M 249.32878 269.30029 L 206.18621 321.25732 L 210.95964 379.25927 L 197.92839 317.4624 L 249.32878 269.30029 z M 150.11589 285.67919 L 196.9323 317.58935 L 209.73503 378.30029 L 150.11589 285.67919 z M 404.84636 305.56787 L 410.65691 335.46435 L 405.53777 392.2124 L 385.52996 354.19091 L 386.07878 352.80615 L 386.49871 354.35107 L 387.46355 354.08935 L 386.69597 351.25732 L 404.84636 305.56787 z M 350.20378 344.11474 L 352.84636 344.67919 L 377.05144 349.85498 L 403.94402 391.8413 L 342.46941 344.91552 L 350.20378 344.11474 z M 495.38738 388.63623 L 515.42058 426.68896 L 496.08464 475.37255 L 490.27214 445.42333 L 495.38738 388.63623 z M 497.02996 389.0874 L 558.4655 435.97021 L 550.73699 436.76318 L 548.09441 436.20068 L 523.8991 431.0249 L 497.02996 389.0874 z M 500.96355 397.07958 L 523.28191 431.91552 L 547.88542 437.17919 L 550.34636 437.70263 L 606.23113 575.4663 L 601.72331 611.43115 L 559.60222 585.5581 L 516.49675 426.68896 L 516.52019 426.63037 L 500.96355 397.07958 z M 688.70574 399.98583 L 689.85027 460.00341 L 645.99285 516.65771 L 614.43621 490.7163 L 688.70574 399.98583 z M 689.7116 400.33935 L 703.01238 463.42724 L 650.07097 513.02099 L 690.85808 460.33544 L 689.7116 400.33935 z M 691.2116 402.60693 L 750.79558 495.17138 L 704.00847 463.30029 L 691.2116 402.60693 z M 515.88152 428.23779 L 558.6491 585.86669 L 555.9616 597.34326 L 553.12175 602.22412 L 496.48308 477.07763 L 515.88152 428.23779 z M 559.62956 436.85888 L 560.58074 437.57958 L 607.47527 565.58349 L 606.48699 573.43896 L 551.42449 437.69873 L 559.62956 436.85888 z M 703.61003 464.23779 L 751.92644 497.15185 L 697.96746 612.05615 L 697.96941 612.05615 L 656.92449 696.63818 C 656.91995 696.64639 656.91731 696.64946 656.91277 696.65771 L 656.90691 696.66748 L 656.86394 696.75537 C 656.74868 696.96963 656.62979 697.25116 656.51042 697.49169 L 656.00847 698.52685 L 655.99089 698.56201 L 655.9948 698.56396 L 655.98699 698.57958 L 655.97917 698.59521 C 655.14441 700.57324 654.46703 703.12595 654.66277 705.97998 C 654.05242 705.87801 653.48909 705.83385 652.87566 705.72802 C 645.48612 704.45235 637.81016 702.80714 629.98894 700.9663 L 647.80535 618.8081 L 652.1198 561.73193 L 646.72722 517.5249 L 703.61003 464.23779 z M 614.15691 491.78076 L 645.74871 517.75146 L 651.11394 561.75341 L 646.81316 618.66357 L 637.90496 659.73974 L 602.64128 612.14208 L 607.23699 575.48193 L 608.22527 567.63037 L 608.29167 567.81201 L 608.4323 565.98388 L 608.48699 565.55224 L 608.4655 565.55029 L 614.15691 491.78076 z M 506.99871 502.73974 L 552.50456 603.28466 L 550.07488 607.46044 L 506.99871 502.73974 z M 749.7448 504.1499 L 720.73503 596.02685 L 699.67058 610.78466 L 749.7448 504.1499 z M 401.26238 555.61669 L 450.72331 557.23388 L 482.86589 591.01904 L 434.90105 578.21826 L 401.26238 555.61669 z M 400.84246 556.79248 L 434.16277 584.45263 L 449.45769 603.55615 L 459.24675 631.33935 C 454.06846 628.46542 448.87616 625.55197 443.70183 622.54833 L 415.0866 589.05029 L 400.84246 556.79248 z M 454.91667 559.47412 L 492.59636 579.83544 L 518.57097 580.49365 L 549.44402 608.54638 L 540.72722 623.53271 L 511.86589 591.17919 L 507.03972 591.38818 L 488.83855 588.40771 L 454.91667 559.47412 z M 407.45574 560.98193 L 434.48113 579.14013 L 486.03581 592.8999 L 457.93035 563.35888 L 488.403 589.35107 L 506.98113 592.39208 L 511.43621 592.19873 L 540.19792 624.44091 L 535.62566 632.30029 L 534.39128 643.87451 L 450.20574 602.89013 L 434.87956 583.74755 L 407.45574 560.98193 z M 781.07292 568.51123 L 748.46746 615.38623 L 707.55535 613.4663 L 781.07292 568.51123 z M 781.92449 569.03662 L 772.23113 625.4663 L 766.89324 643.92529 L 765.58855 645.32177 L 749.31511 615.92138 L 781.92449 569.03662 z M 774.42644 571.40185 L 705.7741 613.38232 L 705.64128 613.37646 L 705.56121 613.51318 L 705.55144 613.51904 L 695.49871 630.76904 L 662.75456 686.91357 L 698.81316 612.60498 L 721.47722 596.72998 L 721.46941 596.72021 L 774.42644 571.40185 z M 560.26433 587.13818 L 601.75456 612.62451 L 633.57097 655.56982 L 571.55144 612.65771 L 560.26433 587.13818 z M 559.3073 587.44482 L 570.75066 613.31982 L 637.89714 659.77685 L 629.01628 700.72021 C 623.86021 699.49404 618.69248 698.25264 613.35417 696.7788 L 613.35222 696.7788 C 606.97648 695.02793 600.46664 693.09251 593.84441 690.98974 C 587.7551 689.02508 581.59882 686.96256 575.31706 684.70849 C 561.77717 679.84398 548.03962 674.37428 534.17644 668.38232 L 573.95769 616.20263 L 573.16277 615.59716 L 533.22527 667.97998 C 533.1001 667.92586 532.9732 667.87073 532.84636 667.81396 L 536.59636 632.61865 L 550.19988 609.23388 L 551.16667 610.11279 L 550.55535 608.62451 L 556.90105 597.7163 L 559.3073 587.44482 z M 450.77214 604.28076 L 534.27996 644.92919 L 531.88542 667.38623 C 508.35264 657.12867 484.47242 645.30244 460.56706 632.08154 L 450.77214 604.28076 z M 806.36003 608.02685 C 806.67068 614.06505 806.53495 619.82952 806.10027 625.39794 L 784.23503 631.86474 L 796.37761 610.31201 L 806.36003 608.02685 z M 794.59831 611.42919 L 782.75456 632.45654 L 777.06121 636.60693 L 776.97136 636.61865 L 776.97722 636.66943 L 768.17839 643.08544 L 773.20769 625.68701 L 794.59831 611.42919 z M 706.19988 614.4038 L 747.7155 616.35302 L 675.40496 708.80029 C 674.53149 708.71434 673.66782 708.63604 672.778 708.53466 L 672.77605 708.53466 L 672.7741 708.53466 C 667.25305 707.94312 661.50391 707.07842 655.68425 706.12451 C 655.45287 703.38375 656.08858 700.91201 656.8991 698.98974 C 656.89983 698.98774 656.90005 698.98588 656.90105 698.98388 L 656.91667 698.95654 L 656.92058 698.94677 L 696.16081 631.6206 L 706.19988 614.4038 z M 748.6491 616.78271 L 764.8366 646.02685 L 680.60027 709.15576 C 679.51098 709.06909 678.52805 709.10474 677.42644 709.00341 C 677.14902 708.97803 676.86133 708.94362 676.58269 708.91748 L 748.6491 616.78271 z M 805.99089 626.47412 C 805.83679 627.44431 805.74416 628.35574 805.5241 629.39208 L 805.51042 629.39208 C 805.41215 630.40751 805.06546 631.86369 804.778 633.21044 L 779.10222 636.35693 L 783.5573 633.10888 L 805.99089 626.47412 z M 804.57683 634.26123 C 804.54083 634.45541 804.48632 634.69544 804.45964 634.8706 L 804.45964 634.87255 L 804.45769 634.87451 C 803.57673 640.92938 802.58589 645.60983 800.89714 650.53662 C 800.78908 650.84313 800.67646 651.14645 800.56511 651.45068 C 800.03477 652.93189 799.4675 654.42482 798.78777 656.01123 C 798.77491 656.04359 798.75365 656.09625 798.74089 656.12841 L 748.00847 665.56982 L 765.81706 646.54248 L 765.98113 646.41943 L 765.98113 646.36669 L 767.65886 644.56982 L 767.72136 644.65576 L 777.41277 637.58935 L 804.57683 634.26123 z M 761.22722 649.98193 L 746.34831 665.87841 L 746.26238 665.89404 L 746.2741 665.95654 L 705.11785 709.92724 C 704.06197 709.95682 703.03346 710.01959 701.9655 710.03076 C 701.08555 710.04076 700.19745 710.05224 699.31121 710.05224 C 693.84046 710.05224 688.01762 709.65899 682.16667 709.22998 L 761.22722 649.98193 z M 798.27605 657.26904 C 797.93779 658.12133 797.65685 658.84888 797.03581 660.31396 L 797.02996 660.32568 L 797.02605 660.33935 C 796.9635 660.51392 796.87379 660.67007 796.80925 660.84326 C 795.95668 662.92402 795.04189 664.97098 793.97917 666.93896 C 793.38259 668.03095 792.78485 669.12202 792.11589 670.17138 C 790.9508 672.05252 789.63164 673.83881 788.26824 675.59716 C 787.30859 676.83327 786.31756 678.05559 785.28777 679.26904 C 783.40405 681.35883 781.40374 683.31954 779.2741 685.12841 C 776.30792 687.53091 773.29592 689.42067 769.78777 691.70849 L 769.78777 691.71044 C 768.79954 692.37237 767.74787 692.99421 766.72527 693.63427 C 763.42151 695.75645 759.97505 697.74595 756.23308 699.45458 C 756.16752 699.48646 756.09954 699.51656 756.03386 699.54833 C 743.2356 705.35491 727.9344 708.75897 710.41277 709.75146 C 709.14373 709.82018 707.82568 709.83463 706.53386 709.88037 L 746.81121 666.84716 L 798.27605 657.26904 z M 730.7155 708.19287 C 730.24629 708.29185 729.7947 708.40973 729.32097 708.50341 C 729.80332 708.4179 730.23739 708.28284 730.7155 708.19287 z M 725.27214 709.16357 C 721.28955 709.80624 717.20753 710.32665 712.91277 710.56982 C 712.55855 710.589 712.18489 710.58748 711.82878 710.60498 C 716.47591 710.30544 720.94036 709.80527 725.27214 709.16357 z "
     transform="translate(0.49934147,0.24268078)" />
</svg>
