<?xml version="1.0" encoding="UTF-8" standalone="no"?>
<svg
   id="Capa_1"
   viewBox="0 0 878.40243 769.45853"
   version="1.1"
   width="878.4024"
   height="769.4585"
   xmlns="http://www.w3.org/2000/svg"
   xmlns:svg="http://www.w3.org/2000/svg">
  <defs
     id="defs29" />
  <path
     id="gemstone-sup"
     d="m 187.51623,59.842263 c -33.90061,0.0539 -60.84932,7.60463 -80.24805,22.50586 -0.21017,0.15558 -0.57049,0.44787 -0.89258,0.69336 l -0.0469,-0.0137 -0.0195,0.0664 c -0.84622,0.64593 -1.83008,1.39218 -2.31055,1.79493 -0.04,0.03 -0.0898,0.0996 -0.0898,0.0996 L 78.447872,121.38908 c -0.03,0.03 -0.0486,0.0694 -0.0586,0.10938 -4.27999,11.52999 -6.67156,23.98908 -7.10156,37.03906 -0.03,1.13 -0.0486,2.28164 -0.0586,3.43164 -0.04,4.02 0.0891,8.20946 0.36914,12.43946 0.01,0.14 0.0797,0.25961 0.17969,0.34961 0.11,0.09 0.25086,0.12937 0.38086,0.10937 l 32.617178,-3.74023 0.29883,0.16797 0.19141,-0.3379 22.19336,-14.78906 -10.20117,57.91016 c -0.03,0.19 0.0395,0.38023 0.18945,0.49023 0.15,0.11 0.35148,0.12883 0.52148,0.0488 l 60.91992,-29.45898 -31.02148,98.23046 c -0.0141,0.0495 0.0206,0.0966 0.0215,0.14844 7.3e-4,0.0652 10e-5,0.12235 0.0254,0.18164 0.0116,0.0288 -0.003,0.0641 0.0137,0.0898 l 62.40429,96.95118 0.0606,0.2832 0.10742,-0.0234 0.69922,1.0879 0.0293,0.35156 -0.01,0.0293 1,-0.0801 -0.0254,-0.3125 75.05274,-91.68946 0.002,0.002 0.63086,-0.76954 -0.19922,-0.16406 5.56836,-72.12696 46.16992,126.05079 c 0.04,0.09 0.0899,0.17047 0.16992,0.23047 l 1.07032,0.81836 0.0293,0.28125 0.30078,-0.0312 64.56055,49.28125 c 0.0164,0.0128 0.0376,0.007 0.0547,0.0176 0.0325,0.0191 0.0692,0.024 0.10547,0.0352 0.0468,0.014 0.0876,0.0469 0.13867,0.0469 l 0.01,0.01 c 0.07,0 0.14117,-0.009 0.20117,-0.0391 0.0211,-0.009 0.0179,-0.0395 0.0371,-0.0508 h 0.002 c 0.11983,-0.0729 0.19328,-0.18641 0.22461,-0.3125 0.005,-0.0201 0.0328,-0.0261 0.0352,-0.0469 l 5.28124,-58.50976 c 0.01,-0.05 0,-0.14063 0,-0.14063 l -6.17992,-31.74051 -53.11133,-129.10939 29.46094,26.75977 c 0.09,0.08 0.20031,0.12891 0.32031,0.12891 l 25.91992,0.66015 41.60938,22.47266 0.01,0.008 c 0.004,0.003 0.01,8.2e-4 0.0137,0.004 l 0.0859,0.0469 c 0.07,0.04 0.1407,0.0586 0.2207,0.0586 h 0.0274 c 0.006,-3.3e-4 0.01,0.002 0.0156,0.002 l 51.33593,1.66797 c 0.15,0 0.30039,-0.0692 0.40039,-0.19922 9.3e-4,-0.001 0.001,-0.003 0.002,-0.004 0.007,-0.009 0.0224,-0.006 0.0293,-0.0156 0.0241,-0.0376 -0.004,-0.0868 0.01,-0.12891 0.0317,-0.0929 0.0484,-0.17821 0.0234,-0.27148 -0.007,-0.0275 0.0175,-0.0534 0.006,-0.0801 l -15.12954,-34.25027 c -0.02,-0.04 -0.0801,-0.11914 -0.0801,-0.11914 l -28.91014,-33.83008 c -0.03,-0.04 -0.0713,-0.0716 -0.11132,-0.10156 -5.44,-3.41 -11.149,-6.89915 -16.95899,-10.36914 -21.21998,-12.65999 -42.5901,-24.19986 -63.58008,-34.33985 l -7.91992,-2.49023 -1.89062,-2.13086 c -0.04,-0.05 -0.10016,-0.0891 -0.16016,-0.11914 -27.12997,-12.639977 -53.75893,-22.980237 -79.12892,-30.740227 -0.0164,-0.005 -0.0324,-0.009 -0.0488,-0.0137 l -0.35157,-0.17578 -0.0332,0.0664 c -12.42933,-3.78164 -24.66464,-6.98558 -36.36719,-9.4961 -2.35,-0.49999 -4.75969,-0.99093 -7.17969,-1.46093 -0.16,-0.04 -0.31945,0.0111 -0.43945,0.12109 -0.23,0.22 -0.41055,0.39883 -0.56055,0.54883 -0.3,-0.33 -0.59992,-0.64899 -0.91992,-0.95899 -0.07,-0.07 -0.15976,-0.11085 -0.25976,-0.13085 -3.70387,-0.70883 -7.30806,-1.32624 -10.70313,-1.84571 -0.0101,-0.002 -0.017,-0.0118 -0.0273,-0.0137 -0.43,-0.09 -0.87078,-0.15094 -1.30078,-0.21094 -0.0126,-9.7e-4 -0.0245,0.004 -0.0371,0.004 -8.76353,-1.34609 -17.34668,-2.28367 -25.50196,-2.80273 -0.0112,-9.4e-4 -0.022,-10e-4 -0.0332,-0.002 l -0.008,-0.008 -0.006,0.006 c -0.58307,-0.0481 -1.14831,-0.0879 -1.72266,-0.10742 -5.12499,-0.29875 -10.11018,-0.44324 -14.95312,-0.43555 z m 0.0586,0.97071 c 4.77665,-0.006 9.69596,0.13871 14.75,0.43164 L 94.744752,124.73679 107.18224,83.666483 c 0.24147,-0.18386 0.54033,-0.42435 0.70703,-0.54882 19.24124,-14.77874 45.99221,-22.25944 79.68555,-22.30469 z m 17.03516,0.58203 c 7.6455,0.50051 15.66137,1.38537 23.84765,2.60547 L 139.75452,130.47898 204.5885,61.418443 Z m -2.36328,1.0625 -68.92383,73.412097 -51.777338,12.8418 12.72265,-22.52539 z m 27.60156,1.75195 c 0.08,0.01 0.15047,0.0193 0.23047,0.0293 l -77.81056,99.470697 -16.17969,-29.24024 z m 1.375,0.19922 c 3.27633,0.51035 6.7176,1.09882 10.25586,1.76953 0.35661,0.35661 0.70113,0.72645 1.04101,1.10742 l 0.0586,0.082 c 3.87357,5.44815 2.90156,10.70902 1.43359,14.17578 l -49.29687,84.585937 -41.52735,-1.95508 z m 12.83594,2.26953 c 2.31999,0.45 4.64039,0.92016 6.90039,1.41016 11.62792,2.49099 23.7844,5.67328 36.13476,9.43555 l -22.42578,45.134757 -31.15039,88.99023 c -0.05,0.11 -0.05,0.23961 0,0.34961 l 20.67774,50.97656 -56.88672,53.29298 -48.31056,-32.91993 53.94922,-114.88867 41.6289,-85.789057 c 0.0325,-0.0697 0.0634,-0.12579 0.0957,-0.19727 l 0.25586,-0.52539 c 0.0174,-0.0348 0.001,-0.0712 0.01,-0.10742 1.49508,-3.63003 2.4547,-9.10638 -1.32812,-14.69922 0.1023,-0.11271 0.15198,-0.17886 0.44922,-0.46289 z m 44.01172,11.14063 c 25.19026,7.72623 51.58952,17.98551 78.50782,30.519517 l 1.64258,1.85938 -38.5918,56.63086 -63.84376,-44.16602 z m -182.25782,6.91211 -12.394518,40.908187 -13.29883,23.53126 -7.72852,8.22656 c 0.52868,-12.50079 2.83343,-24.44744 6.92774,-35.51758 L 104.70959,85.588363 c 0.24293,-0.20129 0.69649,-0.53901 1.10351,-0.85742 z m 132.375,8.81054 -35.92187,74.031247 -0.008,-0.004 -0.15821,0.33399 -22.57812,15.82617 c -0.001,6.3e-4 -0.003,-6.4e-4 -0.004,0 l -55.07617,26.63086 70.75781,-43.27539 c 0.0948,-0.043 0.17731,-0.10428 0.22852,-0.19532 z m 131.07814,17.281247 7.42187,2.32617 c 20.84732,10.07454 42.1322,21.57323 63.26953,34.17578 l 10.18946,28.91992 -83.5293,-40.66797 z m -1.13672,1.28516 -2.55664,23.95507 -0.0469,0.0937 0.0332,0.0156 -1.25,11.71679 -20.27149,34.83985 c -0.02,0.05 -0.0488,0.13867 -0.0488,0.13867 l -2.39062,10.20117 -11.25977,-25.5 h -0.01 z m -102.82814,11.76953 32.88087,44.38476 -0.084,0.13672 0.15625,0.0957 -4.54103,36.23243 -0.18359,0.0742 0.13281,0.32618 -1.29492,10.33203 0.0312,0.004 -5.65039,73.24611 -31.57422,-25.95314 -20.65625,-50.9375 z m 2.03711,1.06054 61.73048,42.71094 0.29883,0.19922 11.26953,25.51953 -41.50195,-25.5 z m -132.0039,10.24805 16.28125,29.41602 -32.96094,47.38086 10,-56.77735 5.38281,-18.63672 z m 231.16993,1.44727 84.19531,40.99414 15.3086,19.10156 0.0703,0.0703 27.38086,22.72852 -26.95117,-18.10938 c -0.06,-0.04 -0.11946,-0.0701 -0.18946,-0.0801 l -53.91992,-10.19922 -18.40039,-3 h -0.0996 l -4.39062,0.18946 -28.79688,-32.26953 4.50781,-7.75 c 0.03,-0.06 0.0586,-0.13118 0.0586,-0.20117 z m -235.33595,0.80468 -13.37109,9.59961 -0.16211,-0.0918 -0.12891,0.22851 -34.357418,4.60352 c -0.09,0.02 -0.18976,0.0611 -0.25976,0.12109 l -10.62695,9.23242 c 0.01,-0.73228 0.0214,-1.46212 0.0391,-2.18164 l 8.31054,-8.8457 0.0977,0.0547 h 0.0195 l 0.14258,-0.25391 z m 1.52735,0.13477 -4.9668,17.20312 -21.37109,14.24024 11.83984,-21.03125 z m 308.60938,10.57226 c 5.36748,3.20946 10.66402,6.43298 15.69336,9.59375 l 28.81055,33.72071 14.25389,32.25976 -33.30467,-27.65039 -15.13672,-18.90039 0.0801,-0.16601 -0.27148,-0.13086 z m -324.41603,0.12696 -12.30273,21.85156 -32.007808,3.66406 c -0.24889,-3.84824 -0.34243,-7.65476 -0.3164,-11.33398 l 11.15625,-9.69531 z m 243.29103,8.70117 28.72852,32.20508 c 0.11,0.12 0.25039,0.18992 0.40039,0.16992 l 4.58007,-0.19922 18.20899,2.96875 33.88867,28.91016 -37.58789,-20.29883 c -0.07,-0.04 -0.15047,-0.0606 -0.23047,-0.0606 l -25.84961,-0.65039 -30.86914,-28.03515 z m -207.73243,8.16601 40.89844,1.92383 -73.49219,44.93946 z m 146.73438,3.92579 42.13672,25.89453 43.2793,159.50001 0.10547,-0.0293 15.25586,28.98828 -22.19141,-34.65039 c -0.08,-0.11 -0.19031,-0.18875 -0.32031,-0.21875 L 350.59046,342.80711 294.6842,204.98679 Z m -97.93946,0.66601 -50.16406,106.83789 29.07422,-92.0625 z m 149.57032,3.3457 42.66993,103.71485 -45.06836,-99.5918 z m -3.01367,5.18165 56.58594,125.03126 0.0605,0.14648 -19.4043,48.85547 -42.7793,-157.67189 2.67578,-11.4414 z m 66.25977,14.2207 51.96875,9.83008 33.5996,22.56836 -49.48242,-1.61914 z m -119.62892,14.54101 55.08399,135.79494 -8.2246,0.85156 -0.98047,-0.74805 0.01,-0.0195 -46.87696,-127.99024 z m -39.55273,56.7793 31.58984,25.96876 -74.39258,90.88086 -4.89648,-59.41016 z m -5.64453,5.20313 -42.95508,51.72657 c -0.08,0.1 -0.11938,0.22937 -0.10938,0.35937 l 4.75,57.59766 -12.99414,-61.60938 z m -99.0918,16.34961 46.79492,31.87891 12.80664,60.72656 z m 254.66407,19.83985 5.8125,29.89648 -5.11719,56.74414 -20.01172,-38.02343 z m -54.57812,38.56641 26.80078,5.73046 26.90429,41.99805 -61.48828,-46.93945 7.46094,-0.77149 0.0391,0.0977 z">
    <title
       id="title29">gemstone-sup</title>
  </path>
  <path
     id="gemstone-inf"
     d="m 493.13733,385.49657 c -0.10068,-0.0239 -0.2069,0.003 -0.30664,0.043 -0.007,0.003 -0.0142,-0.005 -0.0215,-0.002 -0.002,9.7e-4 -0.002,0.005 -0.004,0.006 -0.0119,0.006 -0.0255,-6.9e-4 -0.0371,0.006 -0.13008,0.0792 -0.19563,0.20674 -0.2207,0.3457 -0.006,0.0224 -0.0365,0.0295 -0.0391,0.0527 l -5.26954,58.51172 c -0.01,0.05 0,0.13867 0,0.13867 l 6.16993,31.74023 53.10936,129.0996 -29.44922,-26.75976 c -0.09,-0.08 -0.20031,-0.12891 -0.32031,-0.12891 l -25.91991,-0.66016 -41.6875,-22.52343 c -0.0702,-0.0412 -0.14511,-0.066 -0.22266,-0.0703 -0.0104,-7.2e-4 -0.0186,-0.008 -0.0293,-0.008 l -51.38085,-1.67968 c -0.0255,-0.002 -0.0396,0.0304 -0.0645,0.0332 -0.0627,0.009 -0.10821,0.0531 -0.16406,0.084 -0.068,0.0385 -0.15434,0.038 -0.20117,0.10352 -0.0289,0.045 1.3e-4,0.10306 -0.0137,0.1543 -0.0293,0.0898 -0.0448,0.17169 -0.0215,0.26171 0.006,0.0221 -0.0152,0.043 -0.006,0.0645 l 15.13086,34.25976 c 0.02,0.04 0.0801,0.11914 0.0801,0.11914 l 28.7207,33.6211 c 0.04,0.05 0.0789,0.0794 0.12891,0.10937 5.31999,3.09 10.95954,6.28024 16.76953,9.49024 24.17998,13.37998 48.47165,25.39899 72.18163,35.70898 l 0.11914,0.0508 c 0.32,0.15 0.65071,0.28969 0.9707,0.42969 14.10999,6.10999 28.16861,11.69961 41.8086,16.59961 13.89998,4.98999 27.55056,9.33016 40.56055,12.91016 13.70998,3.77999 27.05063,6.8007 39.64062,8.9707 6.91514,1.18916 13.61901,2.13846 19.95508,2.81836 10e-4,1.8e-4 0.002,0.002 0.004,0.002 1.57999,0.18 3.12992,0.32875 4.66992,0.46875 0.003,2.9e-4 0.007,-2.9e-4 0.01,0 7.55999,0.7 14.95048,1.05078 21.98047,1.05078 l -0.01,-0.01 c 0.89999,0 1.78992,-0.01 2.66992,-0.0195 2.72999,-0.03 5.59,-0.13101 8.5,-0.29101 23.74997,-1.34 43.3297,-7.07931 58.17969,-17.0293 l 0.39087,-0.23046 c 6.94999,-3.76999 13.09001,-8.72977 18.25,-14.75976 5.10999,-5.98 9.04946,-12.76063 11.68945,-20.14063 l 0.28125,-0.67968 c 0.09,-0.19 0.18,-0.39055 0.25,-0.56055 3.27,-7.23999 5.56985,-15.34009 6.83985,-24.08008 0.23,-1.52 0.43008,-3.06938 0.58007,-4.60937 0.7,-6.62 0.84922,-13.74064 0.44922,-21.14063 -0.01,-0.13 -0.0797,-0.25961 -0.17968,-0.34961 -0.11,-0.08 -0.24086,-0.12937 -0.38086,-0.10937 l -13.34961,1.52929 c -0.08,0.01 -0.14875,0.0401 -0.21875,0.0801 l -22.30078,14.87109 9.85937,-57.40039 c 0.03,-0.18 -0.0394,-0.37046 -0.18945,-0.48046 -0.15,-0.11 -0.34953,-0.12883 -0.51953,-0.0488 l -60.59961,28.96875 30.98047,-98.12891 0.0293,-0.0605 c 0.006,-0.0135 -0.001,-0.0273 0.004,-0.041 l 0.006,-0.0195 c 0.002,-0.006 -0.004,-0.013 -0.002,-0.0195 0.0393,-0.13711 0.0141,-0.26485 -0.0566,-0.38086 -0.003,-0.006 0.002,-0.014 -0.002,-0.0195 l -62.28711,-96.75585 -0.0137,-0.0664 -0.0254,0.006 -0.0332,-0.0527 c -0.01,-0.03 -0.041,-0.0703 -0.041,-0.0703 l -0.92969,-1.43945 c -0.08,-0.14 -0.23062,-0.23047 -0.39062,-0.23047 -0.15,-0.01 -0.31016,0.0597 -0.41016,0.17969 l -75.47851,92.20897 c -0.06,0.08 -0.11133,0.18125 -0.11133,0.28125 l -5.58008,72.40039 -46.17969,-126.05077 c -0.04,-0.09 -0.0899,-0.17047 -0.16992,-0.23047 l -65.95897,-50.33984 c -0.01,-0.008 -0.0249,0.003 -0.0352,-0.004 -0.0479,-0.0307 -0.0814,-0.0845 -0.13672,-0.0977 z m 0.23242,2.22461 20.00976,38.01757 -19.32226,48.625 -5.79882,-29.86523 z m 1.63477,0.43359 61.38866,46.84766 -7.69531,0.79687 -26.84961,-5.74023 z m 3.91405,7.98437 22.18946,34.64844 c 0.08,0.11 0.19031,0.19071 0.32031,0.22071 l 26.89453,5.75 55.86914,137.72655 -4.51758,36.00586 -42.125,-25.88281 -43.15039,-159.01953 -0.0352,0.01 c -0.01,-0.0394 0.014,-0.0823 -0.006,-0.11914 z m 187.86524,2.79493 4.90429,59.39453 -47.6875,57.42382 -31.59179,-25.96289 z m 1.1289,1.5039 13.08008,62.01367 -51.50586,48.26171 43.10156,-51.90428 c 0.08,-0.1 0.11938,-0.23133 0.10938,-0.36133 z m 1.28906,1.26563 59.55665,92.51366 -46.76172,-31.85351 z m -175.37304,25.58203 42.77344,157.63866 -2.6836,11.46484 -2.84961,4.89844 -56.64061,-125.15819 z m 43.73047,8.60547 1,0.75781 46.87304,127.95116 -0.98437,7.84961 -55.05274,-135.71093 z m 144.00976,27.39648 48.31055,32.92187 -53.96094,114.9082 -41.07812,84.65039 c -0.005,0.008 -0.007,0.0111 -0.0117,0.0195 -0.33,0.6 -0.63086,1.20078 -0.88086,1.80078 -0.01,0.01 -0.0195,0.0508 -0.0195,0.0508 -1.09897,2.63753 -1.50105,5.26297 -1.24414,7.82227 -12.19394,-2.12939 -25.07146,-5.04227 -38.31641,-8.67383 l 19.83008,-39.89844 31.14062,-88.99023 c 0.05,-0.11 0.05,-0.23961 0,-0.34961 l -20.6582,-50.9668 z m -89.4414,27.55859 31.55273,25.9375 20.6582,50.97461 -30.76757,87.92382 -32.97266,-44.5039 5.83789,-46.57813 c 7.4e-4,-0.006 0.0112,-0.006 0.0117,-0.0117 z m -106.91602,11.52929 45.24414,99.9668 -2.41015,4.14453 z m 242.56836,0.6543 -29.06055,92.02539 -21.08789,14.77344 z m -348.51757,51.66992 49.46485,1.61719 36.00195,32.01172 c 0.02,0.01 0.0586,0.0391 0.0586,0.0391 l 45.84179,40.75 -97.71093,-51.79883 z m -0.44922,1.15821 33.30469,27.65039 15.29102,19.09961 9.7832,27.76953 c -5.353,-2.96396 -10.59361,-5.91423 -15.51367,-8.76953 v 0.0215 l -28.60938,-33.5 z m 53.73438,2.50781 37.93164,20.49219 c 0.07,0.04 0.15047,0.0605 0.23047,0.0605 l 25.8496,0.65039 30.84179,28.02149 -8.71679,14.98632 -28.70508,-32.16796 c -0.1,-0.12 -0.23063,-0.17993 -0.39063,-0.16993 l -4.53906,0.19922 -19.74999,-2.95898 z m -47.12891,1.67187 26.98047,18.13086 101.14257,53.62696 -1.19336,11.17187 -84.15429,-40.97461 -15.33593,-19.1543 -0.0703,-0.0703 z m 373.6289,7.50782 -32.61914,46.89257 -40.92188,-1.92578 z m 0.8457,0.52734 -9.67383,56.29492 c -4.8e-4,0.003 0.004,0.005 0.004,0.008 l -5.38477,18.60352 -1.3125,1.40234 -16.26562,-29.39062 z m -7.60547,2.43945 -68.66992,41.9961 c -0.07,0.04 -0.12992,0.0999 -0.16992,0.16992 l -16.76758,28.76758 -26.03711,44.66211 36.125,-74.44922 22.62695,-15.85743 z m -214.07812,15.66602 41.51172,25.50976 31.79687,42.92969 -62.01953,-42.9082 z m -0.93164,0.30078 11.25781,25.4707 -37.37695,55.0625 c -0.11832,-0.052 -0.23449,-0.10159 -0.35352,-0.15429 l 3.76367,-35.19922 20.26953,-34.83985 c 0.02,-0.05 0.0508,-0.14062 0.0508,-0.14062 z m -70.61913,2.20898 18.33006,2.74024 4.40039,-0.17969 28.76172,32.24219 -4.20703,7.23437 z m -37.92774,14.68164 83.5039,40.6543 -2.39453,22.40625 c -23.44535,-10.2187 -47.44089,-22.10148 -71.33202,-35.3125 z m 358.12695,4.59961 c 0.35285,7.01799 0.19351,13.74459 -0.44336,20.05469 l -24.42774,3.25977 12.33594,-21.875 z m -14.29102,2.51953 -11.88086,21.06446 -14.51172,10.42187 4.97656,-17.21484 z m -223.33984,2.22461 63.86132,44.1875 -19.70312,39.6211 c -12.87414,-3.54982 -26.35456,-7.84256 -40.09766,-12.77344 -13.42939,-4.82511 -27.2895,-10.33249 -41.1914,-16.33789 z m 134.9414,0.73438 41.4961,1.95312 -72.71485,92.96485 c -6.11128,-0.66442 -12.58379,-1.57557 -19.23828,-2.7168 -0.30253,-2.47683 0.0699,-5.03898 1.15625,-7.63086 0.005,-0.0102 0.009,-0.0269 0.0156,-0.041 l 16.78515,-28.80079 z m 42.43946,2.38086 16.17968,29.24023 -85.09961,63.7793 c -0.16007,-0.0149 -0.32393,-0.0319 -0.48437,-0.0469 -1.01629,-0.0995 -2.04236,-0.20271 -3.07617,-0.31054 l 0.002,-0.002 z m 59.70117,13.2168 c -0.12916,1.20341 -0.28065,2.40952 -0.45899,3.60546 l -38.16211,9.45704 13.54102,-9.71876 z m -0.63282,4.67578 c -1.26698,8.28308 -3.45316,15.9681 -6.54687,22.86328 l -88.47266,53.01172 0.0117,0.0176 c -2.4091,0.13087 -4.75215,0.19483 -7.04883,0.23438 l 60.16797,-64.2793 1.77735,-1.90039 z m -46.47851,15.28515 -56.97656,60.88086 c -7.33107,0.0784 -15.07359,-0.24208 -23.02149,-0.92969 z m 39.26562,9.14258 c -2.60972,7.25585 -6.46867,13.90604 -11.48437,19.7793 -5.08,5.92999 -11.13024,10.82102 -17.99024,14.54101 l -0.42968,0.25977 c -14.29543,9.58532 -33.05034,15.1816 -55.70703,16.7168 z" />
  <path
     d="m 767.38865,694.54851 -0.28,-0.28 -242.09,-239.43999 c -39.28999,40.70999 -95.57999,64.04999 -154.51999,64.04999 -36.03,0 -71.5,-8.69 -102.57001,-25.12 l -0.12,-0.08 c -22.35,-21.85999 -46.11,-46.20999 -60.9,-61.70999 -10.35,-11.76 -20.29,-23.66 -29.54,-35.36 l -0.07,-0.12 c -9.27,-22.09 -13.98,-45.44 -13.98,-69.38 0,-105.73001 92.94,-191.75001 207.17001,-191.75001 23.67,0 46.34,3.58 69.31,10.95 l 0.1,0.05 c 16.38,9.77 35.36,21.24 53.31,33.65 14.42999,10.02 28.87999,21.2 43.63999,32.72 l 0.08,0.08 c 13.11,16.64 23.19,34.54 29.96,53.2 1.46,4.04 0.88,8.38 -1.59,11.9 -2.47,3.53 -6.35,5.55 -10.65,5.55 h -39.56 l -0.09,-0.39 c -17.4,-77.11 -77.03999,-130.96 -145.00999,-130.96 -83.55001,0 -151.52001,78.88 -151.52001,175.83001 0,96.95 67.62,175.75999 150.75001,175.75999 24.14,0 48.1,-6.79 69.29,-19.64999 0.16,-0.07 0.23,-0.11 0.29,-0.15 2.11,-1.17 4.17,-2.5 6.17,-3.96 2.48,-1.81 4.84,-3.82 7.21,-6.13 1.37,-1.34 2.69,-2.78 3.92,-4.27 1.74,-2.06 3.4,-4.33 4.94,-6.75 v -0.35 h 0.23 c 1.09,-1.76 2.02,-3.41 2.84,-5.04 v 0 c 0,0 0.06,-0.13 0.06,-0.13 0.45,-0.87 0.89,-1.79 1.3,-2.73 1.13,-2.51 2.11,-5.24 3.07,-8.6 0.3,-1.04 0.53,-2.06 0.7,-2.83 0.19,-0.88 0.42,-1.91 0.58,-2.93 0.04,-0.26 0.09,-0.51 0.16,-0.81 0.15,-0.83 0.26,-1.68 0.37,-2.55 0,0 0,0 0,0 0,0 0,-0.07 0.02,-0.14 v -0.14 c 0.2,-1.6 0.33,-3.15 0.39,-4.61 0,-0.1 0,-0.22 0.01,-0.31 0.1,-2.41 0.06,-4.84 -0.12,-7.32 l -0.02,-0.33 v 0 c -0.08,-1.04 -0.19,-2.04 -0.32,-2.98 -0.26,-2.2 -0.64,-4.38 -1.13,-6.47 -0.7,-3.05 -1.7,-6.22 -2.98,-9.43 -0.89,-2.19 -1.84,-4.22 -2.8,-6.03 l -0.21,-0.4 v 0 c 0,0 -0.09,-0.17 -0.09,-0.17 -0.19,-0.36 -0.39,-0.71 -0.58,-1.08 l -0.19,-0.34 c -0.24,-0.42 -0.48,-0.84 -0.72,-1.24 -0.66,-1.1 -1.33,-2.14 -1.99,-3.09 -3.35,-4.93 -7.36,-9.35 -11.92,-13.16 -0.2,-0.16 -0.42,-0.33 -0.63,-0.5 -0.19,-0.15 -0.38,-0.3 -0.56,-0.45 v 0 l -0.16,-0.11 c -9.8,-7.81 -21.53,-12.58 -33.9,-13.8 -4.2,-0.42 -8.43,-0.42 -12.58,0 h -22.62 c -13.43,-0.81 -24.52,-11.03 -26.4,-24.3 l -0.08,-0.57 h 119.82 c 0.51,-0.03 1.03,-0.05 1.56,-0.05 7.67,0 14.82,3.04 20.14,8.56 l 0.09,0.08 307.96999,307.30999 -0.13,0.31 c -0.29,0.66 -0.58,1.33 -0.89,1.98 l -0.16,0.41 c -2.64,7.38 -6.58,14.16 -11.69,20.14 -5.16,6.03 -11.3,10.99 -18.25,14.76 l -0.39,0.23 c -0.36,0.24 -0.74,0.49 -1.13,0.74 l -0.34,0.21 z m -242.4,-241.13999 242.53,239.86999 c 0.27,-0.17 0.53,-0.34 0.79,-0.52 l 0.43,-0.26 c 6.86,-3.72 12.91,-8.61 17.99,-14.54 5.03,-5.89 8.91,-12.56 11.51,-19.84 l 0.18,-0.45 c 0.27,-0.57 0.51,-1.12 0.75,-1.67 l -243.93,-243.39999 -63.63999,-63.5 c -5.52,-5.72 -13.07,-8.68 -20.98,-8.22 h -118.69 c 2.04,12.53 12.62,22.11 25.35,22.88 h 22.53 c 4.16,-0.43 8.46,-0.43 12.73,0 12.52,1.23 24.39,6.04 34.32,13.92 l 0.12,0.08 c 0.24,0.18 0.47,0.37 0.72,0.57 0.21,0.17 0.42,0.34 0.63,0.5 4.64,3.88 8.71,8.37 12.11,13.37 0.67,0.97 1.35,2.03 2.02,3.14 0.25,0.41 0.49,0.84 0.74,1.26 l 0.2,0.35 c 0.2,0.38 0.39,0.73 0.58,1.08 l 0.16,0.3 h 0.07 l 0.16,0.45 c 0.95,1.8 1.87,3.8 2.75,5.96 1.3,3.26 2.32,6.48 3.03,9.58 0.49,2.13 0.88,4.34 1.15,6.57 0.14,0.98 0.25,2.03 0.33,3.12 l 0.05,0.05 -0.03,0.3 c 0.18,2.48 0.22,4.92 0.11,7.24 v 0.17 c -0.01,0.06 0,0.14 0,0.21 -0.06,1.5 -0.19,3.08 -0.38,4.71 0,0.01 0,0.1 -0.02,0.17 v 0.11 c -0.12,0.88 -0.24,1.75 -0.39,2.61 -0.06,0.29 -0.11,0.53 -0.15,0.77 -0.17,1.05 -0.4,2.09 -0.59,2.98 -0.17,0.79 -0.41,1.83 -0.72,2.89 -0.98,3.4 -1.97,6.17 -3.12,8.73 -0.4,0.92 -0.83,1.82 -1.27,2.69 l -0.05,0.11 c -0.89,1.76 -1.89,3.54 -3.08,5.43 l -0.15,0.23 c -1.55,2.42 -3.22,4.7 -4.97,6.78 -1.26,1.51 -2.6,2.97 -3.99,4.34 -2.41,2.35 -4.81,4.38 -7.32,6.22 -2.03,1.49 -4.13,2.84 -6.24,4.01 -0.07,0.05 -0.21,0.14 -0.38,0.2 -21.26,12.90999 -45.4,19.74999 -69.72,19.74999 -83.67001,0 -151.75001,-79.28999 -151.75001,-176.75999 0,-97.47001 68.42,-176.83001 152.52001,-176.83001 34.16,0 66.32,12.96 93.01,37.48 25.7,23.6 44.46999,56.93 52.88999,93.88 h 38.76 c 3.96,0 7.54,-1.87 9.83,-5.12 2.28,-3.25 2.82,-7.26 1.47,-10.99 -6.73,-18.55 -16.75,-36.34 -29.77,-52.88 -14.73,-11.5 -29.15,-22.65 -43.54999,-32.65 -17.91,-12.38 -36.85,-23.82 -53.21,-33.58 -22.84,-7.33 -45.4,-10.89 -68.95,-10.89 -113.68001,0 -206.17001,85.57 -206.17001,190.75001 0,23.79 4.67,46.98 13.87,68.93 9.23,11.67 19.14,23.53 29.45,35.25 14.75,15.47 38.48,39.78 60.81,61.61999 30.91001,16.34 66.19001,24.97 102.04001,24.97 58.85,0 115.04,-23.37 154.14999,-64.10999 l 0.35,-0.37 z"
     id="gall"
     style="display:inline" />
  <path
     d="m 774.07865,769.45851 c -38.19,0 -84.94,-10.22 -138.96,-30.38 -104.22,-38.9 -226.71999,-112.64 -336.06999,-202.31 l 0.23,-0.47 -0.32,0.38 C 190.17865,444.00852 101.33865,341.45852 48.808652,247.90851 c -53.5099998,-95.27 -63.39,-171.079997 -27.82,-213.449997 35.34,-42.1100002 111.109998,-45.75 213.339998,-10.23 100.29001,34.84 215.88001,103.559997 325.51,193.519997 h 0.33 c 0,0 0,0.29 0,0.29 108.41,92.40001 203.38,200.79001 260.55,297.4 60.07,101.5 73.76,180.5 38.55,222.45 -17.58,20.95 -46.24,31.57 -85.19,31.57 z M 112.43865,0.98851283 c -40.659998,0 -71.629998,11.40000017 -90.689998,34.12000017 -35.28,42.03 -25.3599998,117.429997 27.92,212.309997 52.479998,93.44001 141.239998,195.90001 249.930008,288.5 l 0.1,0.09 c 109.26,89.59 231.64999,163.27 335.76999,202.13 53.91,20.12 100.54,30.32 138.61,30.32 38.07,0 67.05,-10.5 84.43,-31.22 34.91,-41.6 21.19,-120.19 -38.65,-221.3 -57.13,-96.53999 -152.03,-204.84999 -260.38,-297.18 h -0.02 l -0.23,-0.21 c -109.57999,-89.93 -225.05999,-158.579997 -325.22,-193.379997 -46.47,-16.1400002 -87.43,-24.18000017 -121.57,-24.18000017 z"
     id="borde-ext"
     style="display:inline" />
  <path
     d="m 699.80865,711.27851 c -7.03,0 -14.42,-0.35 -21.97,-1.05 -1.54,-0.14 -3.09,-0.29 -4.67,-0.47 -6.33,-0.68 -13.05,-1.63 -19.96,-2.81 -12.59,-2.17 -25.92,-5.19 -39.62,-8.97 -13.01,-3.57 -26.65,-7.92 -40.54,-12.91 -13.63,-4.9 -27.69,-10.48 -41.8,-16.59 -0.36,-0.15 -0.72,-0.32 -1.09,-0.48 -23.7,-10.31 -47.97999,-22.32 -72.15999,-35.7 -5.82,-3.22 -11.46,-6.41 -16.76,-9.48 -46.73,-27.07 -92.4,-58.66 -135.74,-93.89 -24.57001,-21.09 -72.14001,-69.27999 -98.13001,-96.51999 -59.15,-67.17 -101.38,-134.84 -122.129998,-195.72001 -7.63,-22.39 -12.14,-43.36 -13.4,-62.32 -0.28,-4.23 -0.41,-8.42 -0.37,-12.44 0.01,-1.15 0.03,-2.3 0.06,-3.43 0.45,-13.49 2.75,-25.94 6.86,-37 3.64,-9.74 8.72,-18.54 15.11,-26.159997 3.26,-3.88 6.939998,-7.51 10.939998,-10.78 0.73,-0.61 1.42,-1.16 2.13,-1.69 22.32,-17.14 55.54,-24.96 96.08,-22.6 0.59,0.02 1.17,0.06 1.77,0.11 8.16,0.52 16.76,1.46 25.54,2.8 0.45,0.06 0.87,0.12 1.3,0.21 3.4,0.52 7.01,1.14 10.72,1.85 0.72,0.13 1.45,0.26 2.18,0.42 2.43,0.47 4.84,0.96 7.17,1.46 11.84,2.54 24.21,5.78 36.78,9.62 25.36001,7.76 51.98001,18.1 79.10001,30.729997 3.17,1.47 6.54,3.07 10.03,4.76 20.92,10.11 42.28,21.65 63.49,34.3 5.8,3.46 11.51,6.95 16.96,10.37 12.11,7.59 24.19,15.54 35.89,23.64 19.97999,13.89 40.11999,29.05 59.83999,45.08 144.46,123.77001 249.07,280.92 254.42,382.17 0.4,7.4 0.25,14.51 -0.45,21.13 -0.15,1.53 -0.35,3.08 -0.58,4.61 -1.27,8.74 -3.57,16.84 -6.84,24.07 -0.07,0.17 -0.16,0.36 -0.24,0.55 l -0.29,0.69 c -2.64,7.37 -6.57,14.15 -11.68,20.13 -5.15,6.03 -11.29,10.99 -18.24,14.76 l -0.39,0.23 c -14.84,9.95 -34.42,15.68 -58.16,17.03 -2.92,0.16 -5.78,0.26 -8.5,0.29 -0.88,0.01 -1.77,0.02 -2.66,0.02 z m -511.03,-650.419997 c -34.04,0 -62.05,7.79 -81.6,22.81 -0.69,0.52 -1.38,1.06 -2.09,1.66 -3.96,3.23 -7.599998,6.82 -10.819998,10.65 -6.32,7.529997 -11.34,16.229997 -14.94,25.859997 -4.07,10.96 -6.35,23.31 -6.8,36.69 -0.03,1.12 -0.05,2.26 -0.06,3.41 -0.04,4 0.08,8.16 0.36,12.36 1.26,18.88 5.75,39.76 13.35,62.07 20.709998,60.76001 62.869998,128.32001 121.919998,195.37001 25.96,27.22 73.51,75.36999 98.03001,96.42999 43.29,35.19 88.91,66.74 135.6,93.79 5.3,3.07 10.93,6.26 16.74,9.47 24.15,13.36 48.39999,25.36 72.07999,35.66 0.37,0.16 0.73,0.32 1.08,0.48 14.08,6.1 28.13,11.68 41.74,16.57 13.87,4.98 27.49,9.32 40.47,12.89 13.67,3.77 26.97,6.78 39.53,8.95 6.89,1.19 13.58,2.13 19.9,2.81 1.57,0.17 3.12,0.32 4.65,0.47 8.48,0.78 16.74,1.11 24.54,1.02 2.71,-0.03 5.55,-0.12 8.45,-0.28 23.56,-1.33 42.97,-7.01 57.68,-16.87 l 0.43,-0.26 c 6.86,-3.72 12.91,-8.61 17.98,-14.54 5.03,-5.89 8.9,-12.56 11.51,-19.83 l 0.31,-0.75 c 0.08,-0.18 0.16,-0.35 0.23,-0.53 3.23,-7.16 5.51,-15.17 6.77,-23.82 0.23,-1.51 0.43,-3.05 0.58,-4.56 v 0 c 0.69,-6.57 0.84,-13.63 0.44,-20.98 -5.33,-100.99 -109.8,-257.84999 -254.06,-381.45 -19.69,-16 -39.81,-31.15 -59.76999,-45.02 -11.69,-8.08 -23.75,-16.03 -35.85,-23.61 -5.44,-3.42 -11.14,-6.9 -16.94,-10.35 -21.18,-12.63 -42.52,-24.16 -63.41,-34.26 -3.49,-1.69 -6.86,-3.29 -10.02,-4.76 -27.08,-12.609997 -53.65,-22.939997 -78.97001,-30.679997 -12.54,-3.84 -24.89,-7.07 -36.7,-9.6 -2.32,-0.5 -4.73,-0.99 -7.15,-1.46 -0.73,-0.15 -1.45,-0.28 -2.17,-0.42 -3.69,-0.7 -7.29,-1.32 -10.7,-1.84 -0.43,-0.08 -0.83,-0.14 -1.24,-0.2 -8.79,-1.35 -17.36,-2.29 -25.5,-2.8 -0.59,-0.05 -1.16,-0.09 -1.74,-0.11 -4.71,-0.27 -9.33,-0.41 -13.83,-0.41 z"
     id="borde-int"
     style="display:inline" />
</svg>
