<?xml version="1.0" encoding="UTF-8" standalone="no"?>
<!-- Created with Inkscape (http://www.inkscape.org/) -->

<svg
   width="36.589226mm"
   height="40.856956mm"
   viewBox="0 0 36.589226 40.856956"
   version="1.1"
   id="logo-bhf"
   xmlns="http://www.w3.org/2000/svg"
   xmlns:svg="http://www.w3.org/2000/svg">
  <defs
     id="defs1" />
  <g
     transform="translate(-142.875,-132.55625)"
     id="g1">
    <g
       id="g27"
       transform="matrix(0.26458333,0,0,0.26458333,22.65363,74.564875)">
      <g
         id="g25">
        <polygon
           points="461.77,365.23 464.98,354.06 468.19,365.23 471.6,365.23 475.58,349.93 472.22,349.93 469.77,360.62 469.61,360.62 466.66,349.93 463.3,349.93 460.35,360.62 460.2,360.62 457.75,349.93 454.38,349.93 458.36,365.23 "
           id="polygon18" />
        <path
           d="m 481.04,353.65 c -3.02,0 -5.7,1.64 -5.7,5.88 0,4.24 2.84,5.92 5.73,5.92 2.64,0 4.65,-1.33 5.22,-3.93 h -2.82 c -0.26,0.92 -0.9,1.51 -2.36,1.51 -1.57,0 -2.56,-0.76 -2.73,-2.67 h 8 c 0.04,-0.24 0.07,-0.46 0.07,-0.87 0,-4.3 -2.47,-5.83 -5.4,-5.83 z m -2.66,4.83 c 0.22,-1.57 1.09,-2.4 2.58,-2.4 1.75,0 2.43,1.09 2.47,2.4 z"
           id="path19" />
        <path
           d="m 494.7,353.65 c -1.68,0 -2.93,0.87 -3.34,1.86 v -5.57 h -3.19 v 15.3 h 3.19 v -1.64 c 0.42,0.98 1.66,1.86 3.34,1.86 2.38,0 4.98,-1.73 4.98,-5.9 0,-4.17 -2.6,-5.9 -4.98,-5.9 z m -0.77,9.15 c -1.4,0 -2.71,-1.03 -2.71,-3.26 0,-2.23 1.31,-3.26 2.71,-3.26 1.4,0 2.73,1.03 2.73,3.26 0,2.23 -1.31,3.26 -2.73,3.26 z"
           id="path20" />
        <rect
           x="506.42999"
           y="349.92999"
           width="3.28"
           height="15.3"
           id="rect20" />
        <path
           d="m 525.66,353.65 c -2.14,0 -3.39,1.55 -3.61,2.6 -0.52,-1.75 -1.86,-2.6 -3.43,-2.6 -1.99,0 -3.15,1.53 -3.32,2.6 h -0.13 v -2.38 h -3.19 v 11.36 h 3.19 v -6.45 c 0,-1.73 0.92,-2.49 2.05,-2.49 1.13,0 1.88,0.76 1.88,2.49 v 6.45 h 3.19 v -6.45 c 0,-1.73 0.92,-2.49 2.05,-2.49 1.13,0 1.88,0.76 1.88,2.49 v 6.45 h 3.19 v -7.21 c 0,-2.95 -1.6,-4.37 -3.76,-4.37 z"
           id="path21" />
        <path
           d="m 538.22,353.65 c -1.68,0 -2.93,0.87 -3.34,1.86 v -1.64 h -3.19 v 19.73 h 3.19 v -10.01 c 0.42,0.98 1.66,1.86 3.34,1.86 2.38,0 4.98,-1.73 4.98,-5.9 0,-4.17 -2.6,-5.9 -4.98,-5.9 z m -0.77,9.15 c -1.4,0 -2.71,-1.03 -2.71,-3.26 0,-2.23 1.31,-3.26 2.71,-3.26 1.4,0 2.73,1.03 2.73,3.26 0,2.23 -1.31,3.26 -2.73,3.26 z"
           id="path22" />
        <path
           d="m 550.02,353.65 c -3.54,0 -5.03,1.27 -5.03,3.5 v 0.52 h 2.99 v -0.22 c 0,-1.18 0.92,-1.51 1.95,-1.51 1.03,0 1.77,0.33 1.77,1.53 v 0.15 c 0,0.63 -0.33,0.81 -1.38,0.96 l -1.92,0.28 c -1.97,0.28 -4.02,0.83 -4.02,3.34 0,2.34 1.79,3.23 3.65,3.23 2.49,0 3.41,-1.62 3.63,-2.23 h 0.13 v 2.01 h 3.04 v -7.89 c 0,-2.47 -1.38,-3.69 -4.81,-3.69 z m 1.68,7.62 c 0,0.9 -1.07,1.9 -2.58,1.9 -1.09,0 -1.55,-0.52 -1.55,-1.22 0,-0.59 0.33,-1.07 1.31,-1.22 l 1.6,-0.28 c 0.5,-0.09 1.05,-0.17 1.22,-0.44 v 1.27 z"
           id="path23" />
        <path
           d="m 562.14,356.31 c 1.22,0 2.05,0.57 2.34,1.95 h 2.88 c -0.42,-3.82 -3.21,-4.61 -5.2,-4.61 -2.8,0 -5.73,1.68 -5.73,5.92 0,4.24 2.93,5.88 5.73,5.88 2.01,0 4.85,-0.83 5.2,-4.65 h -2.88 c -0.28,1.35 -1.07,1.99 -2.34,1.99 -1.81,0 -2.69,-1.33 -2.69,-3.21 0,-1.88 0.87,-3.26 2.69,-3.26 z"
           id="path24" />
        <path
           d="m 574.95,362.82 c -1.18,0 -1.44,-0.59 -1.44,-1.46 v -5.03 h 2.25 v -2.47 h -2.25 v -3.93 h -3.19 v 3.93 h -1.92 v 2.47 h 1.92 v 5.48 c 0,2.53 1.51,3.56 3.78,3.56 0.63,0 1.25,-0.09 1.75,-0.22 v -2.38 c -0.46,0.04 -0.66,0.04 -0.9,0.04 z"
           id="path25" />
      </g>
      <path
         d="M 575.84,301.35 V 219.18 H 454.38 V 340.64 H 575.84 V 335 c -9.28,0 -16.82,-7.52 -16.82,-16.82 0,-9.3 7.54,-16.83 16.82,-16.83 z m -28.32,16.6 c -2.79,5.63 -6.6,9.97 -11.41,13.01 -4.81,3.05 -10.18,4.57 -16.11,4.57 -5.07,0 -9.49,-1.01 -13.27,-3.03 -3.78,-2.02 -6.75,-4.7 -8.89,-8.05 v 5.9 c 0,2.29 -1.86,4.15 -4.15,4.15 H 475.81 V 219.18 h 22.03 v 49.51 c 0,1.27 1.55,1.85 2.41,0.91 1.77,-1.93 3.93,-3.57 6.49,-4.93 3.86,-2.06 8.29,-3.09 13.27,-3.09 5.93,0 11.3,1.5 16.11,4.51 4.81,3.01 8.61,7.3 11.41,12.88 2.79,5.59 4.18,12.07 4.18,19.46 0,7.39 -1.4,13.89 -4.18,19.52 z"
         id="path26" />
      <path
         d="m 592.67,318.18 c 0,9.29 -7.54,16.82 -16.83,16.82 v -33.64 c 9.29,0 16.83,7.54 16.83,16.83 z"
         id="path27" />
    </g>
  </g>
</svg>
