<?xml version="1.0" encoding="UTF-8" standalone="no"?>
<?xml version="1.0" encoding="UTF-8" standalone="no"?><svg
   viewBox="0 0 300.01141 300.10529"
   id="svg51"
   width="300.01141"
   height="300.10529"
   version="1.1"
   xmlns="http://www.w3.org/2000/svg"
   xmlns:svg="http://www.w3.org/2000/svg">
  <defs
     id="defs1">
    <style
       id="style1" />
  </defs>
  <path
     id="orbita-5"
     class="orb-stroke-dash"
     d="M 300.01141,150.26945 A 149.83583,149.83583 0 0 1 150.17558,300.10529 149.83583,149.83583 0 0 1 0.33975321,150.26945 149.83583,149.83583 0 0 1 150.17558,0.43362543 149.83583,149.83583 0 0 1 300.01141,150.26945 Z">
    <title
       id="title28">orbita-5</title>
  </path>
  <g
     id="orbita-4-g"
     transform="matrix(0.32850091,0,0,0.32850091,0.1754976,0.26936806)">
    <title
       id="title54">orbita-4-g</title>
    <path
       id="orbita-4"
       class="orb-stroke"
       d="M 834.92999,456.62 A 378.31,378.31 0 0 1 456.62,834.92999 378.31,378.31 0 0 1 78.309998,456.62 378.31,378.31 0 0 1 456.62,78.309998 378.31,378.31 0 0 1 834.92999,456.62 Z">
      <title
         id="title25">orbita-4</title>
    </path>
    <g
       id="icono-4"
       transform="translate(-796.97424,-369.77)">
      <title
         id="title59">orbita-4-icono</title>
      <circle
         class="orb-fill"
         cx="831.44"
         cy="403.95001"
         r="35"
         id="orbita-4-elemento">
        <title
           id="title24">orbita-4-elemento</title>
      </circle>
      <path
         class="orb-stroke-fill"
         d="m 837.48,405.39 -2.07,-2.06 -1.22,-1.22 v 0 c -0.26,-0.27 -0.62,-0.44 -1.02,-0.44 -0.03,0 -0.05,0 -0.08,0 h -6.17 c 0.1,0.67 0.65,1.19 1.34,1.23 h 1.17 c 0.22,-0.02 0.44,-0.02 0.66,0 0.63,0.06 1.24,0.3 1.77,0.72 v 0 c 0,0 0.05,0.04 0.07,0.06 0.24,0.2 0.45,0.44 0.62,0.69 0.04,0.05 0.07,0.11 0.1,0.16 0.02,0.03 0.03,0.06 0.05,0.08 0.01,0.03 0.03,0.06 0.05,0.08 q 0,0 0,0 c 0.05,0.1 0.1,0.21 0.15,0.31 0.06,0.16 0.12,0.32 0.16,0.49 0.03,0.11 0.05,0.22 0.06,0.34 0,0.06 0.01,0.11 0.02,0.17 0,0 0,0 0,0 0,0.13 0.01,0.25 0,0.38 v 0 c 0,0 0,0.02 0,0.02 0,0.08 0,0.16 -0.02,0.24 0,0 0,0.01 0,0.01 0,0.05 -0.01,0.09 -0.02,0.13 0,0.01 0,0.03 0,0.04 0,0.05 -0.02,0.1 -0.03,0.15 -0.01,0.05 -0.02,0.1 -0.04,0.15 -0.04,0.15 -0.09,0.3 -0.16,0.45 -0.02,0.05 -0.04,0.1 -0.07,0.14 v 0 c -0.05,0.1 -0.1,0.19 -0.16,0.28 q 0,0 0,0 c -0.08,0.12 -0.16,0.24 -0.26,0.36 -0.07,0.08 -0.13,0.15 -0.2,0.22 -0.12,0.12 -0.24,0.22 -0.38,0.32 -0.1,0.08 -0.21,0.14 -0.32,0.21 0,0 0,0 -0.02,0 -1.08,0.65 -2.3,1.02 -3.6,1.02 -4.32,0 -7.82,-4.08 -7.82,-9.11 0,-5.03 3.54,-9.12 7.86,-9.12 3.63,0 6.64,2.89 7.52,6.79 h 2.03 c 0.45,0 0.76,-0.45 0.61,-0.87 -0.36,-1 -0.88,-1.93 -1.54,-2.77 -0.75,-0.58 -1.5,-1.14 -2.26,-1.67 -0.9,-0.62 -1.81,-1.21 -2.72,-1.75 -1.13,-0.36 -2.35,-0.56 -3.62,-0.56 -5.9,0 -10.69,4.43 -10.69,9.89 0,1.26 0.26,2.47 0.72,3.58 0.48,0.61 0.99,1.22 1.53,1.83 0.81,0.85 2.03,2.1 3.15,3.19 1.56,0.83 3.37,1.3 5.29,1.3 3.18,0 6.03,-1.28 7.99,-3.32 l 12.54,12.4 c 0,0 0.04,-0.03 0.06,-0.04 h 0.02 c 0.36,-0.21 0.67,-0.46 0.94,-0.77 0.26,-0.31 0.46,-0.65 0.6,-1.03 v -0.02 c 0,0 0.04,-0.07 0.05,-0.1 l -12.63,-12.6 z"
         id="orbita-4-icono-2">
        <title
           id="title27">orbita-4-icono-2</title>
      </path>
      <path
         class="orb-stroke-fill"
         d="m 854.14,419.23 c 0.03,-2.21 -0.97,-5.11 -2.98,-8.5 -2.96,-5 -7.87,-10.6 -13.48,-15.39 0,0 0,0 0,0 v 0 c 0,0 0,0 0,0 -5.67,-4.65 -11.65,-8.21 -16.83,-10.01 -3.93,-1.37 -7.1,-1.61 -9.22,-0.75 0,0 0,0 0,0 -0.74,0.28 -1.36,0.7 -1.83,1.26 -0.71,0.85 -1.04,1.96 -1.03,3.28 -0.02,2.09 0.83,4.73 2.52,7.74 2.72,4.84 7.31,10.14 12.93,14.93 v 0 c 0,0 0,0 0,0 5.65,4.64 11.99,8.45 17.38,10.46 2.8,1.05 5.23,1.57 7.18,1.57 0.03,0 0.07,0 0.1,0 1.93,0.02 3.44,-0.47 4.34,-1.55 0.66,-0.78 0.95,-1.82 0.93,-3.05 z m -4.03,-1.24 c 0,0 -0.03,0.07 -0.05,0.1 v 0.02 c -0.14,0.38 -0.35,0.73 -0.61,1.03 -0.26,0.31 -0.58,0.56 -0.94,0.76 h -0.02 c 0,0 -0.04,0.04 -0.06,0.05 -0.88,0.57 -2.07,0.85 -3.51,0.85 -1.82,0 -4.04,-0.45 -6.55,-1.35 -4.51,-1.62 -9.42,-4.49 -13.83,-8.07 -0.5,-0.43 -1.19,-1.08 -1.93,-1.8 -1.12,-1.09 -2.34,-2.34 -3.15,-3.19 -0.54,-0.61 -1.05,-1.22 -1.53,-1.83 -2.26,-2.86 -3.9,-5.69 -4.79,-8.29 -1.08,-3.16 -0.93,-5.68 0.42,-7.29 1.47,-1.75 4.36,-2.26 8.14,-1.45 2.99,0.64 6.39,2.08 9.81,4.11 0.91,0.54 1.82,1.13 2.72,1.75 0.75,0.52 1.51,1.08 2.26,1.67 0.28,0.22 0.56,0.44 0.84,0.67 9.05,7.76 14.74,17.69 12.77,22.26 z"
         id="orbita-4-icono-1">
        <title
           id="title26">orbita-4-icono-1</title>
      </path>
    </g>
  </g>
  <g
     id="orbita-3-g"
     transform="matrix(0.32850091,0,0,0.32850091,0.1754976,0.26936806)">
    <title
       id="title53">orbita-3-g</title>
    <path
       id="orbita-3"
       class="orb-stroke"
       d="m 757.12,456.62 a 300.5,300.5 0 0 1 -300.5,300.5 300.5,300.5 0 0 1 -300.5,-300.5 300.5,300.5 0 0 1 300.5,-300.5 300.5,300.5 0 0 1 300.5,300.5 z">
      <title
         id="title17">orbita-3</title>
    </path>
    <g
       id="icono-3"
       transform="translate(-186.41424,-236.06999)">
      <title
         id="title58">orbita-3-icono</title>
      <circle
         class="orb-fill"
         cx="220.88"
         cy="270.25"
         r="35"
         id="orbita-3-elemento">
        <title
           id="title16">orbita-3-elemento</title>
      </circle>
      <polygon
         class="orb-stroke2"
         points="235.88,263.02 205.89,263.02 205.89,268.09 217.17,281.96 217.17,295.44 224.6,292.92 224.6,281.96 235.88,268.09 "
         id="orbita-3-icono-6">
        <title
           id="title23">orbita-3-icono-6</title>
      </polygon>
      <line
         class="orb-stroke2"
         x1="217.17"
         y1="281.95999"
         x2="224.60001"
         y2="281.95999"
         id="orbita-3-icono-5">
        <title
           id="title22">orbita-3-icono-5</title>
      </line>
      <line
         class="orb-stroke2"
         x1="205.89"
         y1="268.09"
         x2="219.66"
         y2="268.09"
         id="orbita-3-icono-4">
        <title
           id="title21">orbita-3-icono-4</title>
      </line>
      <circle
         class="orb-stroke2"
         cx="228.00999"
         cy="256.75"
         r="3.1400001"
         transform="rotate(-76.72,227.9959,256.74865)"
         id="orbita-3-icono-3">
        <title
           id="title20">orbita-3-icono-3</title>
      </circle>
      <circle
         class="orb-stroke2"
         cx="220.88"
         cy="248.19"
         r="3.1400001"
         transform="rotate(-76.72,220.87335,248.18316)"
         id="orbita-3-icono-2">
        <title
           id="title19">orbita-3-icono-2</title>
      </circle>
      <circle
         class="orb-stroke2"
         cx="214.34"
         cy="259.89001"
         r="3.1400001"
         transform="rotate(-79.1,214.33552,259.8843)"
         id="orbita-3-icono-1">
        <title
           id="title18">orbita-3-icono-1</title>
      </circle>
    </g>
  </g>
  <g
     id="orbita-2-g"
     transform="matrix(0.32850091,0,0,0.32850091,0.1754976,0.26936806)">
    <title
       id="title52">orbita-2-g</title>
    <path
       id="orbita-2"
       class="orb-stroke"
       d="M 679.31,456.62 A 222.69,222.69 0 0 1 456.62,679.31 222.69,222.69 0 0 1 233.92999,456.62 222.69,222.69 0 0 1 456.62,233.92999 222.69,222.69 0 0 1 679.31,456.62 Z">
      <title
         id="title15">orbita-2</title>
    </path>
    <g
       id="icono-2"
       transform="translate(-518.73425,-221.73999)">
      <title
         id="title57">orbita-2-icono</title>
      <circle
         class="orb-fill"
         cx="553.20001"
         cy="255.92"
         r="35"
         id="orbita-2-elemento">
        <title
           id="title14">orbita-2-elemento</title>
      </circle>
      <rect
         class="orb-stroke2"
         x="533.03003"
         y="258.03"
         width="6.6700001"
         height="13.95"
         id="orbita-2-icono-8">
        <title
           id="title13">orbita-2-icono-8</title>
      </rect>
      <rect
         class="orb-stroke2"
         x="543.84003"
         y="255.53999"
         width="6.6700001"
         height="16.440001"
         id="orbita-2-icono-7">
        <title
           id="title12">orbita-2-icono-7</title>
      </rect>
      <rect
         class="orb-stroke2"
         x="554.65002"
         y="253.05"
         width="6.6700001"
         height="18.93"
         id="orbita-2-icono-6">
        <title
           id="title11">orbita-2-icono-6</title>
      </rect>
      <rect
         class="orb-stroke2"
         x="565.46002"
         y="250.55"
         width="6.6700001"
         height="21.42"
         id="orbita-2-icono-5">
        <title
           id="title10">orbita-2-icono-5</title>
      </rect>
      <line
         class="orb-stroke2"
         x1="530.15997"
         y1="271.98001"
         x2="575"
         y2="271.98001"
         id="orbita-2-icono-4">
        <title
           id="title9">orbita-2-icono-4</title>
      </line>
      <line
         class="orb-stroke2"
         x1="533.03003"
         y1="250.55"
         x2="572.13"
         y2="238.21001"
         id="orbita-2-icono-3">
        <title
           id="title8">orbita-2-icono-3</title>
      </line>
      <path
         class="orb-stroke2"
         d="m 572.13,238.19 c -2.51,0.83 -5.2,-0.54 -6.03,-3.04"
         id="orbita-2-icono-2">
        <title
           id="title7">orbita-2-icono-2</title>
      </path>
      <path
         class="orb-stroke2"
         d="m 569.09,244.23 c -0.83,-2.51 0.54,-5.2 3.04,-6.03"
         id="orbita-2-icono-1">
        <title
           id="title6">orbita-2-icono-1</title>
      </path>
    </g>
  </g>
  <g
     id="orbita-1-g"
     transform="matrix(0.32850091,0,0,0.32850091,0.1754976,0.26936806)">
    <title
       id="title51">orbita-1-g</title>
    <path
       id="orbita-1"
       class="orb-stroke"
       d="M 601.5,456.62 A 144.88,144.88 0 0 1 456.62,601.5 144.88,144.88 0 0 1 311.73999,456.62 144.88,144.88 0 0 1 456.62,311.73999 144.88,144.88 0 0 1 601.5,456.62 Z">
      <title
         id="title1">orbita-1</title>
    </path>
    <g
       id="icono-1"
       data-name="Icono"
       transform="translate(-413.13424,-277.83998)">
      <title
         id="title56">orbita-1-icono</title>
      <circle
         class="orb-fill"
         cx="447.60001"
         cy="312.01999"
         r="35"
         id="orbita-1-elemento">
        <title
           id="title2">orbita-1-elemento</title>
      </circle>
      <path
         class="orb-stroke2"
         d="m 452.4,302.42 c 0,2.65 -2.15,4.8 -4.8,4.8 -2.65,0 -4.8,-2.15 -4.8,-4.8 0,-2.65 2.15,-4.8 4.8,-4.8 2.65,0 4.8,2.15 4.8,4.8 z"
         id="orbita-1-icono-3">
        <title
           id="title5">orbita-1-icono-3</title>
      </path>
      <path
         class="orb-stroke2"
         d="m 463.3,308.88 -6.04,-2.42 v 0 C 456.88,290.76 447.6,285 447.6,285 c 0,0 -9.28,5.76 -9.66,21.46 v 0 c 0,0 -6.04,2.42 -6.04,2.42 -0.84,0.33 -1.38,1.14 -1.38,2.04 v 1.93 c 0,1.22 0.99,2.2 2.2,2.2 h 5.83 v -0.12 c 0.07,0.52 0.15,1.04 0.25,1.58 0.2,1.08 1.15,1.87 2.25,1.87 h 1.09 v 3.73 c 0,1.26 1.02,2.28 2.28,2.28 h 6.36 c 1.26,0 2.28,-1.02 2.28,-2.28 v -3.73 h 1.09 c 1.1,0 2.04,-0.79 2.25,-1.87 0.1,-0.54 0.18,-1.07 0.27,-1.6 v 0.14 c 0,0 5.82,0 5.82,0 1.22,0 2.2,-0.99 2.2,-2.2 v -1.93 c 0,-0.9 -0.55,-1.71 -1.38,-2.04 z"
         id="orbita-1-icono-2">
        <title
           id="title4">orbita-1-icono-2</title>
      </path>
      <path
         id="orbita-1-icono-1"
         class="orb-stroke2"
         d="m 442.4698,323.48733 v 15.54171 z m 10.26206,0 v 15.54171 z m -5.13103,1.201 v 11.80196 z">
        <title
           id="title3">orbita-1-icono-1</title>
      </path>
    </g>
  </g>
</svg>
