<?xml version="1.0" encoding="UTF-8" standalone="no"?>
<!-- Created with Inkscape (http://www.inkscape.org/) -->

<svg
   width="10.731499mm"
   height="16.601233mm"
   viewBox="0 0 10.731499 16.601233"
   version="1.1"
   id="svg1"
   xmlns:inkscape="http://www.inkscape.org/namespaces/inkscape"
   xmlns:sodipodi="http://sodipodi.sourceforge.net/DTD/sodipodi-0.dtd"
   xmlns="http://www.w3.org/2000/svg"
   xmlns:svg="http://www.w3.org/2000/svg">
  <sodipodi:namedview
     id="namedview1"
     pagecolor="#505050"
     bordercolor="#eeeeee"
     borderopacity="1"
     inkscape:showpageshadow="0"
     inkscape:pageopacity="0"
     inkscape:pagecheckerboard="0"
     inkscape:deskcolor="#505050"
     inkscape:document-units="mm"
     inkscape:export-bgcolor="#ec03c200" />
  <defs
     id="defs1" />
  <g
     inkscape:label="Capa 1"
     inkscape:groupmode="layer"
     id="layer1"
     transform="translate(-149.22501,-120.12084)">
    <g
       id="logoBelen"
       transform="matrix(0.30178573,0,0,0.30178573,0.15190034,-84.203195)">
      <g
         id="g59">
        <path
           class="cls-4"
           d="m 529.35,716.8 c 0,8.37 -6.6,15.08 -14.75,15.08 -0.81,0 -1.55,-0.02 -2.39,0 7.36,-0.86 13.09,-7.39 13.09,-15.17 0,-7.78 -5.49,-13.87 -12.51,-15.03 0.15,-0.02 0.41,0.04 0.56,0.03 0.35,0 0.7,-0.02 1.04,-0.05 0.07,0 0.14,0 0.2,0 8.15,0 14.76,6.78 14.76,15.15 z"
           id="path58"
           style="fill:#ffffff" />
        <path
           class="cls-4"
           d="m 514.61,732.05 c -0.3,0 -0.58,0 -0.87,0 -0.48,0 -0.98,0 -1.52,0 l -0.02,-0.34 c 7.38,-0.86 12.94,-7.31 12.94,-15.01 0,-7.7 -5.32,-13.69 -12.37,-14.86 l -1.15,-0.19 1.16,-0.14 c 0.1,-0.01 0.22,0 0.33,0.01 0.09,0 0.18,0.02 0.23,0.02 h 0.01 c 0.35,0 0.69,-0.02 1.03,-0.05 h 0.01 c 0.07,0 0.14,0 0.21,0 8.23,0 14.93,6.87 14.93,15.32 0,4.09 -1.55,7.92 -4.37,10.8 -2.81,2.87 -6.56,4.45 -10.55,4.45 z m -0.55,-0.34 c 0.18,0 0.36,0 0.55,0 8.04,0 14.58,-6.69 14.58,-14.91 0,-8.22 -6.55,-14.98 -14.59,-14.98 -0.06,0 -0.13,0 -0.19,0 -0.04,0 -0.07,0 -0.11,0.01 6.47,1.78 11.18,7.92 11.18,14.87 0,3.79 -1.36,7.45 -3.82,10.29 -2.04,2.35 -4.68,3.98 -7.59,4.71 z"
           id="path59"
           style="fill:#ffffff" />
      </g>
      <g
         id="g61">
        <path
           class="cls-4"
           d="m 514.39,701.65 c -0.35,0 -2.14,0 -2.14,0 5.52,-1.07 9.69,-6.29 9.69,-12.27 0,-5.98 -4.14,-10.91 -9.62,-12.01 v -0.11 c 0.32,-0.03 0.64,-0.04 0.97,-0.04 6.59,0 11.93,5.48 11.93,12.24 0,6.38 -4.75,11.62 -10.82,12.19 z"
           id="path60"
           style="fill:#ffffff" />
        <path
           class="cls-4"
           d="m 513.02,701.83 c -0.4,0 -0.74,0 -0.77,0 l -0.03,-0.33 c 5.44,-1.06 9.55,-6.26 9.55,-12.1 0,-5.84 -3.99,-10.74 -9.48,-11.84 l -0.14,-0.03 v -0.41 h 0.15 c 0.32,-0.04 0.65,-0.05 0.98,-0.05 6.67,0 12.09,5.57 12.09,12.41 0,3.11 -1.13,6.09 -3.18,8.38 -2.04,2.28 -4.81,3.69 -7.8,3.97 h -0.01 c -0.2,0 -0.84,0 -1.37,0 z m 0.11,-24.43 c 5.25,1.43 8.98,6.35 8.98,11.99 0,2.92 -1,5.79 -2.81,8.08 -1.52,1.91 -3.51,3.31 -5.72,4.02 0.35,0 0.67,0 0.8,0 6.08,-0.57 10.66,-5.74 10.66,-12.02 0,-6.66 -5.27,-12.07 -11.76,-12.07 -0.05,0 -0.11,0 -0.16,0 z"
           id="path61"
           style="fill:#ffffff" />
      </g>
      <path
         class="cls-4"
         d="m 498.26,689.39 h -0.34 c 0,-3.31 1.26,-6.41 3.54,-8.74 2.28,-2.32 5.32,-3.6 8.55,-3.6 h 0.25 c 0.58,0 1.13,0 1.69,0.09 0.14,0.02 0.28,0.05 0.4,0.07 l -0.07,0.33 c -0.12,-0.02 -0.25,-0.05 -0.39,-0.07 -0.53,-0.09 -1.07,-0.09 -1.63,-0.08 h -0.25 c -6.48,0 -11.76,5.38 -11.76,12 z"
         id="path62"
         style="fill:#ffffff" />
      <polygon
         class="cls-4"
         points="512.42,701.66 512.08,701.66 "
         id="polygon62"
         style="fill:#ffffff" />
      <path
         class="cls-4"
         d="m 498.26,699.95 h -0.34 v -21.74 q 0,-1.05 0.05,-1.1 c 0,0 0.07,-0.05 0.12,-0.05 h 15.32 v 0.34 h -15.15 c 0,2.06 0,22.33 0,22.55 z"
         id="path63"
         style="fill:#ffffff" />
      <rect
         class="cls-4"
         x="498.19"
         y="731.71002"
         width="15.82"
         height="0.34"
         id="rect63"
         style="fill:#ffffff" />
      <rect
         class="cls-4"
         x="499.79999"
         y="701.46997"
         width="16.190001"
         height="0.34"
         transform="rotate(-0.07,539.76228,745.17736)"
         id="rect64"
         style="fill:#ffffff" />
      <g
         id="g64">
        <circle
           class="cls-4"
           cx="498.09"
           cy="701.65997"
           r="0.62"
           id="circle64"
           style="fill:#ffffff" />
        <path
           class="cls-4"
           d="m 498.09,702.34 c -0.38,0 -0.68,-0.31 -0.68,-0.68 0,-0.37 0.31,-0.68 0.68,-0.68 0.37,0 0.68,0.31 0.68,0.68 0,0.37 -0.31,0.68 -0.68,0.68 z m 0,-1.25 c -0.31,0 -0.57,0.25 -0.57,0.57 0,0.32 0.25,0.57 0.57,0.57 0.32,0 0.57,-0.25 0.57,-0.57 0,-0.32 -0.25,-0.57 -0.57,-0.57 z"
           id="path64"
           style="fill:#ffffff" />
      </g>
      <rect
         class="cls-4"
         x="497.94"
         y="703.37"
         width="0.34"
         height="2.4200001"
         id="rect65"
         style="fill:#ffffff" />
      <rect
         class="cls-4"
         x="493.97"
         y="701.48999"
         width="2.4200001"
         height="0.34"
         id="rect66"
         style="fill:#ffffff" />
    </g>
  </g>
</svg>
