<?xml version="1.0" encoding="UTF-8" standalone="no"?>
<svg
   id="Capa_1"
   viewBox="0 0 50.000001 50.354627"
   version="1.1"
   sodipodi:docname="logo wpp.svg"
   width="50"
   height="50.354626">
  <path
     class="logo-wpp-1"
     d="M 0,50.354627 C 1.3444762,46.354313 2.5598032,42.605675 3.8777873,38.890152 4.2751694,37.767548 4.2155621,36.903242 3.645981,35.810441 -4.2288082,20.779462 5.5467922,2.1852899 22.336187,0.18182158 35.645177,-1.4077069 47.556706,7.5863753 49.692635,20.832446 52.259061,36.754223 38.367245,51.066603 22.448779,48.927363 19.600873,48.543226 16.90861,47.731905 14.315691,46.496709 13.848767,46.274837 13.166595,46.235099 12.669867,46.387428 8.8980482,47.543148 5.1494101,48.771721 1.3908375,49.970491 1.0265705,50.086394 0.65236899,50.172493 0,50.351315 Z m 6.3779832,-6.258769 c 2.4538346,-0.781518 4.6063208,-1.516675 6.7985458,-2.125994 0.562958,-0.155642 1.344476,-0.09935 1.844515,0.185445 4.477172,2.526688 9.20602,3.387682 14.275953,2.457146 C 40.287925,42.592429 47.709036,31.528648 45.437335,20.501294 43.159011,9.4441367 32.178018,2.1852899 21.312928,4.553025 7.1561898,7.629425 0.53315436,23.514775 8.3516477,35.681292 c 0.4404319,0.685484 0.4636125,1.228573 0.2020026,1.953795 -0.7318454,2.036583 -1.3908374,4.102971 -2.1789787,6.460771 z"
     id="path1"/>
  <path
  class="logo-wpp-2"
     d="m 6.3710937,44.097656 2.263343,-6.692812 C 8.7720963,36.85062 8.7447169,36.3129 8.4410872,35.802805 8.159808,35.255544 7.8062464,34.775066 7.5136905,34.239064 7.0569621,33.402277 6.6695225,32.509564 6.3276499,31.626434 4.9399895,28.04181 4.6088447,24.135516 5.578125,19.820312 c 0.3568454,-1.601186 0.9860979,-3.083193 1.672908,-4.54002 1.0060381,-1.653139 1.8774428,-3.352704 3.457179,-4.808017 1.630918,-1.6486753 3.490777,-3.1488488 5.889574,-4.2994409 1.687651,-0.7543979 3.451879,-1.3709546 5.347526,-1.7509591 1.318369,-0.1475625 2.583906,-0.287478 3.721184,-0.2764206 5.457848,0.053065 8.935429,1.8792993 11.953794,4.0691377 1.296661,1.0465 2.373108,2.0630969 3.263458,3.0913809 2.466853,2.84902 3.643457,5.566025 4.292392,8.048559 0.697774,2.669367 0.685657,5.146226 0.519172,7.59078 -0.87421,5.846261 -3.370558,9.745955 -6.59375,12.773438 -6.097196,5.178063 -11.681754,5.661873 -17.234375,4.953125 C 19.456051,44.215879 17.287775,43.283454 15.175781,42.25 14.19928,41.653807 13.493079,41.789578 12.761719,42.085937 Z"
     id="path3" />
  <path
     class="logo-wpp-1"
     d="m 12.954657,18.683271 c 0.218561,-1.801466 0.794765,-3.288337 1.85445,-4.66924 1.066309,-1.390837 2.394228,-1.748481 3.977133,-1.308049 0.380825,0.105968 0.811322,0.516596 0.966963,0.890798 0.682173,1.642513 1.390838,3.291648 1.824647,5.003703 0.152329,0.596073 -0.30466,1.510052 -0.751715,2.063076 -1.523298,1.894188 -1.559725,1.851138 -0.208626,3.874475 1.778285,2.665772 4.119529,4.662617 7.013795,6.036897 0.80801,0.384136 1.410707,0.337775 1.96373,-0.397382 0.380825,-0.503351 0.89411,-0.913979 1.228573,-1.44051 0.665615,-1.04644 1.420641,-1.1789 2.477015,-0.556335 1.327919,0.778207 2.751872,1.39746 4.053298,2.212094 0.397382,0.248364 0.751715,0.913979 0.748403,1.387526 -0.01656,2.433965 -1.85445,4.453991 -4.530156,4.857996 -1.129228,0.172199 -2.37767,0.125838 -3.480405,-0.165576 -7.474096,-1.973664 -12.401634,-6.997237 -15.842301,-13.653387 -0.652369,-1.265 -0.874241,-2.751872 -1.291492,-4.136086 z"
     id="path2"/>
</svg>
