
<svg id="logo-bhf" xmlns="http://www.w3.org/2000/svg" viewBox="0 0 50 138.05">

  <path d="M36.09,128.57c0,3.85,3.11,6.96,6.94,6.96.16,0,.3,0,.44-.02v2.53H0V0h43.48v121.64c-.14-.02-.28-.02-.44-.02-3.83,0-6.94,3.11-6.94,6.94Z"/>
  <path class="cls-1" d="M20.68,15.99c1.63-.87,3.51-1.31,5.61-1.31,2.51,0,4.78.64,6.81,1.91,2.03,1.27,3.64,3.09,4.82,5.45,1.18,2.36,1.77,5.11,1.77,8.23s-.59,5.88-1.77,8.26c-1.18,2.38-2.79,4.21-4.82,5.5s-4.3,1.93-6.81,1.93c-2.14,0-4.01-.43-5.61-1.28-1.6-.85-2.85-1.99-3.76-3.41v4.25H7.6S7.6-3.25,7.6-3.25h9.32v20.2c0,.78.92,1.19,1.49.65.65-.61,1.41-1.15,2.27-1.61Z"/>
  <path class="cls-1" d="M34.69,62.67c2.11,2.31,3.16,5.48,3.16,9.51v14.33c0,1.9-1.54,3.43-3.43,3.43h-5.83v-16.51c0-2.03-.53-3.62-1.58-4.74s-2.47-1.69-4.25-1.69-3.2.56-4.25,1.69c-1.05,1.13-1.58,2.71-1.58,4.74v16.51H7.6v-40.33h9.32v10.91c0,1.07,1.22,1.62,2.07.97.54-.41,1.14-.77,1.8-1.09,1.63-.8,3.47-1.2,5.5-1.2,3.49,0,6.29,1.15,8.39,3.46Z"/>
  <path class="cls-1" d="M22.6,117.34h-5.01s0,23.2,0,23.2h-9.32s0-23.2,0-23.2h-3.38s0-7.74,0-7.74h3.38v-4.56c0-3.74,1.07-6.59,3.22-8.53,2.14-1.94,5.29-2.92,9.43-2.92.69,0,5.42.02,5.75.05v7.9c-1.78-.11-7.25.15-7.98.76-.73.62-1.09,1.73-1.09,3.32v3.97h5.01s0,7.74,0,7.74Z"/>
  <path d="M50,128.57c0,3.69-2.87,6.72-6.52,6.94v-13.87c3.66.23,6.52,3.25,6.52,6.93Z"/>
</svg>