<?xml version="1.0" encoding="UTF-8" standalone="no"?>
<!-- Created with Inkscape (http://www.inkscape.org/) -->

<svg
   width="16.404175mm"
   height="15.666995mm"
   viewBox="0 0 16.404175 15.666995"
   version="1.1"
   id="svg1"
   xmlns:inkscape="http://www.inkscape.org/namespaces/inkscape"
   xmlns:sodipodi="http://sodipodi.sourceforge.net/DTD/sodipodi-0.dtd"
   xmlns="http://www.w3.org/2000/svg"
   xmlns:svg="http://www.w3.org/2000/svg">
  <sodipodi:namedview
     id="namedview1"
     pagecolor="#505050"
     bordercolor="#eeeeee"
     borderopacity="1"
     inkscape:showpageshadow="0"
     inkscape:pageopacity="0"
     inkscape:pagecheckerboard="0"
     inkscape:deskcolor="#505050"
     inkscape:document-units="mm"
     inkscape:export-bgcolor="#ec03c200" />
  <defs
     id="defs1" />
  <g
     inkscape:label="Capa 1"
     inkscape:groupmode="layer"
     id="layer1"
     transform="translate(-134.40833,-53.974993)">
    <g
       id="logoSound"
       transform="matrix(0.28493058,0,0,0.28493058,38.357518,-138.94082)">
      <path
         class="cls-4"
         d="m 393.84,696.92 c 1.1,1.05 1.1,2.76 0,3.81 -1.1,1.05 -2.89,1.05 -3.99,0 L 369.9,681.68 v 0 c -1.09,-1.06 -1.09,-2.76 0,-3.81 1.1,-1.05 2.88,-1.05 3.98,0 0,0 0,0 0,0 l 19.95,19.05 z"
         id="path39"
         style="fill:#ffffff" />
      <path
         class="cls-4"
         d="m 393.88,716.03 c -1.1,1.05 -2.89,1.05 -3.99,0 l -15.87,-15.16 c -0.73,-0.7 -1.72,-1.09 -2.75,-1.09 h -12.76 c -1.03,0 -2.02,-0.39 -2.75,-1.09 l -17.84,-17.04 c 0,0 0,0 0,0 -1.09,-1.05 -1.09,-2.75 0,-3.8 1.1,-1.05 2.88,-1.05 3.98,0 l 16.58,15.83 v 0 c 1.1,1.05 2.89,1.05 3.99,0 1.1,-1.05 1.1,-2.76 0,-3.81 v 0 c 0,0 -8.6,-8.21 -8.6,-8.21 0,0 0,0 0,0 -1.09,-1.05 -1.09,-2.75 0,-3.8 1.1,-1.05 2.88,-1.05 3.98,0 0,0 0,0 0,0 l 36,34.38 c 1.1,1.05 1.1,2.76 0,3.81 z"
         id="path40"
         style="fill:#ffffff" />
      <path
         class="cls-4"
         d="m 361.75,727.33 c 0.95,1.06 0.9,2.66 -0.15,3.66 -1.1,1.05 -2.89,1.05 -3.99,0 l -19.43,-18.55 c 0,0 0,0 0,0 -1.09,-1.05 -1.09,-2.75 0,-3.8 1.05,-1.01 2.74,-1.05 3.84,-0.13 0.04,0.05 0.09,0.09 0.14,0.14 0,0 0,0 0,0 l 19.43,18.55 c 0,0 0.1,0.09 0.15,0.13 q 0,0 0,0 z"
         id="path41"
         style="fill:#ffffff" />
      <path
         class="cls-4"
         d="m 393.85,731.26 c -1.08,1.03 -2.82,1.05 -3.93,0.06 0,0 0,0 0,0 -0.03,-0.03 -0.06,-0.07 -0.1,-0.1 l -19.43,-18.55 c 0,0 0,0 0,0 -0.04,-0.03 -0.07,-0.07 -0.11,-0.1 -1.11,-0.94 -2.81,-0.91 -3.87,0.11 -1.1,1.05 -1.1,2.75 0,3.8 0,0 0,0 0,0 l 11.38,10.87 v 0 c 1.1,1.06 1.1,2.77 0,3.82 -1.1,1.05 -2.89,1.05 -3.99,0 l -35.77,-34.16 c 0,0 0,0 0,0 -1.09,-1.05 -1.09,-2.75 0,-3.8 1.1,-1.05 2.88,-1.05 3.98,0 0,0 0,0 0,0 l 12.26,11.71 c 0.58,0.56 1.37,0.87 2.2,0.87 h 13.4 c 0.82,0 1.61,0.31 2.2,0.87 l 21.78,20.8 c 1.1,1.05 1.1,2.76 0,3.81 z"
         id="path42"
         style="fill:#ffffff" />
      <ellipse
         class="cls-4"
         cx="341.84"
         cy="727.37"
         rx="2.8099999"
         ry="2.6800001"
         id="ellipse42"
         style="fill:#ffffff" />
      <ellipse
         class="cls-4"
         cx="389.78"
         cy="681.64001"
         rx="2.8099999"
         ry="2.6800001"
         id="ellipse43"
         style="fill:#ffffff" />
    </g>
  </g>
</svg>
