<?xml version="1.0" encoding="UTF-8" standalone="no"?>
<!-- Created with Inkscape (http://www.inkscape.org/) -->

<svg
   width="15.875mm"
   height="15.988349mm"
   viewBox="0 0 15.875 15.988349"
   version="1.1"
   id="svg1"
   xmlns:inkscape="http://www.inkscape.org/namespaces/inkscape"
   xmlns:sodipodi="http://sodipodi.sourceforge.net/DTD/sodipodi-0.dtd"
   xmlns="http://www.w3.org/2000/svg"
   xmlns:svg="http://www.w3.org/2000/svg">
  <sodipodi:namedview
     id="namedview1"
     pagecolor="#505050"
     bordercolor="#eeeeee"
     borderopacity="1"
     inkscape:showpageshadow="0"
     inkscape:pageopacity="0"
     inkscape:pagecheckerboard="0"
     inkscape:deskcolor="#505050"
     inkscape:document-units="mm"
     inkscape:export-bgcolor="#ec03c200" />
  <defs
     id="defs1" />
  <g
     inkscape:label="Capa 1"
     inkscape:groupmode="layer"
     id="layer1"
     transform="translate(-79.375002,-201.08331)">
    <g
       id="logoUdana"
       transform="matrix(0.29064444,0,0,0.29064444,6.3447701,4.3054114)">
      <path
         class="cls-4"
         d="m 279.25,703.89 c -0.2,0.22 -0.41,0.44 -0.63,0.66 0,0 0,0 -0.01,0.01 -0.24,0.24 -0.49,0.47 -0.74,0.69 0.23,-0.25 0.46,-0.49 0.7,-0.73 -2.9,-2.84 -6.86,-4.59 -11.24,-4.59 -4.38,0 -8.38,1.77 -11.28,4.63 -2.95,-2.91 -4.78,-6.96 -4.78,-11.44 0,-8.87 7.19,-16.06 16.06,-16.06 4.39,0 8.37,1.76 11.27,4.61 -2.95,2.91 -4.78,6.95 -4.78,11.42 0,4.47 1.82,8.5 4.77,11.41 0.22,-0.21 0.44,-0.42 0.67,-0.62 z"
         id="path48"
         style="fill:#ffffff" />
      <path
         class="cls-4"
         d="m 283.39,715.99 c 0,4.49 -1.85,8.56 -4.82,11.47 -2.9,2.84 -6.86,4.59 -11.24,4.59 -8.87,0 -16.06,-7.19 -16.06,-16.06 0,-4.47 1.83,-8.52 4.78,-11.43 2.9,2.86 6.88,4.63 11.28,4.63 4.03,0 7.72,-1.49 10.54,-3.94 0.26,-0.22 0.5,-0.45 0.74,-0.69 2.95,2.91 4.78,6.96 4.78,11.43 z"
         id="path49"
         style="fill:#ffffff" />
      <path
         class="cls-4"
         d="m 305.89,693.09 c 0,4.5 -1.86,8.57 -4.84,11.48 -2.89,2.82 -6.84,4.56 -11.2,4.56 -4.36,0 -8.34,-1.75 -11.23,-4.59 0.22,-0.21 0.43,-0.43 0.63,-0.66 2.58,-2.85 4.14,-6.63 4.14,-10.77 0,-4.48 -1.84,-8.54 -4.8,-11.45 2.9,-2.85 6.87,-4.62 11.26,-4.62 8.86,0 16.04,7.18 16.04,16.04 z"
         id="path50"
         style="fill:#ffffff" />
      <circle
         class="cls-4"
         cx="296.51999"
         cy="722.70001"
         r="9.3199997"
         id="circle50"
         style="fill:#ffffff" />
    </g>
  </g>
</svg>
