<?xml version="1.0" encoding="UTF-8" standalone="no"?>
<!-- Created with Inkscape (http://www.inkscape.org/) -->

<svg
   width="11.1125mm"
   height="16.869438mm"
   viewBox="0 0 11.1125 16.869438"
   version="1.1"
   id="svg1"
   xmlns:inkscape="http://www.inkscape.org/namespaces/inkscape"
   xmlns:sodipodi="http://sodipodi.sourceforge.net/DTD/sodipodi-0.dtd"
   xmlns="http://www.w3.org/2000/svg"
   xmlns:svg="http://www.w3.org/2000/svg">
  <sodipodi:namedview
     id="namedview1"
     pagecolor="#505050"
     bordercolor="#eeeeee"
     borderopacity="1"
     inkscape:showpageshadow="0"
     inkscape:pageopacity="0"
     inkscape:pagecheckerboard="0"
     inkscape:deskcolor="#505050"
     inkscape:document-units="mm"
     inkscape:export-bgcolor="#ec03c200" />
  <defs
     id="defs1" />
  <g
     inkscape:label="Capa 1"
     inkscape:groupmode="layer"
     id="layer1"
     transform="translate(-60.325002,-32.808326)">
    <g
       id="logoX"
       transform="matrix(0.28670019,0,0,0.28670019,-61.59139,-160.75444)">
      <g
         id="g44">
        <path
           class="cls-4"
           d="m 447.15,715.9 c 0.48,-10.29 3.07,-13.63 6.3,-16.03 3.32,-2.46 7.49,-3.32 10.45,-3.45 v -6.96 c -4.29,-0.03 -7.9,0.86 -11.56,3.17 -5.16,3.27 -6.88,8.87 -6.88,14.44 v 25.56 h -1.64 v -25.56 c 0,-5.57 -1.72,-11.17 -6.88,-14.44 -3.65,-2.31 -7.27,-3.2 -11.56,-3.17 l 0.09,6.98 c 2.97,0.13 7.05,0.96 10.36,3.43 3.23,2.4 5.82,5.74 6.3,16.03 l 0.39,16.61 -1.34,-0.22 v -3.88 c 0,-2.77 0,-7.26 -0.52,-10.55 -0.9,-5.65 -2.51,-11.65 -7.38,-14.55 -1.34,-0.8 -3.87,-1.93 -7.9,-1.63 v 6.17 c 1.82,-0.2 5.81,-0.36 9.09,2.14 2.38,1.81 3.48,4.32 4.23,7.27 0.58,2.26 1.19,5.36 1.19,9.16 l 0.02,5.58 -1.44,-0.43 v -6.53 c 0,-5.89 -4.73,-10.66 -10.57,-10.66 -0.81,0 -1.6,0.09 -2.36,0.27 0,0 0,0 0,0 0.08,10.54 8.68,19.17 19.1,19.22 10.47,0.04 19.16,-8.59 19.26,-19.18 -0.81,-0.2 -1.65,-0.3 -2.51,-0.3 -5.84,0 -10.57,4.77 -10.57,10.66 v 6.52 l -1.44,0.44 0.02,-5.58 c 0,-3.8 0.61,-6.9 1.19,-9.16 0.75,-2.95 1.85,-5.46 4.23,-7.27 3.29,-2.5 7.27,-2.34 9.09,-2.14 v -6.17 c -4.03,-0.3 -6.56,0.83 -7.9,1.63 -4.87,2.91 -6.48,8.91 -7.38,14.55 -0.52,3.29 -0.52,7.78 -0.52,10.55 v 3.88 l -1.34,0.22 0.39,-16.61 z"
           id="path43"
           style="fill:#ffffff" />
        <path
           class="cls-4"
           d="m 444.72,733.97 c 0,0 -0.05,0 -0.08,0 -10.51,-0.04 -19.13,-8.71 -19.22,-19.33 v -0.09 c 0,0 0.09,-0.02 0.09,-0.02 0.78,-0.18 1.58,-0.27 2.38,-0.27 5.89,0 10.68,4.83 10.68,10.77 v 6.44 l 1.22,0.37 -0.02,-5.42 c 0,-3.03 -0.39,-6.01 -1.19,-9.14 -0.63,-2.46 -1.61,-5.25 -4.19,-7.21 -2.95,-2.25 -6.53,-2.4 -9.01,-2.12 h -0.12 c 0,0 0,-6.39 0,-6.39 h 0.1 c 3.08,-0.23 5.76,0.32 7.97,1.64 4.97,2.96 6.55,9.06 7.43,14.63 0.53,3.3 0.53,7.85 0.53,10.57 v 3.79 l 1.11,0.18 -0.39,-16.47 c -0.46,-9.74 -2.73,-13.32 -6.26,-15.94 -3.68,-2.73 -8.03,-3.31 -10.3,-3.4 h -0.11 c 0,0 -0.1,-7.21 -0.1,-7.21 h 0.11 c 4.51,-0.03 8.09,0.95 11.62,3.19 5.73,3.63 6.94,9.91 6.94,14.53 v 25.45 h 1.42 v -25.45 c 0,-4.63 1.21,-10.91 6.94,-14.53 3.48,-2.2 7.01,-3.19 11.43,-3.19 0.06,0 0.13,0 0.19,0 H 464 c 0,0 0,7.18 0,7.18 h -0.11 c -1.84,0.08 -6.54,0.57 -10.39,3.43 -3.52,2.62 -5.8,6.2 -6.25,15.94 l -0.39,16.47 1.12,-0.18 v -3.79 c 0,-2.7 0,-7.23 0.52,-10.57 0.89,-5.57 2.46,-11.66 7.43,-14.63 2.21,-1.32 4.89,-1.87 7.97,-1.64 h 0.1 v 6.41 h -0.12 c -2.48,-0.29 -6.06,-0.15 -9.01,2.11 -2.57,1.96 -3.56,4.74 -4.19,7.21 -0.8,3.13 -1.19,6.12 -1.19,9.14 l -0.02,5.42 1.22,-0.37 v -6.44 c 0,-5.94 4.79,-10.77 10.68,-10.77 0.86,0 1.71,0.1 2.54,0.31 l 0.09,0.02 v 0.09 c -0.1,10.65 -8.75,19.29 -19.29,19.29 z m -19.07,-19.24 c 0.13,10.45 8.63,18.97 18.99,19.02 0.03,0 0.05,0 0.08,0 10.39,0 18.92,-8.49 19.07,-18.98 -0.78,-0.19 -1.59,-0.28 -2.4,-0.28 -5.77,0 -10.46,4.73 -10.46,10.55 v 6.61 l -1.66,0.5 0.02,-5.73 c 0,-3.03 0.39,-6.04 1.19,-9.19 0.64,-2.5 1.65,-5.33 4.27,-7.33 2.96,-2.26 6.53,-2.44 9.05,-2.18 v -5.94 c -2.99,-0.2 -5.59,0.34 -7.74,1.62 -4.89,2.92 -6.45,8.95 -7.33,14.47 -0.53,3.32 -0.52,7.84 -0.52,10.53 v 3.98 l -1.57,0.26 0.4,-16.75 c 0.46,-9.83 2.77,-13.45 6.34,-16.11 3.83,-2.84 8.48,-3.37 10.41,-3.46 v -6.74 h -0.07 c -4.38,0 -7.87,0.98 -11.31,3.15 -5.64,3.57 -6.83,9.77 -6.83,14.34 v 25.67 h -1.87 v -25.67 c 0,-4.57 -1.19,-10.77 -6.83,-14.34 -3.46,-2.19 -6.98,-3.16 -11.39,-3.15 l 0.09,6.76 c 2.32,0.11 6.65,0.72 10.32,3.44 3.58,2.66 5.89,6.28 6.35,16.11 l 0.4,16.75 -1.57,-0.26 v -3.98 c 0,-2.71 0,-7.25 -0.52,-10.53 -0.88,-5.52 -2.44,-11.56 -7.33,-14.47 -2.14,-1.28 -4.74,-1.82 -7.74,-1.62 v 5.94 c 2.52,-0.26 6.08,-0.08 9.05,2.18 2.63,2 3.63,4.83 4.27,7.33 0.8,3.14 1.19,6.15 1.19,9.19 l 0.02,5.73 -1.67,-0.5 v -6.61 c 0,-5.82 -4.69,-10.55 -10.46,-10.55 -0.76,0 -1.51,0.08 -2.24,0.25 z"
           id="path44"
           style="fill:#ffffff" />
      </g>
      <g
         id="g47">
        <path
           class="cls-4"
           d="m 440.99,689.84 c -0.71,-0.93 -0.72,-1.42 -0.71,-2.2 0.01,-0.78 0.58,-1.51 1.29,-2.04 -0.37,-0.11 -0.71,-0.29 -0.96,-0.62 -0.45,-0.58 -0.4,-1.28 -0.39,-1.37 0,-0.1 0.07,-0.66 0.48,-1.12 0.82,-0.93 2.52,-0.84 4.79,-1.03 0,0 0.22,-0.02 0.55,-0.1 0.44,-0.12 0.57,-0.23 0.64,-0.3 0.08,-0.08 0.18,-0.26 0.2,-0.35 0.05,-0.22 0.04,-0.43 -0.04,-0.62 h -9.91 c -0.51,1.1 -0.79,2.32 -0.79,3.61 0,4.24 3.05,7.75 7.05,8.45 -0.83,-0.72 -1.64,-1.59 -2.2,-2.31 z"
           id="path45"
           style="fill:#ffffff" />
        <path
           class="cls-4"
           d="m 451.41,678.52 c -1.55,-2.06 -4.01,-3.38 -6.77,-3.38 -2.76,0 -5.21,1.33 -6.77,3.38 h 13.53 z"
           id="path46"
           style="fill:#ffffff" />
        <path
           class="cls-4"
           d="m 452.35,680.09 h -4.23 c 0.13,0.79 -0.16,1.63 -0.87,2.11 -1.09,0.74 -1.63,0.5 -3.35,0.78 -0.44,0.07 -1.2,0.17 -1.4,0.56 -0.16,0.32 -0.13,0.9 0.13,1.07 0.29,0.19 0.69,0.25 1.09,0.26 0.21,-0.02 0.43,-0.02 0.66,-0.03 0,0 0,0 0,0 0.25,-0.02 0.61,0 0.99,0.04 0.53,0.05 1.03,0.16 1.44,0.34 0.03,0.01 0.06,0.03 0.08,0.04 0,0 0.02,0 0.02,0.01 0,0 0.01,0 0.02,0.01 0,0 0.02,0 0.03,0.01 0,0 0.01,0 0.02,0.01 0.02,0.01 0.04,0.03 0.06,0.04 0.01,0 0.02,0.01 0.03,0.02 0.01,0 0.03,0.02 0.04,0.03 0.94,0.67 1,2.14 1,2.14 l -1.25,0.08 c 0,0 0,-0.11 -0.01,-0.27 -0.03,-0.2 -0.11,-0.47 -0.34,-0.74 -0.6,-0.71 -1.64,-0.6 -2.04,-0.58 -1.09,0.05 -1.53,0.67 -1.69,1 -0.38,0.8 -0.15,1.62 -0.1,1.8 0,0 0.53,1.71 3.45,3.3 3.97,-0.73 6.97,-4.22 6.97,-8.43 0,-1.29 -0.29,-2.52 -0.79,-3.61 z"
           id="path47"
           style="fill:#ffffff" />
      </g>
    </g>
  </g>
</svg>
