<?xml version="1.0" encoding="UTF-8" standalone="no"?>
<!-- Created with Inkscape (http://www.inkscape.org/) -->

<svg
   width="21.278061mm"
   height="14.516272mm"
   viewBox="0 0 21.278061 14.516272"
   version="1.1"
   id="svg1"
   xmlns:inkscape="http://www.inkscape.org/namespaces/inkscape"
   xmlns:sodipodi="http://sodipodi.sourceforge.net/DTD/sodipodi-0.dtd"
   xmlns="http://www.w3.org/2000/svg"
   xmlns:svg="http://www.w3.org/2000/svg">
  <sodipodi:namedview
     id="namedview1"
     pagecolor="#505050"
     bordercolor="#eeeeee"
     borderopacity="1"
     inkscape:showpageshadow="0"
     inkscape:pageopacity="0"
     inkscape:pagecheckerboard="0"
     inkscape:deskcolor="#505050"
     inkscape:document-units="mm"
     inkscape:export-bgcolor="#ec03c200" />
  <defs
     id="defs1" />
  <g
     inkscape:label="Capa 1"
     inkscape:groupmode="layer"
     id="layer1"
     transform="translate(-148.84229,-19.757114)">
    <g
       id="logoYamatec"
       transform="matrix(0.27133216,0,0,0.27133216,130.2796,-163.95104)">
      <path
         class="cls-4"
         d="m 104.98,694.25 17.54,-16.89 c 0.12,-0.12 0.23,-0.21 0.33,-0.3 H 87.57 c 0.14,0.11 0.27,0.22 0.41,0.36 l 17,16.84 z"
         id="path66"
         style="fill:#ffffff" />
      <path
         class="cls-4"
         d="m 146.77178,729.40264 -20.32679,-51.55608 c -0.0778,-0.18479 -0.19443,-0.35013 -0.34024,-0.47656 -0.0389,0.16534 -0.12638,0.3015 -0.23331,0.40848 L 89.67983,714.47365 89.33959,698.11498 69.0128,677.99245 c -0.20415,-0.13616 -0.3208,-0.32095 -0.37913,-0.50574 -0.21386,0.28204 -0.29163,0.65162 -0.14581,1.0212 l 20.31707,51.51718 c 0.12638,0.32094 0.43745,0.53491 0.77769,0.53491 h 56.41147 c 0.59299,0 1.00128,-0.59327 0.77769,-1.14764 z m -37.65949,-19.07215 -19.80186,20.12253 0.21386,-5.84516 14.72745,-14.69558 c 0.63187,-0.63217 1.0596,-0.84614 1.95394,-0.84614 h 2.32334 c 0.58327,0 0.84573,0.32095 0.84573,0.63218 0,0.26259 -0.10693,0.47656 -0.26246,0.63217 z m 0,-7.66387 -19.80186,20.12252 0.21386,-5.84516 14.72745,-14.69557 c 0.63187,-0.63217 1.0596,-0.84614 1.95394,-0.84614 h 2.32334 c 0.58327,0 0.84573,0.32095 0.84573,0.63217 0,0.2626 -0.10693,0.47656 -0.26246,0.63218 z"
         id="path67"
         style="fill:#ffffff;stroke-width:0.972341" />
    </g>
  </g>
</svg>
